<svg width="40" height="41" viewBox="0 0 40 41" fill="none" xmlns="http://www.w3.org/2000/svg">
<circle cx="20" cy="20.7676" r="20" fill="black"/>
<circle cx="20" cy="20.7676" r="19.5" stroke="white" stroke-opacity="0.4"/>
<path d="M12.6196 27.4733L12.6789 27.6407C12.6713 27.6215 12.6496 27.5629 12.6196 27.4733ZM14.9669 23.6782C15.071 22.7784 15.4248 22.2746 16.0913 21.7581C17.045 21.0586 18.2364 21.4543 18.2364 21.4543V19.1071C18.526 19.0993 18.8158 19.1173 19.1022 19.1606V22.1813C19.1022 22.1813 17.9112 21.7856 16.9575 22.4854C16.2913 23.0015 15.9369 23.5057 15.8331 24.4056C15.8298 24.8942 15.9177 25.5329 16.3224 26.0852C16.2224 26.0316 16.1204 25.9706 16.0164 25.9022C15.1249 25.2775 14.9625 24.3405 14.9669 23.6782ZM24.0213 14.767C23.3653 14.0169 23.1171 13.2596 23.0275 12.7275H23.8528C23.8528 12.7275 23.6882 14.1225 24.8875 15.4943L24.9042 15.5128C24.5809 15.3006 24.2845 15.0502 24.0213 14.767ZM27.9972 16.8936V19.8536C27.9972 19.8536 26.944 19.8105 26.1646 19.6036C25.0763 19.3143 24.3769 18.8705 24.3769 18.8705C24.3769 18.8705 23.8937 18.5541 23.8546 18.532V24.6443C23.8546 24.9846 23.7653 25.8345 23.4929 26.5434C23.1374 27.4707 22.5887 28.0794 22.4878 28.2038C22.4878 28.2038 21.8206 29.0266 20.6433 29.5807C19.5822 30.0805 18.6505 30.0679 18.372 30.0805C18.372 30.0805 16.7615 30.1471 15.3123 29.1644C14.9989 28.9478 14.7064 28.7025 14.4385 28.4317L14.4457 28.4371C15.8953 29.4198 17.5055 29.3532 17.5055 29.3532C17.7843 29.3406 18.716 29.3532 19.7767 28.8534C20.9529 28.2993 21.6213 27.4765 21.6213 27.4765C21.7211 27.3521 22.2723 26.7434 22.6264 25.8157C22.898 25.1072 22.988 24.2569 22.988 23.9166V17.805C23.0271 17.8275 23.5099 18.1439 23.5099 18.1439C23.5099 18.1439 24.2098 18.5881 25.298 18.877C26.0778 19.0839 27.1306 19.127 27.1306 19.127V16.8076C27.4908 16.8918 27.7979 16.9146 27.9972 16.8936Z" fill="#EE1D52"/>
<path d="M27.1309 16.8076V19.1262C27.1309 19.1262 26.0781 19.0832 25.2983 18.8763C24.2101 18.587 23.5102 18.1432 23.5102 18.1432C23.5102 18.1432 23.0274 17.8267 22.9883 17.8043V23.9173C22.9883 24.2576 22.899 25.1079 22.6267 25.8164C22.2711 26.7441 21.7225 27.3528 21.6216 27.4772C21.6216 27.4772 20.9539 28.3 19.7771 28.8541C18.7163 29.3539 17.7846 29.3413 17.5058 29.3539C17.5058 29.3539 15.8956 29.4205 14.446 28.4378L14.4388 28.4324C14.2857 28.2778 14.1417 28.1145 14.0073 27.9434C13.5447 27.355 13.2612 26.6591 13.1899 26.4606C13.1898 26.4597 13.1898 26.4589 13.1899 26.458C13.0753 26.113 12.8344 25.2844 12.8673 24.4819C12.9255 23.0659 13.403 22.1968 13.5292 21.9791C13.8635 21.3854 14.2983 20.8541 14.8142 20.4091C15.2695 20.025 15.7855 19.7195 16.3412 19.5049C16.9418 19.253 17.5851 19.118 18.2363 19.1071V21.4543C18.2363 21.4543 17.045 21.0601 16.0916 21.7581C15.4251 22.2746 15.0713 22.7784 14.9672 23.6782C14.9628 24.3405 15.1252 25.2775 16.016 25.9025C16.12 25.9712 16.2219 26.0322 16.322 26.0855C16.4776 26.2966 16.667 26.4805 16.8826 26.6298C17.7528 27.2045 18.4819 27.2447 19.4143 26.8714C20.036 26.6219 20.504 26.0595 20.721 25.4363C20.8574 25.0472 20.8556 24.6555 20.8556 24.2504V12.7275H23.0256C23.1153 13.2596 23.3634 14.0169 24.0195 14.767C24.2826 15.0502 24.5791 15.3006 24.9023 15.5128C24.9978 15.6158 25.486 16.1254 26.1128 16.4383C26.4369 16.6 26.7785 16.7239 27.1309 16.8076Z" fill="black"/>
<path d="M12.3264 25.74V25.7418L12.3799 25.8941C12.3738 25.8763 12.3539 25.8225 12.3264 25.74Z" fill="#69C9D0"/>
<path d="M16.3411 19.505C15.7854 19.7196 15.2694 20.0251 14.8141 20.4092C14.298 20.8553 13.8633 21.3876 13.5294 21.9825C13.4032 22.1995 12.9258 23.0693 12.8676 24.4852C12.8347 25.2878 13.0755 26.1164 13.1902 26.4614C13.1901 26.4622 13.1901 26.4631 13.1902 26.4639C13.2625 26.6607 13.545 27.3565 14.0076 27.9468C14.1419 28.1179 14.286 28.2812 14.439 28.4358C13.9487 28.0966 13.5114 27.6866 13.1414 27.2191C12.6828 26.6357 12.3999 25.9471 12.3262 25.7438C12.3261 25.7424 12.3261 25.741 12.3262 25.7395V25.737C12.2111 25.3923 11.9695 24.5634 12.0032 23.7597C12.0614 22.3438 12.5388 21.4747 12.665 21.257C12.9988 20.662 13.4335 20.1297 13.9497 19.6837C14.4049 19.2995 14.921 18.9939 15.4767 18.7795C15.8233 18.6357 16.1844 18.5296 16.5537 18.463C17.1103 18.3659 17.6788 18.3575 18.238 18.4381V19.1072C17.5862 19.1178 16.9423 19.2529 16.3411 19.505Z" fill="#69C9D0"/>
<path d="M23.0275 12.7277H20.8575V24.2509C20.8575 24.656 20.8575 25.0466 20.723 25.4368C20.5038 26.0596 20.0376 26.622 19.4162 26.8716C18.4835 27.2463 17.7544 27.2047 16.8845 26.63C16.6686 26.4813 16.4787 26.298 16.3225 26.0875C17.0636 26.4828 17.7269 26.4759 18.5486 26.1461C19.1696 25.8965 19.6365 25.3341 19.855 24.711C19.9917 24.3218 19.9899 23.9301 19.9899 23.5254V12H22.9863C22.9863 12 22.9527 12.2864 23.0275 12.7277ZM27.1311 16.1665V16.8077C26.7793 16.7239 26.4383 16.6 26.1148 16.4384C25.488 16.1256 24.9997 15.616 24.9043 15.5129C25.015 15.5857 25.13 15.6518 25.2486 15.7111C26.0106 16.0916 26.7611 16.2052 27.1311 16.1665Z" fill="#69C9D0"/>
</svg>
