<svg width="102" height="50" viewBox="0 0 102 50" fill="none" xmlns="http://www.w3.org/2000/svg">
<rect x="0.623173" y="0.393192" width="100.776" height="49.2136" rx="5.89789" fill="white" stroke="#A3A3A3" stroke-width="0.786385"/>
<path d="M58.0319 18.6914L52.3042 13.2821H53.8119L58.0319 18.6914Z" fill="#9E1638"/>
<path d="M76.0967 26.4188L63.0327 24.3672L64.7646 32.1688L76.0967 26.4188Z" fill="#D12053"/>
<path d="M76.0967 26.4182L66.2525 12.7109L63.0352 24.369L76.0967 26.4182Z" fill="#E2136E"/>
<path d="M62.7298 24.211L52.415 11L65.9225 12.6171L62.7298 24.211Z" fill="#D12053"/>
<path d="M78.8827 19.7552L76.4586 26.3447L72.5293 20.8983L78.8827 19.7552Z" fill="#D12053"/>
<path d="M66.2891 31.7731L75.8007 27.9438L76.1998 26.7267L66.2891 31.7731Z" fill="#E2136E"/>
<path d="M58.6821 39.0002L62.7568 24.6758L64.8237 33.9958L58.6821 39.0002Z" fill="#9E1638"/>
<path d="M79.2622 19.8069L78.262 22.5276L81.8686 22.4683L79.2622 19.8069ZM21 20.8981C21.1749 20.9129 21.3523 20.945 21.5395 20.945C21.7267 20.945 21.8795 20.9129 22.079 20.8981V26.6926C22.6481 25.7223 23.365 25.0829 24.4194 25.0829C26.3261 25.0829 27.144 26.974 27.144 28.7121C27.144 30.7934 26.0354 32.7858 24.0917 32.7858C23.7026 32.7943 23.3185 32.696 22.9811 32.5015C22.6437 32.307 22.3658 32.0236 22.1776 31.6822C21.8524 31.9686 21.5641 32.3118 21.2562 32.6228H21.0099L21 20.8981ZM22.0544 29.4207C22.0544 31.1094 22.7688 32.2871 23.9439 32.2871C25.4688 32.2871 25.9591 30.233 25.9591 28.7763C25.9591 27.0851 25.4023 25.7544 24.0819 25.7396C22.5397 25.7273 22.0544 27.5567 22.0544 29.4232V29.4207Z" fill="#E2136E"/>
<path d="M32.118 24.6458L30.97 26.1271C32.049 27.7072 33.1674 29.2552 34.2514 30.855L35.3452 32.5832V32.6696C35.0766 32.6523 34.8328 32.6178 34.6061 32.6178C34.3795 32.6178 34.0937 32.6523 33.8523 32.6696C33.5542 32.1166 33.2586 31.6055 32.9211 31.1043L29.9648 26.7221C29.8983 26.653 29.7382 26.5986 29.7382 26.6702V32.6696C29.5214 32.6523 29.3317 32.6178 29.1445 32.6178C28.9573 32.6178 28.7405 32.6523 28.5508 32.6696V20.898C28.7405 20.9128 28.9449 20.9499 29.1445 20.9499C29.344 20.9499 29.5214 20.9128 29.7382 20.898V26.211C29.7382 26.3147 29.9402 26.2456 30.0732 26.1073C30.3298 25.8407 30.5701 25.5588 30.7926 25.263L34.1159 20.8931C34.2908 20.9079 34.4657 20.9449 34.6554 20.9449C34.8451 20.9449 34.9904 20.9079 35.1826 20.8931L32.118 24.6458ZM41.0581 31.3438C41.0581 31.9561 41.0186 32.2672 41.8144 32.0647V32.4079C41.6844 32.4732 41.5482 32.5253 41.4079 32.5635C40.7058 32.7042 40.1244 32.5783 40.016 31.6574L39.8953 31.7932C39.6606 32.1014 39.3578 32.3509 39.0108 32.5223C38.6637 32.6936 38.2818 32.7821 37.8949 32.7807C36.9391 32.7807 36.1015 32.0252 36.1015 30.8673C36.1015 29.0823 37.3332 28.8478 38.597 28.6132C39.6662 28.4108 40.0308 28.317 40.0308 27.564C40.0308 26.4036 39.4642 25.7321 38.4517 25.7321C38.1059 25.7253 37.7664 25.8251 37.4791 26.0181C37.1918 26.2111 36.9706 26.4879 36.8454 26.811H36.6976V25.9419C37.3055 25.4119 38.0774 25.1084 38.8828 25.0828C40.2993 25.0828 41.0704 25.9419 41.0704 27.7121L41.0581 31.3438ZM39.979 28.7589L39.5036 28.8675C38.5847 29.07 37.2076 29.2255 37.2076 30.655C37.2076 31.6426 37.7003 32.1363 38.528 32.1363C38.9562 32.0835 39.3478 31.8678 39.6218 31.5339C39.7204 31.4204 39.9914 31.1537 39.9914 31.0402L39.979 28.7589ZM43.4649 31.1364C43.7852 31.7512 44.3813 32.3018 45.0169 32.3018C45.3796 32.2832 45.7208 32.1239 45.9682 31.8575C46.2156 31.5911 46.3498 31.2386 46.3423 30.8747C46.3423 28.7614 43.152 30.1341 43.152 27.3986C43.152 25.8975 44.1375 25.0852 45.352 25.0852C45.889 25.0734 46.4187 25.2136 46.8794 25.4901C46.7463 25.8523 46.6393 26.2236 46.5591 26.6011H46.4359C46.2585 26.0851 45.788 25.5667 45.2879 25.5667C44.6129 25.5667 44.0562 26.0234 44.0562 26.8702C44.0562 28.8725 47.2464 27.8059 47.2464 30.3118C47.2464 31.9882 45.9506 32.7807 44.7583 32.7807C44.1611 32.7803 43.5765 32.609 43.0732 32.2869C43.1941 31.9113 43.2888 31.5277 43.3565 31.1389L43.4649 31.1364ZM49.0645 20.898C49.2443 20.9128 49.4192 20.9449 49.6065 20.9449C49.7937 20.9449 49.9464 20.9128 50.1484 20.898V26.5986C50.6214 25.6432 51.363 25.0828 52.3237 25.0828C53.8905 25.0828 54.499 26.1592 54.499 28.1343V32.6696C54.2945 32.6523 54.1369 32.6227 53.957 32.6227C53.7772 32.6227 53.5924 32.6548 53.4151 32.6696V28.4923C53.4151 26.7641 53.0677 25.8925 51.9172 25.8925C50.7003 25.8925 50.1484 26.7715 50.1484 28.3985V32.6696C49.9464 32.6523 49.7863 32.6227 49.6065 32.6227C49.4266 32.6227 49.2468 32.6548 49.0645 32.6696V20.898Z" fill="#231F20"/>
</svg>
