<svg width="30" height="30" viewBox="0 0 30 30" fill="none" xmlns="http://www.w3.org/2000/svg">
<path d="M22.7375 22.1875H9.42499C8.18749 22.1875 6.99999 21.6625 6.16249 20.75C5.32499 19.8375 4.9 18.6125 5 17.375L6.0375 4.925C6.075 4.5375 5.93749 4.16251 5.67499 3.87501C5.41249 3.58751 5.04999 3.4375 4.66249 3.4375H2.5C1.9875 3.4375 1.5625 3.0125 1.5625 2.5C1.5625 1.9875 1.9875 1.5625 2.5 1.5625H4.67501C5.58751 1.5625 6.44999 1.95 7.06249 2.6125C7.39999 2.9875 7.64999 3.42501 7.78749 3.91251H23.4C24.6625 3.91251 25.825 4.4125 26.675 5.3125C27.5125 6.225 27.9375 7.4125 27.8375 8.675L27.1625 18.05C27.025 20.3375 25.025 22.1875 22.7375 22.1875ZM7.85 5.77499L6.875 17.525C6.8125 18.25 7.05 18.9375 7.5375 19.475C8.025 20.0125 8.69999 20.3 9.42499 20.3H22.7375C24.0375 20.3 25.2125 19.2 25.3125 17.9L25.9875 8.52501C26.0375 7.78751 25.8 7.08751 25.3125 6.57501C24.825 6.05001 24.15 5.76248 23.4125 5.76248H7.85V5.77499Z" fill="#6E758D"/>
<path d="M20.3125 28.4375C18.9375 28.4375 17.8125 27.3125 17.8125 25.9375C17.8125 24.5625 18.9375 23.4375 20.3125 23.4375C21.6875 23.4375 22.8125 24.5625 22.8125 25.9375C22.8125 27.3125 21.6875 28.4375 20.3125 28.4375ZM20.3125 25.3125C19.9625 25.3125 19.6875 25.5875 19.6875 25.9375C19.6875 26.2875 19.9625 26.5625 20.3125 26.5625C20.6625 26.5625 20.9375 26.2875 20.9375 25.9375C20.9375 25.5875 20.6625 25.3125 20.3125 25.3125Z" fill="#6E758D"/>
<path d="M10.3125 28.4375C8.9375 28.4375 7.8125 27.3125 7.8125 25.9375C7.8125 24.5625 8.9375 23.4375 10.3125 23.4375C11.6875 23.4375 12.8125 24.5625 12.8125 25.9375C12.8125 27.3125 11.6875 28.4375 10.3125 28.4375ZM10.3125 25.3125C9.9625 25.3125 9.6875 25.5875 9.6875 25.9375C9.6875 26.2875 9.9625 26.5625 10.3125 26.5625C10.6625 26.5625 10.9375 26.2875 10.9375 25.9375C10.9375 25.5875 10.6625 25.3125 10.3125 25.3125Z" fill="#6E758D"/>
<path d="M26.25 10.9375H11.25C10.7375 10.9375 10.3125 10.5125 10.3125 10C10.3125 9.4875 10.7375 9.0625 11.25 9.0625H26.25C26.7625 9.0625 27.1875 9.4875 27.1875 10C27.1875 10.5125 26.7625 10.9375 26.25 10.9375Z" fill="#6E758D"/>
</svg>
