<svg width="62" height="62" viewBox="0 0 62 62" fill="none" xmlns="http://www.w3.org/2000/svg">
<path d="M33 43L21 41L17 41.5L14.5 43.5L12 46.5L11 46L8 45H5.5L4.5 46L4 48.5H3.5L2 49.5L1 50.5L1.5 52L3 53L4 54V56L5.5 57L10 56H12L17 60L21.5 60.5L32 59.5L41 58.5L50.5 56.5L58.5 55L61 53V51L60 48.5L58.5 47L53 45.5L44 44.5L38 43.5L33 43Z" fill="white"/>
<path d="M13 35.5L15.5 41.5V42.5L19.5 40.5C17.5 38.9 17 35.8333 17 34.5C14.6 31.7 14.6667 28.3333 15 27C12 25 12 21 12.5 18.5C12.9 16.5 15.3333 15 16.5 14.5L19.5 10.5L23.5 9L26.5 6.5L25.5 5.5L23.5 4.5L21.5 2.5L19 1H16.5L14 3.5L12 4L9 6L7 9C5 9.8 3.83333 12.3333 3.5 13.5V18L7 21L6 23.5L7.5 27.5L8 30L10 33.5L13 35.5Z" fill="white"/>
<path d="M62 34.949C62 30.595 59.889 26.437 56.353 23.827C55.632 23.293 54.738 23 53.837 23C52.709 23 51.652 23.451 50.876 24.218C50.731 24.097 50.599 23.964 50.449 23.849C49.894 23.425 49.228 23.173 48.544 23.069L48.985 18.22C48.995 18.104 49 17.987 49 17.87C49 15.736 47.264 14 45.13 14H44.87C42.736 14 41 15.736 41 17.87C41 17.987 41.005 18.104 41.016 18.221L41.459 23.091C40.825 23.211 40.212 23.456 39.694 23.842C39.515 23.976 39.356 24.13 39.184 24.271C39.095 24.179 39.001 24.093 38.904 24.01C38.961 23.677 39 23.34 39 23C39 21.73 38.604 20.515 37.87 19.5C38.604 18.485 39 17.271 39 16C39 12.576 36.103 9.801 32.651 10.011C32.009 8.171 30.512 6.784 28.672 6.249C27.454 4.73 25.618 3.887 23.651 4.011C22.823 1.638 20.581 0 18 0C15.835 0 13.864 1.158 12.802 3.003C10.154 3.092 7.865 4.961 7.209 7.507C4.113 8.662 2 11.659 2 15C2 17.679 3.318 20.128 5.499 21.608C5.17 22.359 5 23.171 5 24C5 25.8 5.8 27.473 7.173 28.606C7.058 29.07 7 29.537 7 30C7 33.064 9.31 35.6 12.28 35.957L14.492 42.152C13.359 42.987 12.394 44.032 11.651 45.232L6.412 44.068C6.213 44.022 6.008 44 5.802 44C4.257 44 3 45.257 3 46.802V47.198C3 47.478 3.054 47.744 3.131 48H3C1.346 48 0 49.346 0 51C0 52.654 1.346 54 3 54H3.131C3.054 54.256 3 54.522 3 54.802V55.198C3 56.743 4.257 58 5.802 58C6.008 58 6.213 57.978 6.41 57.933L11.651 56.768C13.592 59.902 17.051 62 21 62H21.235C21.791 62 22.354 61.957 22.907 61.872L57.198 56.597C59.98 56.168 62 53.815 62 51C62 48.749 60.697 46.812 58.757 45.899C60.829 43.424 62 40.284 62 37.051V34.949ZM49.233 25.438C52.218 27.72 54 31.355 54 35.164V38.837C54 40.887 53.489 42.894 52.526 44.685L44.507 43.451C44.177 42 44 40.518 44 39.03V34.97C44 33.962 44.101 32.955 44.254 31.957C44.499 31.978 44.743 32 45 32C47.851 32 50 30.71 50 29C50 28.056 49.347 27.218 48.216 26.668L48.363 25.05C48.675 25.113 48.975 25.239 49.233 25.438ZM44.87 16H45.131C46.162 16 47.001 16.839 47.001 17.87C47.001 17.927 46.999 17.984 46.993 18.04L46.085 28.027L46.848 28.272C47.724 28.552 48 28.921 48 29C48 29.249 46.936 30 45 30C43.064 30 42 29.249 42 29C42 28.921 42.276 28.552 43.152 28.271L43.915 28.026L43.007 18.04C43.002 17.983 43 17.926 43 17.87C43 16.839 43.839 16 44.87 16ZM41.64 25.083L41.784 26.668C40.653 27.218 40 28.056 40 29C40 30.102 40.899 31.023 42.296 31.543C42.117 32.678 42 33.824 42 34.97V39.03C42 40.404 42.132 41.776 42.388 43.125L36.493 42.218C36.172 41.119 36 39.986 36 38.836V35.163C36 31.36 37.828 27.726 40.89 25.444C41.113 25.278 41.37 25.156 41.64 25.083ZM30.833 41.347C30.29 39.973 30 38.534 30 37.051V34.948C30 31.226 31.808 27.67 34.835 25.434C35.215 25.154 35.687 25 36.163 25C36.767 25 37.323 25.243 37.73 25.65C35.372 28.234 34 31.628 34 35.164V38.837C34 39.868 34.123 40.888 34.346 41.888L30.833 41.347ZM30.927 11.301L31.109 12.33L32.129 12.103C32.439 12.034 32.724 12 33 12C35.206 12 37 13.794 37 16C37 17.051 36.592 18.045 35.852 18.799L35.164 19.5L35.852 20.201C36.592 20.955 37 21.949 37 23C37 23.03 36.994 23.06 36.994 23.091C36.723 23.037 36.447 23 36.163 23C35.262 23 34.368 23.293 33.647 23.826C31.827 25.169 30.394 26.926 29.422 28.905C29.043 27.725 28.645 26.595 28.235 25.522C29.16 20.636 32.591 17.808 32.626 17.779L32 17L31.375 16.219C31.236 16.33 28.531 18.539 27.012 22.524C24.931 17.746 22.967 14.655 22.841 14.459L21.158 15.541C21.185 15.582 22.71 17.981 24.485 21.8C21.494 20.674 18.095 20.985 17.9 21.005L18.099 22.995C19.603 22.844 23.863 22.917 25.853 24.948C26.554 26.671 27.245 28.56 27.855 30.584C24.815 29.025 21.188 29 21 29V31C21.047 31 25.499 31.03 28.134 33.125C28.052 33.727 28 34.335 28 34.949V37.052C28 38.403 28.208 39.724 28.594 41.004L22.907 40.129C22.607 40.083 22.304 40.052 22 40.03C19.794 40.03 18 38.222 18 36.001C18 35.535 18.093 35.057 18.275 34.578L18.567 33.813L17.874 33.375C16.701 32.633 16 31.372 16 30C16 29.213 16.231 28.45 16.668 27.792L17.291 26.856L16.289 26.347C14.26 25.315 13 23.267 13 21C13 18.339 14.788 15.969 17.349 15.236L17.97 15.058L18.063 14.419C18.348 12.47 20.041 11 22 11C22.037 11 22.073 11.008 22.109 11.013C22.179 11.023 22.25 11.032 22.321 11.037L23.038 11.095L23.32 10.433C23.951 8.955 25.395 8 27 8C28.938 8 30.589 9.388 30.927 11.301ZM13.705 34H13C10.794 34 9 32.206 9 30C9 29.533 9.093 29.055 9.275 28.578L9.568 27.813L8.875 27.375C7.701 26.633 7 25.372 7 24C7 23.213 7.231 22.45 7.668 21.792L8.291 20.856L7.289 20.347C5.26 19.315 4 17.267 4 15C4 12.339 5.788 9.969 8.348 9.236L8.969 9.058L9.062 8.419C9.348 6.47 11.041 5 13 5C13.038 5 13.075 5.008 13.112 5.013C13.18 5.022 13.248 5.031 13.318 5.037L14.038 5.097L14.321 4.432C14.951 2.955 16.395 2 18 2C19.938 2 21.589 3.388 21.927 5.301L22.109 6.33L23.129 6.103C23.439 6.034 23.724 6 24 6C24.46 6 24.897 6.101 25.315 6.247C23.845 6.677 22.579 7.653 21.802 9.003C19.154 9.092 16.865 10.961 16.209 13.507C13.113 14.662 11 17.659 11 21C11 23.679 12.318 26.128 14.499 27.608C14.17 28.359 14 29.171 14 30C14 31.8 14.8 33.473 16.173 34.607C16.058 35.071 16 35.537 16 36C16 37.757 16.756 39.336 17.953 40.438C17.359 40.61 16.788 40.833 16.24 41.098L13.705 34ZM5 47.198V46.802C5 46.3 5.486 45.913 5.977 46.019L10.736 47.077C10.62 47.379 10.516 47.686 10.427 48H5.802C5.36 48 5 47.64 5 47.198ZM2 51C2 50.449 2.449 50 3 50H5.802H10.05C10.021 50.33 10 50.662 10 51C10 51.338 10.021 51.67 10.051 52H5.802H3C2.449 52 2 51.551 2 51ZM5.975 55.981C5.501 56.083 5 55.699 5 55.198V54.802C5 54.36 5.36 54 5.802 54H10.426C10.515 54.314 10.62 54.621 10.735 54.923L5.975 55.981ZM60 51C60 52.821 58.694 54.343 56.895 54.62L22.605 59.895C22.151 59.965 21.69 60 21.235 60H21C16.038 60 12 55.962 12 51C12 46.038 16.038 42 21 42H21.235C21.69 42 22.151 42.035 22.604 42.104L56.894 47.379C58.694 47.657 60 49.179 60 51ZM60 37.051C60 40.127 58.755 43.103 56.589 45.309L54.602 45.003C55.515 43.085 56 40.982 56 38.836V35.163C56 31.609 54.646 28.198 52.32 25.61C52.724 25.229 53.26 25 53.837 25C54.314 25 54.785 25.154 55.165 25.436C58.192 27.67 60 31.227 60 34.949V37.051Z" fill="#17AF26"/>
<path d="M20 46H22V56H20V46Z" fill="#17AF26"/>
<path d="M28 46H30V56H28V46Z" fill="#17AF26"/>
<path d="M36 46H38V56H36V46Z" fill="#17AF26"/>
<path d="M44 48H46V54H44V48Z" fill="#17AF26"/>
<path d="M52 49H54V53H52V49Z" fill="#17AF26"/>
</svg>
