<svg width="230" height="44" viewBox="0 0 230 44" fill="none" xmlns="http://www.w3.org/2000/svg">
<g clip-path="url(#clip0_134_9188)">
<path d="M37.6935 5.46528H19.7817C19.0117 5.46527 18.2525 5.64643 17.5654 5.99411C16.8784 6.34179 16.2828 6.84624 15.8267 7.46668L12.9624 11.3638C12.6955 11.7268 12.3129 11.9881 11.8775 12.1045C11.4422 12.2209 10.9802 12.1854 10.5678 12.0039C9.50046 11.5343 9.06742 10.249 9.63306 9.22917L10.8602 7.01663C12.9679 3.21673 16.9711 0.859375 21.3163 0.859375H37.5823L37.6935 5.46528Z" fill="#FFD0C7"/>
<path d="M9.85547 22.0109H31.0739V39.7031H9.85547V22.0109Z" fill="#FFDA8F"/>
<path d="M23.7689 27.0914L20.5174 25.6459L17.1605 27.0914V22.0109H23.7689V27.0914ZM0.859375 32.2457H6.41807V43.1406H0.859375V32.2457Z" fill="white"/>
<path d="M0.859375 32.2457H6.41807V43.1406H0.859375V32.2457Z" fill="white"/>
<path d="M0.859375 32.2457H6.41807V43.1406H0.859375V32.2457Z" fill="white"/>
<path d="M6.55306 35.6046C7.43787 33.0471 9.86724 31.2107 12.7255 31.2107C15.1698 31.2107 17.3003 32.5536 18.4197 34.5419V34.542H22.9425C24.0449 34.542 24.9386 35.4358 24.9386 36.5382C24.9386 37.6406 24.0449 38.5343 22.9425 38.5343H17.5847H21.1074L20.2585 38.5348H24.2187C24.9887 38.5348 25.7479 38.3536 26.435 38.0059C27.122 37.6583 27.7176 37.1538 28.1736 36.5334L31.038 32.6363C31.3049 32.2732 31.6875 32.0119 32.1229 31.8956C32.5582 31.7792 33.0201 31.8147 33.4326 31.9961C34.4999 32.4658 34.933 33.7511 34.3673 34.7709L33.1401 36.9834C31.0324 40.7833 27.0292 43.1407 22.684 43.1407H6.41797L6.55306 35.6046Z" fill="#F3C9A6"/>
<path d="M0.859375 32.2457H6.41807V43.1406H0.859375V32.2457Z" fill="#66E0F7"/>
<path d="M0.859375 32.2457H6.41807V43.1406H0.859375V32.2457Z" fill="#66E0F7"/>
<path d="M0.859375 32.2457H6.41807V43.1406H0.859375V32.2457Z" fill="#66E0F7"/>
<path d="M0.859375 32.2457H6.41807V43.1406H0.859375V32.2457Z" fill="#66E0F7"/>
<path d="M5.5 5.38746H31.2944V18.5625H5.5V5.38746Z" fill="white"/>
<path d="M9.80023 5.38746H26.9941C26.9941 7.76243 28.9193 9.68769 31.2943 9.68769V14.2621C28.9193 14.2621 26.9941 16.1874 26.9941 18.5624H9.80023C9.80023 16.1874 7.87497 14.2621 5.5 14.2621V9.68769C7.87497 9.68778 9.80023 7.76243 9.80023 5.38746Z" fill="#A0E5A5"/>
<path d="M38.869 5.25647C38.7373 7.95938 36.9209 10.4038 34.1775 11.2058C31.8315 11.8917 29.4096 11.2006 27.7774 9.6062V9.60611L23.4362 10.8752C22.3781 11.1846 21.2695 10.5776 20.9601 9.5194C20.6507 8.46126 21.2578 7.35266 22.316 7.04329L29.8742 4.83358L33.0914 2.87085L38.869 5.25647Z" fill="#FFD0C7"/>
<path d="M43.1407 11.7543H37.582V0.859375H43.1407V11.7543Z" fill="white"/>
<path d="M43.1407 11.7543H37.582V0.859375H43.1407V11.7543Z" fill="white"/>
<path d="M43.1407 11.7543H37.582V0.859375H43.1407V11.7543Z" fill="white"/>
<path d="M43.1407 11.7543H37.582V0.859375H43.1407V11.7543Z" fill="#66E0F7"/>
<path d="M43.1407 11.7543H37.582V0.859375H43.1407V11.7543Z" fill="#66E0F7"/>
<path d="M43.1407 11.7543H37.582V0.859375H43.1407V11.7543Z" fill="#66E0F7"/>
<path d="M43.1407 11.7543H37.582V0.859375H43.1407V11.7543Z" fill="#66E0F7"/>
<path d="M18.3974 14.6688C19.8852 14.6688 21.0912 13.4628 21.0912 11.975C21.0912 10.4873 19.8852 9.28125 18.3974 9.28125C16.9097 9.28125 15.7036 10.4873 15.7036 11.975C15.7036 13.4628 16.9097 14.6688 18.3974 14.6688Z" fill="white"/>
<path d="M33.7788 31.2095C33.1763 30.9445 32.5297 30.9009 31.9333 31.0525V22.0109C31.9333 21.5364 31.5485 21.1515 31.074 21.1515H9.85557C9.38094 21.1515 8.99619 21.5364 8.99619 22.0109V31.3374C8.36327 31.693 7.78284 32.1348 7.27745 32.6491V32.2457C7.27745 31.7712 6.8927 31.3864 6.41807 31.3864H0.859375C0.384742 31.3864 0 31.7712 0 32.2457V43.1406C0 43.6152 0.384742 44 0.859375 44H22.6841C27.3392 44 31.6338 41.4711 33.8917 37.4003L35.1189 35.1877C35.3101 34.8421 35.4274 34.4605 35.4632 34.0672C35.499 33.6738 35.4525 33.2773 35.3268 32.9029C35.2004 32.5287 34.9974 32.1849 34.7309 31.8934C34.4644 31.6018 34.1401 31.3689 33.7788 31.2095ZM22.9096 22.8703V25.7689L20.8665 24.8606C20.7581 24.8124 20.641 24.7872 20.5224 24.7865C20.4038 24.7858 20.2864 24.8097 20.1774 24.8566L18.0199 25.7857V22.8703H22.9096ZM10.7149 22.8703H16.3011V27.0915C16.3011 27.3805 16.4465 27.6504 16.688 27.8094C16.8069 27.8877 16.9434 27.9352 17.0852 27.9477C17.227 27.9601 17.3697 27.9372 17.5004 27.8808L20.5118 26.5839L23.4198 27.8768C23.5506 27.935 23.6939 27.9595 23.8367 27.9483C23.9795 27.937 24.1171 27.8902 24.2372 27.8122C24.3573 27.7341 24.456 27.6273 24.5243 27.5015C24.5926 27.3756 24.6283 27.2347 24.6283 27.0915V22.8703H30.2146V32.3056L27.4812 36.0243C27.0168 36.6562 26.3801 37.1314 25.6627 37.4062C25.7525 37.1256 25.7981 36.8327 25.798 36.538C25.798 34.9636 24.517 33.6825 22.9425 33.6825L18.9016 33.6824C17.5411 31.6153 15.2194 30.3511 12.7255 30.3511C12.0459 30.3517 11.3695 30.4444 10.7149 30.6268L10.7149 22.8703ZM1.71875 33.1051H5.5587V42.2812H1.71875V33.1051ZM33.6158 34.354L32.3886 36.5666C30.4335 40.0916 26.7149 42.2812 22.6841 42.2812H7.27745V35.7577C8.09505 33.58 10.3143 32.0699 12.7256 32.0699C14.7712 32.0699 16.6661 33.1787 17.6708 34.9635C17.7456 35.0963 17.8544 35.2069 17.986 35.2838C18.1175 35.3608 18.2672 35.4013 18.4197 35.4014H22.9425C23.5693 35.4014 24.0793 35.9113 24.0793 36.5381C24.0793 37.165 23.5693 37.675 22.9425 37.675H17.5847C17.1101 37.675 16.7253 38.0598 16.7253 38.5344C16.7253 39.0089 17.1101 39.3937 17.5847 39.3937L24.2186 39.3942C26.0463 39.3942 27.7835 38.515 28.866 37.0424L31.7304 33.1452C32.0439 32.7186 32.6013 32.5692 33.0864 32.7827C33.3786 32.9114 33.5959 33.1489 33.6978 33.4516C33.8 33.7542 33.7708 34.0747 33.6158 34.354ZM43.1406 0H21.3159C17.5207 0 13.9806 1.64545 11.5402 4.52813H5.5C5.02537 4.52813 4.64062 4.91296 4.64062 5.38751V18.5625C4.64062 19.037 5.02537 19.4219 5.5 19.4219H14.2656C14.7403 19.4219 15.125 19.037 15.125 18.5625C15.125 18.088 14.7403 17.7031 14.2656 17.7031H10.6278C10.2719 15.5241 8.5421 13.8012 6.35938 13.4566V10.4935C8.5421 10.1489 10.2719 8.426 10.6278 6.24697H21.9861C21.2939 6.4735 20.7227 6.94633 20.3713 7.58802C20.1635 7.96605 20.0444 8.38641 20.0231 8.81727C19.5207 8.55711 18.963 8.4215 18.3972 8.42188C16.438 8.42188 14.8441 10.0158 14.8441 11.975C14.8441 13.9342 16.438 15.5282 18.3972 15.5282C20.3565 15.5282 21.9504 13.9342 21.9504 11.975C21.9504 11.8666 21.9447 11.7595 21.9352 11.6536C22.4966 11.8514 23.106 11.8677 23.6772 11.7003L27.5558 10.5664C28.3919 11.2764 29.3754 11.7915 30.4351 12.0746V13.4565C28.2524 13.8011 26.5226 15.524 26.1667 17.703H22C21.5254 17.703 21.1406 18.0879 21.1406 18.5624C21.1406 19.037 21.5254 19.4218 22 19.4218H31.2944C31.7689 19.4218 32.1538 19.037 32.1538 18.5624V12.3224C32.2193 12.3241 32.2847 12.3267 32.3504 12.3267C33.0503 12.3268 33.7466 12.2271 34.4183 12.0307C35.2578 11.7853 36.0339 11.4009 36.7225 10.8946V11.7542C36.7225 12.2287 37.1073 12.6136 37.5818 12.6136H43.1406C43.6152 12.6136 44 12.2287 44 11.7542V0.859375C44 0.384828 43.6152 0 43.1406 0ZM27.9198 17.7031C28.2278 16.4739 29.2021 15.5067 30.435 15.2084V17.7031H27.9198ZM8.87459 17.7031H6.35938V15.2084C7.59232 15.5067 8.56668 16.4739 8.87459 17.7031ZM6.35938 8.74165V6.24688H8.87459C8.56668 7.47613 7.59232 8.44327 6.35938 8.74165ZM18.3972 13.8094C17.3858 13.8094 16.5628 12.9865 16.5628 11.975C16.5628 10.9634 17.3858 10.1406 18.3972 10.1406C19.4087 10.1406 20.2317 10.9635 20.2317 11.975C20.2317 12.9866 19.4087 13.8094 18.3972 13.8094ZM33.9361 10.3811C31.9728 10.9551 29.8427 10.4227 28.3778 8.99155C28.2687 8.88508 28.1333 8.80951 27.9854 8.77259C27.8375 8.73567 27.6824 8.73872 27.5361 8.78144L23.195 10.0506C22.5928 10.2268 21.9606 9.88015 21.7848 9.2785C21.6996 8.98709 21.733 8.67994 21.8788 8.41362C22.0247 8.1473 22.2655 7.95369 22.557 7.86852L30.1152 5.65881C30.5708 5.52561 30.8321 5.04831 30.6989 4.59284C30.5657 4.1372 30.0883 3.87613 29.633 4.00907L27.8515 4.52994C27.841 4.52959 27.8307 4.5283 27.82 4.5283H13.9318C15.9477 2.72508 18.5538 1.71875 21.3159 1.71875H36.7226V8.54236C35.9988 9.42399 35.039 10.0587 33.9361 10.3811ZM42.2812 10.8949H38.4413V1.71875H42.2812V10.8949Z" fill="black"/>
<path d="M18.1328 19.4156C18.6074 19.4156 18.9922 19.0309 18.9922 18.5562C18.9922 18.0816 18.6074 17.6969 18.1328 17.6969C17.6582 17.6969 17.2734 18.0816 17.2734 18.5562C17.2734 19.0309 17.6582 19.4156 18.1328 19.4156Z" fill="black"/>
</g>
<path d="M57.74 22.02C57.74 20.66 58.0533 19.44 58.68 18.36C59.32 17.28 60.18 16.44 61.26 15.84C62.3533 15.2267 63.5467 14.92 64.84 14.92C66.32 14.92 67.6333 15.2867 68.78 16.02C69.94 16.74 70.78 17.7667 71.3 19.1H68.56C68.2 18.3667 67.7 17.82 67.06 17.46C66.42 17.1 65.68 16.92 64.84 16.92C63.92 16.92 63.1 17.1267 62.38 17.54C61.66 17.9533 61.0933 18.5467 60.68 19.32C60.28 20.0933 60.08 20.9933 60.08 22.02C60.08 23.0467 60.28 23.9467 60.68 24.72C61.0933 25.4933 61.66 26.0933 62.38 26.52C63.1 26.9333 63.92 27.14 64.84 27.14C65.68 27.14 66.42 26.96 67.06 26.6C67.7 26.24 68.2 25.6933 68.56 24.96H71.3C70.78 26.2933 69.94 27.32 68.78 28.04C67.6333 28.76 66.32 29.12 64.84 29.12C63.5333 29.12 62.34 28.82 61.26 28.22C60.18 27.6067 59.32 26.76 58.68 25.68C58.0533 24.6 57.74 23.38 57.74 22.02ZM73.2088 23.44C73.2088 22.3333 73.4354 21.3533 73.8888 20.5C74.3554 19.6467 74.9821 18.9867 75.7688 18.52C76.5688 18.04 77.4488 17.8 78.4088 17.8C79.2754 17.8 80.0288 17.9733 80.6688 18.32C81.3221 18.6533 81.8421 19.0733 82.2288 19.58V17.98H84.5288V29H82.2288V27.36C81.8421 27.88 81.3154 28.3133 80.6488 28.66C79.9821 29.0067 79.2221 29.18 78.3688 29.18C77.4221 29.18 76.5554 28.94 75.7688 28.46C74.9821 27.9667 74.3554 27.2867 73.8888 26.42C73.4354 25.54 73.2088 24.5467 73.2088 23.44ZM82.2288 23.48C82.2288 22.72 82.0688 22.06 81.7488 21.5C81.4421 20.94 81.0354 20.5133 80.5288 20.22C80.0221 19.9267 79.4754 19.78 78.8888 19.78C78.3021 19.78 77.7554 19.9267 77.2488 20.22C76.7421 20.5 76.3288 20.92 76.0088 21.48C75.7021 22.0267 75.5488 22.68 75.5488 23.44C75.5488 24.2 75.7021 24.8667 76.0088 25.44C76.3288 26.0133 76.7421 26.4533 77.2488 26.76C77.7688 27.0533 78.3154 27.2 78.8888 27.2C79.4754 27.2 80.0221 27.0533 80.5288 26.76C81.0354 26.4667 81.4421 26.04 81.7488 25.48C82.0688 24.9067 82.2288 24.24 82.2288 23.48ZM91.5234 29.18C90.6568 29.18 89.8768 29.0267 89.1834 28.72C88.5034 28.4 87.9634 27.9733 87.5634 27.44C87.1634 26.8933 86.9501 26.2867 86.9234 25.62H89.2834C89.3234 26.0867 89.5434 26.48 89.9434 26.8C90.3568 27.1067 90.8701 27.26 91.4834 27.26C92.1234 27.26 92.6168 27.14 92.9634 26.9C93.3234 26.6467 93.5034 26.3267 93.5034 25.94C93.5034 25.5267 93.3034 25.22 92.9034 25.02C92.5168 24.82 91.8968 24.6 91.0434 24.36C90.2168 24.1333 89.5434 23.9133 89.0234 23.7C88.5034 23.4867 88.0501 23.16 87.6634 22.72C87.2901 22.28 87.1034 21.7 87.1034 20.98C87.1034 20.3933 87.2768 19.86 87.6234 19.38C87.9701 18.8867 88.4634 18.5 89.1034 18.22C89.7568 17.94 90.5034 17.8 91.3434 17.8C92.5968 17.8 93.6034 18.12 94.3634 18.76C95.1368 19.3867 95.5501 20.2467 95.6034 21.34H93.3234C93.2834 20.8467 93.0834 20.4533 92.7234 20.16C92.3634 19.8667 91.8768 19.72 91.2634 19.72C90.6634 19.72 90.2034 19.8333 89.8834 20.06C89.5634 20.2867 89.4034 20.5867 89.4034 20.96C89.4034 21.2533 89.5101 21.5 89.7234 21.7C89.9368 21.9 90.1968 22.06 90.5034 22.18C90.8101 22.2867 91.2634 22.4267 91.8634 22.6C92.6634 22.8133 93.3168 23.0333 93.8234 23.26C94.3434 23.4733 94.7901 23.7933 95.1634 24.22C95.5368 24.6467 95.7301 25.2133 95.7434 25.92C95.7434 26.5467 95.5701 27.1067 95.2234 27.6C94.8768 28.0933 94.3834 28.48 93.7434 28.76C93.1168 29.04 92.3768 29.18 91.5234 29.18ZM103.907 17.8C104.747 17.8 105.494 17.98 106.147 18.34C106.814 18.7 107.334 19.2333 107.707 19.94C108.094 20.6467 108.287 21.5 108.287 22.5V29H106.027V22.84C106.027 21.8533 105.78 21.1 105.287 20.58C104.794 20.0467 104.12 19.78 103.267 19.78C102.414 19.78 101.734 20.0467 101.227 20.58C100.734 21.1 100.487 21.8533 100.487 22.84V29H98.207V14.2H100.487V19.26C100.874 18.7933 101.36 18.4333 101.947 18.18C102.547 17.9267 103.2 17.8 103.907 17.8ZM122.731 29.14C121.437 29.14 120.244 28.84 119.151 28.24C118.071 27.6267 117.211 26.78 116.571 25.7C115.944 24.6067 115.631 23.38 115.631 22.02C115.631 20.66 115.944 19.44 116.571 18.36C117.211 17.28 118.071 16.44 119.151 15.84C120.244 15.2267 121.437 14.92 122.731 14.92C124.037 14.92 125.231 15.2267 126.311 15.84C127.404 16.44 128.264 17.28 128.891 18.36C129.517 19.44 129.831 20.66 129.831 22.02C129.831 23.38 129.517 24.6067 128.891 25.7C128.264 26.78 127.404 27.6267 126.311 28.24C125.231 28.84 124.037 29.14 122.731 29.14ZM122.731 27.16C123.651 27.16 124.471 26.9533 125.191 26.54C125.911 26.1133 126.471 25.5133 126.871 24.74C127.284 23.9533 127.491 23.0467 127.491 22.02C127.491 20.9933 127.284 20.0933 126.871 19.32C126.471 18.5467 125.911 17.9533 125.191 17.54C124.471 17.1267 123.651 16.92 122.731 16.92C121.811 16.92 120.991 17.1267 120.271 17.54C119.551 17.9533 118.984 18.5467 118.571 19.32C118.171 20.0933 117.971 20.9933 117.971 22.02C117.971 23.0467 118.171 23.9533 118.571 24.74C118.984 25.5133 119.551 26.1133 120.271 26.54C120.991 26.9533 121.811 27.16 122.731 27.16ZM137.634 17.8C138.501 17.8 139.274 17.98 139.954 18.34C140.648 18.7 141.188 19.2333 141.574 19.94C141.961 20.6467 142.154 21.5 142.154 22.5V29H139.894V22.84C139.894 21.8533 139.648 21.1 139.154 20.58C138.661 20.0467 137.988 19.78 137.134 19.78C136.281 19.78 135.601 20.0467 135.094 20.58C134.601 21.1 134.354 21.8533 134.354 22.84V29H132.074V17.98H134.354V19.24C134.728 18.7867 135.201 18.4333 135.774 18.18C136.361 17.9267 136.981 17.8 137.634 17.8ZM154.798 15.1C156.278 15.1 157.571 15.3867 158.678 15.96C159.798 16.52 160.658 17.3333 161.258 18.4C161.871 19.4533 162.178 20.6867 162.178 22.1C162.178 23.5133 161.871 24.74 161.258 25.78C160.658 26.82 159.798 27.62 158.678 28.18C157.571 28.7267 156.278 29 154.798 29H150.258V15.1H154.798ZM154.798 27.14C156.424 27.14 157.671 26.7 158.538 25.82C159.404 24.94 159.838 23.7 159.838 22.1C159.838 20.4867 159.404 19.2267 158.538 18.32C157.671 17.4133 156.424 16.96 154.798 16.96H152.538V27.14H154.798ZM174.538 23.22C174.538 23.6333 174.511 24.0067 174.458 24.34H166.038C166.104 25.22 166.431 25.9267 167.018 26.46C167.604 26.9933 168.324 27.26 169.178 27.26C170.404 27.26 171.271 26.7467 171.778 25.72H174.237C173.904 26.7333 173.298 27.5667 172.418 28.22C171.551 28.86 170.471 29.18 169.178 29.18C168.124 29.18 167.178 28.9467 166.338 28.48C165.511 28 164.858 27.3333 164.378 26.48C163.911 25.6133 163.678 24.6133 163.678 23.48C163.678 22.3467 163.904 21.3533 164.358 20.5C164.824 19.6333 165.471 18.9667 166.298 18.5C167.138 18.0333 168.098 17.8 169.178 17.8C170.218 17.8 171.144 18.0267 171.958 18.48C172.771 18.9333 173.404 19.5733 173.858 20.4C174.311 21.2133 174.538 22.1533 174.538 23.22ZM172.158 22.5C172.144 21.66 171.844 20.9867 171.258 20.48C170.671 19.9733 169.944 19.72 169.078 19.72C168.291 19.72 167.618 19.9733 167.058 20.48C166.498 20.9733 166.164 21.6467 166.058 22.5H172.158ZM179.061 14.2V29H176.781V14.2H179.061ZM183.215 16.52C182.801 16.52 182.455 16.38 182.175 16.1C181.895 15.82 181.755 15.4733 181.755 15.06C181.755 14.6467 181.895 14.3 182.175 14.02C182.455 13.74 182.801 13.6 183.215 13.6C183.615 13.6 183.955 13.74 184.235 14.02C184.515 14.3 184.655 14.6467 184.655 15.06C184.655 15.4733 184.515 15.82 184.235 16.1C183.955 16.38 183.615 16.52 183.215 16.52ZM184.335 17.98V29H182.055V17.98H184.335ZM191.588 26.96L194.708 17.98H197.128L192.928 29H190.208L186.028 17.98H188.468L191.588 26.96ZM208.952 23.22C208.952 23.6333 208.925 24.0067 208.872 24.34H200.452C200.518 25.22 200.845 25.9267 201.432 26.46C202.018 26.9933 202.738 27.26 203.592 27.26C204.818 27.26 205.685 26.7467 206.192 25.72H208.652C208.318 26.7333 207.712 27.5667 206.832 28.22C205.965 28.86 204.885 29.18 203.592 29.18C202.538 29.18 201.592 28.9467 200.752 28.48C199.925 28 199.272 27.3333 198.792 26.48C198.325 25.6133 198.092 24.6133 198.092 23.48C198.092 22.3467 198.318 21.3533 198.772 20.5C199.238 19.6333 199.885 18.9667 200.712 18.5C201.552 18.0333 202.512 17.8 203.592 17.8C204.632 17.8 205.558 18.0267 206.372 18.48C207.185 18.9333 207.818 19.5733 208.272 20.4C208.725 21.2133 208.952 22.1533 208.952 23.22ZM206.572 22.5C206.558 21.66 206.258 20.9867 205.672 20.48C205.085 19.9733 204.358 19.72 203.492 19.72C202.705 19.72 202.032 19.9733 201.472 20.48C200.912 20.9733 200.578 21.6467 200.472 22.5H206.572ZM213.475 19.58C213.809 19.02 214.249 18.5867 214.795 18.28C215.355 17.96 216.015 17.8 216.775 17.8V20.16H216.195C215.302 20.16 214.622 20.3867 214.155 20.84C213.702 21.2933 213.475 22.08 213.475 23.2V29H211.195V17.98H213.475V19.58ZM228.791 17.98L222.031 34.18H219.671L221.911 28.82L217.571 17.98H220.111L223.211 26.38L226.431 17.98H228.791Z" fill="#484848"/>
<defs>
<clipPath id="clip0_134_9188">
<rect width="44" height="44" fill="white"/>
</clipPath>
</defs>
</svg>
