<svg width="105" height="48" viewBox="0 0 105 48" fill="none" xmlns="http://www.w3.org/2000/svg">
<path d="M94.453 26.4315L72.0571 22.9144L75.0261 36.2888L94.453 26.4315Z" fill="#D12053"/>
<path d="M94.4531 26.4316L77.5771 2.93315L72.0615 22.9187L94.4531 26.4316Z" fill="#E2136E"/>
<path d="M71.5382 22.6477L53.8555 0L77.0115 2.77224L71.5382 22.6477Z" fill="#D12053"/>
<path d="M63.4846 13.184L53.6655 3.91079H56.2502L63.4846 13.184Z" fill="#9E1638"/>
<path d="M99.2296 15.0081L95.074 26.3044L88.3379 16.9677L99.2296 15.0081Z" fill="#D12053"/>
<path d="M77.6401 35.6118L93.9461 29.0472L94.6302 26.9607L77.6401 35.6118Z" fill="#E2136E"/>
<path d="M64.5986 48.0001L71.5839 23.4435L75.1272 39.4209L64.5986 48.0001Z" fill="#9E1638"/>
<path d="M99.8796 15.0971L98.165 19.7613L104.348 19.6597L99.8796 15.0971ZM0 16.9679C0.29985 16.9933 0.603923 17.0483 0.92489 17.0483C1.24586 17.0483 1.5077 16.9933 1.84978 16.9679V26.9014C2.82535 25.238 4.05431 24.1418 5.86186 24.1418C9.13065 24.1418 10.5328 27.3839 10.5328 30.3635C10.5328 33.9315 8.6323 37.347 5.30017 37.347C4.63303 37.3617 3.97459 37.1932 3.39618 36.8597C2.81776 36.5262 2.34141 36.0405 2.01871 35.4551C1.46124 35.9461 0.967122 36.5344 0.439217 37.0677H0.016893L0 16.9679ZM1.80755 31.5782C1.80755 34.4732 3.03229 36.4921 5.04677 36.4921C7.66096 36.4921 8.50138 32.9707 8.50138 30.4736C8.50138 27.5743 7.54693 25.2931 5.28327 25.2677C2.63953 25.2465 1.80755 28.3827 1.80755 31.5825V31.5782Z" fill="#E2136E"/>
<path d="M19.0596 23.3926L17.0916 25.932C18.9413 28.6408 20.8587 31.2945 22.7169 34.0371L24.592 36.9998V37.148C24.1317 37.1183 23.7136 37.0591 23.3251 37.0591C22.9365 37.0591 22.4466 37.1183 22.0327 37.148C21.5217 36.1999 21.0149 35.3238 20.4364 34.4646L15.3685 26.952C15.2544 26.8335 14.9799 26.7404 14.9799 26.8631V37.148C14.6083 37.1183 14.2831 37.0591 13.9621 37.0591C13.6412 37.0591 13.2695 37.1183 12.9443 37.148V16.9677C13.2695 16.9931 13.6201 17.0566 13.9621 17.0566C14.3042 17.0566 14.6083 16.9931 14.9799 16.9677V26.0759C14.9799 26.2537 15.3262 26.1352 15.5543 25.8982C15.9942 25.4411 16.406 24.9577 16.7875 24.4507L22.4846 16.9593C22.7845 16.9847 23.0843 17.0481 23.4095 17.0481C23.7347 17.0481 23.9839 16.9847 24.3133 16.9593L19.0596 23.3926ZM34.3857 34.8751C34.3857 35.9248 34.3182 36.4581 35.6823 36.111V36.6993C35.4594 36.8112 35.226 36.9005 34.9854 36.966C33.7818 37.2072 32.7851 36.9914 32.5993 35.4127L32.3924 35.6454C31.99 36.1738 31.471 36.6016 30.876 36.8954C30.2811 37.1891 29.6263 37.3407 28.9631 37.3384C27.3245 37.3384 25.8886 36.0433 25.8886 34.0583C25.8886 30.9982 28.0002 30.5962 30.1667 30.1941C31.9996 29.847 32.6246 29.6862 32.6246 28.3953C32.6246 26.406 31.6533 25.2548 29.9175 25.2548C29.3248 25.2432 28.7427 25.4144 28.2502 25.7452C27.7577 26.076 27.3785 26.5505 27.164 27.1044H26.9106V25.6146C27.9527 24.7059 29.2759 24.1856 30.6566 24.1417C33.085 24.1417 34.4068 25.6146 34.4068 28.6492L34.3857 34.8751ZM32.5359 30.4438L31.7209 30.63C30.1456 30.9771 27.7848 31.2437 27.7848 33.6943C27.7848 35.3873 28.6295 36.2338 30.0485 36.2338C30.7825 36.1432 31.4538 35.7735 31.9236 35.201C32.0925 35.0063 32.5571 34.5492 32.5571 34.3546L32.5359 30.4438ZM38.5118 34.5196C39.0609 35.5735 40.0829 36.5173 41.1725 36.5173C41.7942 36.4855 42.3791 36.2124 42.8033 35.7557C43.2275 35.299 43.4575 34.6947 43.4446 34.071C43.4446 30.448 37.9755 32.8012 37.9755 28.1117C37.9755 25.5384 39.6648 24.1459 41.7468 24.1459C42.6675 24.1256 43.5755 24.366 44.3652 24.84C44.1372 25.461 43.9537 26.0975 43.8162 26.7446H43.6051C43.301 25.8601 42.4943 24.9713 41.637 24.9713C40.4799 24.9713 39.5254 25.7543 39.5254 27.206C39.5254 30.6385 44.9945 28.8101 44.9945 33.106C44.9945 35.9798 42.7731 37.3384 40.729 37.3384C39.7054 37.3376 38.7032 37.044 37.8403 36.4919C38.0476 35.848 38.2099 35.1904 38.326 34.5238L38.5118 34.5196ZM48.1113 16.9677C48.4196 16.9931 48.7194 17.0481 49.0404 17.0481C49.3613 17.0481 49.6232 16.9931 49.9695 16.9677V26.7404C50.7803 25.1025 52.0515 24.1417 53.6986 24.1417C56.3846 24.1417 57.4277 25.987 57.4277 29.373V37.148C57.0772 37.1183 56.8069 37.0675 56.4986 37.0675C56.1903 37.0675 55.8736 37.1226 55.5695 37.148V29.9867C55.5695 27.024 54.974 25.5299 53.0018 25.5299C50.9155 25.5299 49.9695 27.0367 49.9695 29.8259V37.148C49.6232 37.1183 49.3487 37.0675 49.0404 37.0675C48.7321 37.0675 48.4238 37.1226 48.1113 37.148V16.9677Z" fill="#231F20"/>
</svg>
