<svg width="110" height="48" viewBox="0 0 110 48" fill="none" xmlns="http://www.w3.org/2000/svg">
<path d="M70.9747 18.6297H51.7564C51.3758 18.6297 51.1855 18.9149 51.1855 19.2V20.7208C51.1855 21.101 51.471 21.2911 51.7564 21.2911H66.1225V29.2753C65.742 28.705 65.2663 28.1347 64.7906 27.5644C63.078 25.8535 61.2704 24.9981 59.3676 24.9981C57.8454 24.9981 56.6085 25.7585 55.562 27.0892C54.7057 28.2297 54.23 29.5604 54.23 30.7961C54.23 32.0317 54.4203 33.6476 55.3717 35.1684C56.5134 36.9743 58.4162 37.5446 60.1287 37.5446C62.3169 37.5446 64.1246 36.0238 64.1246 34.0278C64.1246 32.8872 63.5537 31.9367 62.5072 31.2713L61.4607 30.701V32.4119C61.3655 32.8872 60.6044 33.5525 59.7482 33.5525C58.987 33.5525 58.3211 33.2674 57.8454 32.7921C57.5599 32.507 57.3696 31.9367 57.4648 31.5565C57.4648 30.9862 57.6551 30.5109 58.0356 30.0357C58.5113 29.4654 58.987 29.1802 59.7482 29.1802C61.651 29.1802 63.2683 30.0357 64.6003 31.9367C65.6468 33.5525 66.2177 35.0733 66.2177 36.7842V40.7763L69.0719 42.4872C69.167 42.5822 69.2622 42.5822 69.3573 42.5822C69.7379 42.5822 69.9281 42.2971 69.9281 42.0119V21.3862H71.0698C71.4504 21.3862 71.6407 21.101 71.6407 20.8159V19.2951C71.6407 18.9149 71.3552 18.6297 70.9747 18.6297Z" fill="#ED1C24"/>
<path d="M109.411 18.6297H85.0552C84.6747 18.6297 84.4844 18.9148 84.4844 19.2V21.8613C82.1059 19.3901 80.0128 18.1544 78.11 18.1544C76.3023 18.1544 74.7801 18.5346 73.4481 19.5802C72.2113 20.5307 71.4502 21.7663 71.4502 23.192C71.4502 27.4693 76.2072 27.3742 77.444 26.8039C77.6343 26.7089 77.9197 26.5188 78.2051 26.5188C79.1565 26.5188 79.5371 27.2792 79.5371 27.9445C79.5371 28.895 78.11 29.7505 76.3975 29.7505C75.4461 29.7505 74.8752 29.4653 74.4947 28.895L73.7336 27.7544L73.2579 29.0851C73.1627 29.3703 72.9724 29.7505 72.9724 30.2257C72.9724 31.1762 73.4481 32.1267 74.3995 32.9821C75.2558 33.7425 76.3023 34.1227 77.444 34.1227C79.2517 34.1227 80.7739 33.4574 81.7253 32.1267C82.5816 31.0812 82.9621 29.8455 82.9621 28.4198C82.9621 27.6594 82.6767 26.8039 82.0107 25.8534C81.2496 24.7128 80.2982 24.1425 79.2517 24.1425C78.8711 24.1425 78.3954 24.2376 77.9197 24.4277C77.7294 24.5227 77.3489 24.6178 77.2537 24.6178C77.0635 24.6178 76.778 24.5227 76.5878 24.2376C76.3975 24.0475 76.2072 23.7623 76.2072 23.2871C76.2072 22.2415 77.1586 21.196 78.8711 21.196H78.9663C80.1079 21.196 81.2496 21.7663 82.2962 22.8118C83.1524 23.6673 83.8184 24.5227 84.3892 25.4732V40.5861L87.2434 42.297C87.3386 42.392 87.4337 42.392 87.5289 42.392C87.9094 42.392 88.0997 42.1069 88.0997 41.8217V21.3861H92.4761V34.598L95.9012 36.0237H96.0915C96.3769 36.0237 96.6623 35.8336 96.6623 35.4534V35.3584C97.2331 31.4613 98.9457 28.8 101.8 27.1841V27.9445C101.8 28.5148 101.8 29.9406 101.895 30.701C101.895 31.1762 101.895 31.4613 101.99 31.7465C101.99 33.2673 102.18 35.5485 102.656 37.2594C103.608 40.4911 105.225 41.2514 106.367 41.2514H106.462C107.128 41.2514 107.699 41.0613 108.079 40.6812C108.269 40.4911 108.555 40.1109 108.555 39.4455C108.555 38.8752 108.46 38.4 108.269 38.0198L107.984 37.5445L107.413 37.6396C106.842 37.8297 106.557 37.8297 106.557 37.7346H106.462C106.271 37.7346 106.271 37.7346 106.176 37.6396C105.986 37.5445 105.605 37.2594 105.32 36.2138C105.13 35.4534 105.035 34.4079 105.035 33.8376C105.035 29.5604 105.891 26.3287 107.318 25.6633H107.413C107.603 25.5683 107.794 25.3782 107.794 25.093C107.794 24.998 107.794 24.9029 107.699 24.8079V24.7128C107.033 23.3821 105.605 22.4316 103.703 21.9564H103.322C101.8 22.2415 99.9922 23.2871 97.7088 25.1881C97.138 25.6633 96.5672 26.1386 96.0915 26.6138V21.3861H109.411C109.792 21.3861 109.982 21.101 109.982 20.8158V19.295C110.077 18.9148 109.792 18.6297 109.411 18.6297Z" fill="#ED1C24"/>
<path d="M44.9061 25.6634C44.9061 26.3287 44.9061 26.899 44.8109 27.4693C44.6207 30.1307 43.9547 32.602 42.9081 34.8832C42.5276 35.8337 42.0519 36.6891 41.481 37.5446C37.4852 43.8179 30.4448 48 22.453 48C19.028 48 15.7932 47.2396 12.939 45.9089C5.32784 42.3921 0 34.5981 0 25.6634C0 16.8238 5.13756 9.21984 12.4633 5.60796C11.8925 6.36835 11.3217 7.12875 10.846 7.98419C10.846 8.07924 10.7508 8.07924 10.7508 8.17429C10.4654 8.45944 10.18 8.64954 9.89456 8.93469C9.514 9.21984 9.22858 9.60003 8.84802 9.88518L8.65774 10.0753L8.46746 10.2654C8.37232 10.3604 8.27718 10.5505 8.0869 10.6456C7.89662 10.9307 7.6112 11.2159 7.42092 11.501C6.46952 12.7367 5.7084 14.0674 5.13756 15.4931C5.04242 15.5882 5.04242 15.7783 4.94728 15.8733C4.85214 16.0634 4.85214 16.2535 4.757 16.3485C4.757 16.4436 4.66186 16.5386 4.66186 16.6337C4.56672 16.9188 4.47158 17.1089 4.37644 17.3941C4.2813 17.5842 4.2813 17.7743 4.18616 17.8693C4.18616 17.9644 4.09102 18.0594 4.09102 18.1545C4.09102 18.3446 3.99588 18.5347 3.99588 18.7248L3.71046 20.4357C3.71046 20.6258 3.71046 20.7208 3.61532 20.9109V23.1921C3.61532 29.2753 6.37438 34.7882 10.846 38.305C14.271 41.0614 18.5523 42.7723 23.2142 42.7723C27.4955 42.7723 31.3962 41.4416 34.631 39.0654C37.0095 37.3545 38.9123 35.1684 40.3394 32.602C40.5296 32.2218 40.7199 31.9367 40.9102 31.5565C42.0519 29.1802 42.7179 26.6139 42.7179 23.8575V23.1921C42.7179 22.5268 42.7179 21.9565 42.6227 21.2911L42.7179 21.3862C43.0033 21.6713 43.2887 21.8614 43.5741 22.1466C43.8595 21.6713 44.145 21.2911 44.4304 20.8159C44.6207 21.6713 44.7158 22.5268 44.8109 23.4773C44.9061 24.3327 44.9061 24.9981 44.9061 25.6634Z" fill="#ED1C24"/>
<path d="M25.1174 7.69901L20.9312 0C13.986 3.13663 9.229 10.0752 9.229 18.1545C9.229 22.2416 10.4658 26.0436 12.5589 29.1802C12.3686 28.1347 12.3686 27.0891 12.3686 25.9485C12.4638 17.6792 17.6965 10.6455 25.1174 7.69901Z" fill="#F7941D"/>
<path d="M28.4465 11.501C30.159 11.0258 32.0618 10.8357 33.8695 10.8357C35.0111 10.8357 36.248 10.9308 37.2945 11.1209L37.1994 7.69907L37.0091 0.855504C36.248 0.760455 35.3917 0.665405 34.5354 0.665405C30.7298 0.665405 27.2097 1.90105 24.3555 3.89709L26.6388 8.07927C22.5478 9.50501 19.2179 12.3565 17.1248 16.0634C16.0783 17.8694 15.3172 19.9605 15.0317 22.1466C15.6026 21.006 16.2686 19.9605 17.0297 19.01C19.7887 15.3981 23.7846 12.6416 28.4465 11.501Z" fill="#ED1C24"/>
<path d="M38.4367 7.604L38.627 12.4515C37.0096 11.9763 35.3922 11.6911 33.5846 11.6911C30.2547 11.6911 27.115 12.6416 24.356 14.2575C20.9309 16.3486 18.267 19.6753 16.9351 23.5723C18.267 21.7664 19.8844 20.1505 21.7872 18.9149C24.5463 17.109 27.8762 16.0634 31.3963 16.0634C34.0603 16.0634 36.5339 16.6337 38.8173 17.6793C40.5298 18.4396 42.052 19.4852 43.384 20.8159L46.0479 16.8238L49.4729 11.5961C46.4285 9.1248 42.6229 7.604 38.4367 7.604Z" fill="#F7941D"/>
<path d="M42.7178 23.3822V24.0475C42.7178 28.0396 41.1004 31.3664 40.9101 31.7466C40.7198 32.1268 40.5296 32.4119 40.3393 32.7921C38.9122 35.3584 37.0094 37.5446 34.6309 39.2555C31.3961 41.5367 27.4954 42.9624 23.2141 42.9624C18.5522 42.9624 14.1758 41.3466 10.8459 38.4951C6.46943 34.8832 3.61523 29.4654 3.61523 23.3822V21.101C3.61523 20.9109 3.61523 20.8159 3.71037 20.6258L3.99579 18.9149C3.99579 18.7248 4.09093 18.5347 4.09093 18.3446C4.09093 18.2495 4.18607 18.1545 4.18607 18.0594C4.28121 17.8693 4.28121 17.6792 4.37635 17.5842C4.47149 17.299 4.56663 17.0139 4.66177 16.8238C4.66177 16.7287 4.75691 16.6337 4.75691 16.5386C4.85205 16.3485 4.85205 16.1584 4.94719 16.0634C5.04233 15.9683 5.04233 15.7782 5.13747 15.6832C5.70831 14.2575 6.56457 12.9268 7.42083 11.6911C7.61111 11.406 7.89653 11.1208 8.08681 10.8357C8.18195 10.7406 8.27709 10.5505 8.46737 10.4555C8.56251 10.3604 8.56252 10.2654 8.65766 10.2654C8.7528 10.1703 8.75279 10.0753 8.84793 10.0753C9.13336 9.69507 9.51391 9.40992 9.89447 9.12478C10.1799 8.83963 10.4653 8.64953 10.7507 8.36438C10.7507 8.45943 10.6556 8.45943 10.6556 8.55448C10.6556 8.64953 10.5605 8.74458 10.5605 8.74458C9.41878 11.0258 8.65765 13.7822 8.37223 16.6337C8.27709 17.3941 8.27709 18.1545 8.27709 19.0099C8.27709 29.2753 14.2709 37.5446 21.6918 37.5446H22.453C23.4995 37.5446 24.546 37.3545 25.5926 37.1644C30.635 35.8337 34.3455 31.1763 34.3455 25.7584V25.4733C34.2503 22.2416 32.9184 19.2951 30.7301 17.299C32.2524 17.299 33.7746 17.5842 35.2017 17.9644C37.9608 18.6297 40.4344 19.9604 42.6226 21.6713L42.7178 21.7664C42.6226 22.1466 42.7178 22.8119 42.7178 23.3822Z" fill="#F7941D"/>
<path d="M42.718 23.3823V24.0476C42.718 28.2298 40.8152 31.8417 40.8152 31.8417C40.6249 32.2219 40.4346 32.507 40.2443 32.8872C38.8172 35.4536 36.8193 37.6397 34.4408 39.3506C31.1109 41.8219 27.115 43.0575 22.9288 43.0575C18.3621 43.0575 13.9857 41.4417 10.4655 38.5902C5.89878 34.8833 3.23486 29.2753 3.23486 23.3823C3.23486 17.4892 5.89878 11.8813 10.4655 8.17435L10.6558 7.98425C10.6558 8.0793 10.5606 8.0793 10.5606 8.17435C10.5606 8.2694 10.4655 8.2694 10.4655 8.36445C5.99392 12.0714 3.42514 17.4892 3.42514 23.3823C3.42514 29.2753 5.99392 34.6932 10.5606 38.4951C13.9857 41.3466 18.4573 42.8674 22.9288 42.8674C27.0199 42.8674 31.0157 41.6318 34.3456 39.1605C36.7241 37.4496 38.6269 35.2635 40.054 32.6971C40.2443 32.3169 40.4346 32.0318 40.5297 31.6516C40.5297 31.6516 42.4325 28.1347 42.4325 23.9526V23.2872C42.4325 22.6219 42.4325 22.0516 42.3374 21.3862V21.2912L42.4325 21.3862L42.5277 21.4813C42.718 22.2417 42.718 22.812 42.718 23.3823Z" fill="#F7941D"/>
</svg>
