<svg width="24" height="24" viewBox="0 0 24 24" fill="none" xmlns="http://www.w3.org/2000/svg">
<g clip-path="url(#clip0_5599_4884)">
<path d="M15.9417 2.81051C14.4734 -0.452986 9.83378 -0.43883 8.37872 2.82204C5.75292 2.14207 3.19531 4.12714 3.19531 6.83273C3.19531 9.10646 5.02734 10.9517 7.29567 10.9744V15.1182C7.29567 15.5384 7.63636 15.8791 8.05655 15.8791H16.1729C16.5932 15.8791 16.9338 15.5384 16.9338 15.1182V10.9755C19.2203 10.9755 21.0766 9.12235 21.0766 6.83278C21.0766 4.15358 18.5635 2.16588 15.9417 2.81051Z" fill="#FD9C02"/>
<path d="M8.4247 15.3065V11.7064C8.4247 11.3928 8.25595 11.1761 7.86262 11.119L7.86112 11.1189L7.86126 11.1188C7.67015 11.0908 7.48123 11.0495 7.2959 10.9951V15.1184C7.2959 15.5387 7.63659 15.8794 8.05677 15.8794H8.68574C8.52613 15.7398 8.4247 15.5352 8.4247 15.3065Z" fill="#FDB035"/>
<path d="M6.88379 19.9404C6.97023 20.0167 6.53185 19.7556 13.1085 23.5526C13.4876 23.7715 13.9725 23.6416 14.1913 23.2625C14.4101 22.8835 14.2801 22.3986 13.9011 22.1798C7.3913 18.4213 7.77184 18.6322 7.66051 18.5952L6.88379 19.9404Z" fill="#FD9C02"/>
<path d="M13.5205 22.8706C6.95884 19.0823 7.38371 19.3361 7.29577 19.2584L7.67537 18.601C7.6704 18.5992 7.66548 18.5968 7.66051 18.5952L6.88379 19.9405C6.97023 20.0168 6.53185 19.7556 13.1085 23.5527C13.6315 23.8546 14.2879 23.4826 14.2971 22.8787C14.0624 23.0069 13.769 23.0142 13.5205 22.8706Z" fill="#FEC467"/>
<path d="M7.2959 13.9561V15.1185C7.2959 15.5388 7.63659 15.8794 8.05677 15.8794H16.1731C16.5934 15.8794 16.934 15.5388 16.934 15.1185V13.9561H7.2959Z" fill="#FEC467"/>
<path d="M8.4247 15.3067V13.9561H7.2959V15.1185C7.2959 15.5388 7.63659 15.8794 8.05677 15.8794H8.68574C8.52613 15.74 8.4247 15.5354 8.4247 15.3067Z" fill="#FD9C02"/>
<path d="M8.3787 2.82201C5.75291 2.14204 3.19531 4.12711 3.19531 6.83269C3.19531 9.08231 4.9887 10.912 7.22352 10.9728C5.54309 10.4449 4.32411 8.87559 4.32411 7.02084C4.32411 5.31764 5.35203 3.85472 6.82133 3.21806H6.82105C6.82105 3.21806 7.9677 2.68917 9.07592 2.84072L9.07583 2.84058C9.36364 2.92242 9.62487 2.73558 9.79869 2.47162C10.562 1.27472 11.9017 0.516325 13.4054 0.555232C11.391 -0.0777683 9.23412 0.904966 8.3787 2.82201Z" fill="#FEC467"/>
<path d="M6.90053 11.3145V15.1024C6.90053 15.7164 7.40003 16.2159 8.01401 16.2159H13.283C13.3293 16.2159 13.3752 16.2068 13.418 16.189C13.4608 16.1713 13.4997 16.1453 13.5324 16.1126C13.5652 16.0798 13.5911 16.041 13.6089 15.9982C13.6266 15.9554 13.6357 15.9095 13.6357 15.8632C13.6357 15.8169 13.6266 15.771 13.6089 15.7282C13.5911 15.6854 13.5652 15.6465 13.5324 15.6138C13.4997 15.581 13.4608 15.5551 13.418 15.5373C13.3752 15.5196 13.3293 15.5105 13.283 15.5105H8.01396C7.81713 15.5105 7.65232 15.3703 7.61421 15.1845C7.60291 15.1295 7.60586 15.1744 7.60586 14.2927H16.5371V15.1024C16.5371 15.3274 16.354 15.5105 16.129 15.5105H12.9523C12.9059 15.5105 12.8601 15.5196 12.8173 15.5373C12.7745 15.5551 12.7356 15.581 12.7028 15.6138C12.6701 15.6465 12.6441 15.6854 12.6264 15.7282C12.6087 15.771 12.5996 15.8169 12.5996 15.8632C12.5996 15.9095 12.6087 15.9554 12.6264 15.9982C12.6441 16.041 12.6701 16.0798 12.7028 16.1126C12.7356 16.1453 12.7745 16.1713 12.8173 16.189C12.8601 16.2068 12.9059 16.2159 12.9523 16.2159H16.129C16.743 16.2159 17.2425 15.7164 17.2425 15.1024V11.3183C19.623 11.1327 21.4186 9.09497 21.3844 6.82804C21.3845 6.82481 21.3845 6.82153 21.3845 6.81825C21.3845 4.03161 18.8572 1.89818 16.0936 2.39468C14.3941 -0.816271 9.81711 -0.782942 8.1408 2.40316C5.36804 1.87512 2.80078 4.00503 2.80078 6.81829L2.80088 6.82809L2.80078 6.83742C2.80083 9.18263 4.60646 11.1137 6.90053 11.3145ZM7.97749 4.84639C8.07103 4.84639 8.16074 4.80924 8.22688 4.74309C8.29302 4.67695 8.33018 4.58724 8.33018 4.4937C8.33018 1.63736 11.3509 -0.140471 13.8348 1.11644C15.0812 1.7509 15.909 3.04006 15.909 4.4937C15.909 4.58724 15.9462 4.67695 16.0123 4.74309C16.0784 4.80924 16.1682 4.84639 16.2617 4.84639C16.3552 4.84639 16.4449 4.80924 16.5111 4.74309C16.5772 4.67695 16.6144 4.58724 16.6144 4.4937C16.6148 4.00756 16.536 3.52459 16.3811 3.06378C16.5138 3.04582 16.7018 3.0432 16.8354 3.03926C16.8698 3.05046 16.7972 3.03926 16.8354 3.03926C18.9216 3.03926 20.6737 4.74271 20.679 6.82781C20.6738 8.91291 18.9215 10.6164 16.8352 10.6164C16.8696 10.6051 16.7969 10.6164 16.8352 10.6164C16.3124 10.6018 15.7544 10.4913 15.2827 10.27C15.1982 10.2321 15.1022 10.2288 15.0154 10.261C14.9286 10.2931 14.8579 10.3581 14.8186 10.4419C14.7793 10.5258 14.7745 10.6217 14.8053 10.709C14.8361 10.7963 14.8999 10.868 14.9831 10.9087C15.4719 11.1385 15.9985 11.2774 16.5371 11.3184V13.5873H14.7595V12.4818C14.7595 12.4355 14.7504 12.3896 14.7327 12.3468C14.7149 12.304 14.689 12.2651 14.6562 12.2324C14.6234 12.1996 14.5846 12.1737 14.5418 12.1559C14.499 12.1382 14.4531 12.1291 14.4068 12.1291C14.3605 12.1291 14.3146 12.1382 14.2718 12.1559C14.229 12.1737 14.1901 12.1996 14.1574 12.2324C14.1246 12.2651 14.0987 12.304 14.0809 12.3468C14.0632 12.3896 14.0541 12.4355 14.0541 12.4818V13.5873H12.3503V12.4818C12.3503 12.3883 12.3131 12.2986 12.247 12.2324C12.1808 12.1663 12.0911 12.1291 11.9976 12.1291C11.9041 12.1291 11.8144 12.1663 11.7482 12.2324C11.6821 12.2986 11.6449 12.3883 11.6449 12.4818V13.5873H9.94119V12.4818C9.94119 12.3883 9.90403 12.2986 9.83789 12.2324C9.77174 12.1663 9.68204 12.1291 9.5885 12.1291C9.49496 12.1291 9.40525 12.1663 9.33911 12.2324C9.27297 12.2986 9.23581 12.3883 9.23581 12.4818V13.5873H7.60596V11.3212C8.15916 11.2845 8.70061 11.1446 9.20234 10.9087C9.28552 10.868 9.3494 10.7963 9.38018 10.709C9.41096 10.6217 9.40617 10.5258 9.36686 10.4419C9.32755 10.3581 9.25685 10.2931 9.17004 10.261C9.08322 10.2288 8.98724 10.2321 8.90281 10.27C8.41985 10.4965 7.84835 10.6064 7.3121 10.6162C7.35082 10.6165 7.27736 10.6043 7.3121 10.6162C5.24724 10.5954 3.51169 8.89158 3.50649 6.82781C3.51169 4.74271 5.26379 3.03931 7.35007 3.03931C7.38813 3.03931 7.31575 3.05046 7.35007 3.03931C7.50152 3.04357 7.70665 3.0485 7.8559 3.07057C7.70251 3.52934 7.62448 4.00993 7.62485 4.49366C7.62484 4.53997 7.63395 4.58584 7.65166 4.62864C7.66938 4.67143 7.69535 4.71032 7.7281 4.74307C7.76085 4.77583 7.79973 4.80181 7.84252 4.81954C7.88531 4.83727 7.93117 4.84639 7.97749 4.84639Z" fill="#0E1941"/>
<path d="M21.3666 16.914C20.3262 15.112 16.6732 16.2798 16.5659 18.3633L12.2741 20.8411L8.10776 18.4358L8.15337 18.3568C8.46031 17.8251 8.2774 17.1428 7.74574 16.8358L4.93642 15.2138C4.89631 15.1906 4.85203 15.1756 4.80611 15.1695C4.76019 15.1635 4.71352 15.1665 4.66878 15.1785C4.62404 15.1905 4.5821 15.2112 4.54536 15.2394C4.50861 15.2676 4.47777 15.3027 4.45461 15.3428C4.43145 15.3829 4.41642 15.4272 4.41037 15.4731C4.40432 15.5191 4.40738 15.5657 4.41936 15.6105C4.43135 15.6552 4.45203 15.6972 4.48022 15.7339C4.50842 15.7706 4.54357 15.8015 4.58368 15.8246L7.39305 17.4467C7.58791 17.5592 7.65495 17.8093 7.54245 18.0041L7.10065 18.7693L3.92368 16.9352C3.84267 16.8884 3.7464 16.8757 3.65605 16.8999C3.5657 16.9241 3.48867 16.9833 3.4419 17.0643C3.39513 17.1453 3.38245 17.2415 3.40666 17.3319C3.43087 17.4222 3.48998 17.4993 3.57099 17.546L6.74791 19.3802L6.30616 20.1453C6.19356 20.3401 5.94344 20.4072 5.74858 20.2947L2.93921 18.6728C2.8991 18.6496 2.85482 18.6346 2.8089 18.6285C2.76298 18.6225 2.71631 18.6255 2.67158 18.6375C2.62684 18.6495 2.5849 18.6702 2.54815 18.6984C2.51141 18.7266 2.48058 18.7618 2.45742 18.8019C2.43426 18.842 2.41922 18.8863 2.41318 18.9322C2.40713 18.9781 2.41018 19.0248 2.42217 19.0695C2.43416 19.1142 2.45484 19.1562 2.48304 19.1929C2.51124 19.2297 2.5464 19.2605 2.58652 19.2837C5.62881 21.0401 5.55508 21.0546 5.95075 21.0546C6.33583 21.0546 6.71093 20.8548 6.91699 20.4981L6.96251 20.4192L10.1172 22.2405C9.63683 23.009 10.1938 23.9942 11.0874 23.9942C11.463 23.9942 11.6282 23.8586 12.274 23.4858L12.8887 23.8407C13.9148 24.4332 15.0573 23.254 14.4354 22.2462L15.7059 21.5388C15.7464 21.5162 15.7821 21.486 15.8108 21.4497C15.8396 21.4134 15.8609 21.3717 15.8736 21.3272C15.8863 21.2827 15.8901 21.236 15.8847 21.19C15.8794 21.144 15.865 21.0995 15.8425 21.0591C15.82 21.0186 15.7897 20.9829 15.7534 20.9542C15.7171 20.9254 15.6755 20.9041 15.6309 20.8914C15.5864 20.8787 15.5398 20.8749 15.4938 20.8803C15.4477 20.8856 15.4032 20.9 15.3628 20.9225L13.8621 21.7581L12.9794 21.2484L17.0957 18.8719C17.1526 18.839 17.1993 18.7909 17.2303 18.7329C17.2613 18.6749 17.2755 18.6094 17.2713 18.5438C17.1743 17.0386 20.0639 16.0684 20.7556 17.2667C21.4487 18.4671 19.1599 20.4804 17.9074 19.6457C17.8527 19.6093 17.7889 19.5888 17.7232 19.5867C17.6575 19.5845 17.5925 19.6008 17.5355 19.6337L15.1411 21.046C15.0601 21.0928 15.0009 21.1698 14.9767 21.2602C14.9525 21.3505 14.9652 21.4468 15.012 21.5278C15.0587 21.6088 15.1358 21.6679 15.2261 21.6922C15.3165 21.7164 15.4127 21.7037 15.4938 21.6569L17.7109 20.3469C19.5719 21.297 22.4057 18.7133 21.3666 16.914ZM11.3067 23.2299C10.901 23.4643 10.4556 22.978 10.7288 22.5937L11.5687 23.0786L11.3067 23.2299ZM13.4608 23.289C13.3094 23.289 13.3146 23.2721 12.451 22.7735C12.451 22.7735 10.8779 21.8654 10.8656 21.8581L7.31529 19.8084L7.75512 19.0467C14.2346 22.7876 13.8207 22.4904 13.8862 22.7353C13.961 23.014 13.7508 23.289 13.4608 23.289Z" fill="#0E1941"/>
</g>
<defs>
<clipPath id="clip0_5599_4884">
<rect width="24" height="24" fill="white"/>
</clipPath>
</defs>
</svg>
