<svg width="104" height="50" viewBox="0 0 104 50" fill="none" xmlns="http://www.w3.org/2000/svg">
<rect x="1.18567" y="0.393192" width="101.444" height="49.2136" rx="5.89789" fill="white" stroke="#A3A3A3" stroke-width="0.786385"/>
<g clip-path="url(#clip0_226_2887)">
<path d="M35.4933 15.0183H24.6089C24.141 15.0183 23.6797 15.1277 23.2622 15.3376C22.8447 15.5475 22.4828 15.852 22.2057 16.2266L20.4651 18.5792C20.3029 18.7984 20.0704 18.9561 19.8059 19.0264C19.5414 19.0966 19.2606 19.0752 19.01 18.9657C18.3614 18.6822 18.0983 17.9062 18.442 17.2906L19.1877 15.9549C20.4684 13.6609 22.901 12.2378 25.5415 12.2378H35.4257L35.4933 15.0183Z" fill="#FFD0C7"/>
<path d="M18.5771 25.0068H31.4707V35.6875H18.5771V25.0068Z" fill="#FFDA8F"/>
<path d="M27.0316 28.0739L25.0558 27.2013L23.0159 28.0739V25.0068H27.0316V28.0739ZM13.1104 31.1855H16.4882V37.7627H13.1104V31.1855Z" fill="white"/>
<path d="M13.1104 31.1853H16.4882V37.7625H13.1104V31.1853Z" fill="white"/>
<path d="M13.1104 31.1853H16.4882V37.7625H13.1104V31.1853Z" fill="white"/>
<path d="M16.5704 33.213C17.108 31.6691 18.5843 30.5604 20.3211 30.5604C21.8064 30.5604 23.1011 31.3712 23.7812 32.5715V32.5715H26.5296C27.1995 32.5715 27.7426 33.1111 27.7426 33.7766C27.7426 34.4421 27.1995 34.9817 26.5296 34.9817H23.2739H25.4144L24.8986 34.9819H27.3051C27.773 34.9819 28.2343 34.8726 28.6518 34.6627C29.0693 34.4528 29.4313 34.1483 29.7084 33.7737L31.4489 31.4211C31.6111 31.2019 31.8436 31.0441 32.1081 30.9739C32.3727 30.9036 32.6534 30.9251 32.904 31.0346C33.5526 31.3181 33.8157 32.094 33.472 32.7097L32.7263 34.0454C31.4455 36.3394 29.0129 37.7625 26.3725 37.7625H16.4883L16.5704 33.213Z" fill="#F3C9A6"/>
<path d="M13.1104 31.1853H16.4882V37.7625H13.1104V31.1853Z" fill="#66E0F7"/>
<path d="M13.1104 31.1853H16.4882V37.7625H13.1104V31.1853Z" fill="#66E0F7"/>
<path d="M13.1104 31.1853H16.4882V37.7625H13.1104V31.1853Z" fill="#66E0F7"/>
<path d="M13.1104 31.1853H16.4882V37.7625H13.1104V31.1853Z" fill="#66E0F7"/>
<path d="M15.9307 14.9714H31.6049V22.9251H15.9307V14.9714Z" fill="white"/>
<path d="M18.5437 14.9714H28.9918C28.9918 16.4052 30.1617 17.5675 31.6049 17.5675V20.329C30.1617 20.329 28.9918 21.4913 28.9918 22.925H18.5437C18.5437 21.4913 17.3738 20.329 15.9307 20.329V17.5675C17.3738 17.5675 18.5437 16.4052 18.5437 14.9714Z" fill="#A0E5A5"/>
<path d="M36.2074 14.8921C36.1274 16.5238 35.0237 17.9995 33.3566 18.4837C31.931 18.8977 30.4593 18.4805 29.4675 17.518V17.5179L26.8296 18.2841C26.1866 18.4709 25.5129 18.1044 25.3249 17.4656C25.1369 16.8268 25.5058 16.1575 26.1488 15.9708L30.7416 14.6368L32.6966 13.4519L36.2074 14.8921Z" fill="#FFD0C7"/>
<path d="M38.8031 18.815H35.4253V12.2378H38.8031V18.815Z" fill="white"/>
<path d="M38.8031 18.815H35.4253V12.2378H38.8031V18.815Z" fill="white"/>
<path d="M38.8031 18.815H35.4253V12.2378H38.8031V18.815Z" fill="white"/>
<path d="M38.8031 18.815H35.4253V12.2378H38.8031V18.815Z" fill="#66E0F7"/>
<path d="M38.8031 18.815H35.4253V12.2378H38.8031V18.815Z" fill="#66E0F7"/>
<path d="M38.8031 18.815H35.4253V12.2378H38.8031V18.815Z" fill="#66E0F7"/>
<path d="M38.8031 18.815H35.4253V12.2378H38.8031V18.815Z" fill="#66E0F7"/>
<path d="M23.7678 20.5745C24.6718 20.5745 25.4047 19.8464 25.4047 18.9482C25.4047 18.0501 24.6718 17.322 23.7678 17.322C22.8637 17.322 22.1309 18.0501 22.1309 18.9482C22.1309 19.8464 22.8637 20.5745 23.7678 20.5745Z" fill="white"/>
<path d="M33.1144 30.5598C32.7484 30.3998 32.3554 30.3735 31.993 30.465V25.0067C31.993 24.7202 31.7592 24.4879 31.4708 24.4879H18.5772C18.2888 24.4879 18.055 24.7202 18.055 25.0067V30.637C17.6704 30.8517 17.3177 31.1184 17.0106 31.4289V31.1854C17.0106 30.8989 16.7768 30.6666 16.4884 30.6666H13.1106C12.8222 30.6666 12.5884 30.8989 12.5884 31.1854V37.7626C12.5884 38.0491 12.8222 38.2814 13.1106 38.2814H26.3726C29.2014 38.2814 31.811 36.7547 33.183 34.2972L33.9288 32.9615C34.045 32.7528 34.1162 32.5225 34.138 32.285C34.1597 32.0475 34.1315 31.8082 34.0551 31.5821C33.9783 31.3562 33.855 31.1487 33.693 30.9727C33.5311 30.7967 33.334 30.6561 33.1144 30.5598ZM26.5096 25.5255V27.2754L25.2681 26.727C25.2023 26.698 25.1311 26.6827 25.059 26.6823C24.987 26.6819 24.9156 26.6963 24.8494 26.7246L23.5384 27.2855V25.5255H26.5096ZM19.0994 25.5255H22.4939V28.0738C22.4939 28.2483 22.5823 28.4112 22.729 28.5072C22.8013 28.5545 22.8842 28.5832 22.9704 28.5907C23.0566 28.5982 23.1433 28.5843 23.2227 28.5503L25.0526 27.7674L26.8197 28.5479C26.8992 28.583 26.9863 28.5979 27.073 28.591C27.1598 28.5842 27.2434 28.556 27.3164 28.5089C27.3894 28.4618 27.4493 28.3973 27.4908 28.3213C27.5323 28.2453 27.5541 28.1603 27.554 28.0738V25.5255H30.9486V31.2216L29.2876 33.4665C29.0054 33.848 28.6186 34.1348 28.1826 34.3007C28.2372 34.1313 28.2649 33.9545 28.2648 33.7766C28.2648 32.8262 27.4864 32.0528 26.5296 32.0528L24.0742 32.0527C23.2474 30.8048 21.8366 30.0416 20.3212 30.0416C19.9082 30.042 19.4972 30.098 19.0994 30.208L19.0994 25.5255ZM13.6328 31.7042H15.9662V37.2438H13.6328V31.7042ZM33.0154 32.4582L32.2697 33.7939C31.0816 35.9219 28.822 37.2438 26.3726 37.2438H17.0106V33.3056C17.5074 31.9909 18.856 31.0793 20.3212 31.0793C21.5643 31.0793 22.7157 31.7486 23.3262 32.8261C23.3717 32.9063 23.4378 32.973 23.5177 33.0195C23.5977 33.0659 23.6887 33.0904 23.7813 33.0904H26.5296C26.9105 33.0904 27.2204 33.3983 27.2204 33.7767C27.2204 34.1551 26.9105 34.463 26.5296 34.463H23.2739C22.9855 34.463 22.7517 34.6953 22.7517 34.9818C22.7517 35.2683 22.9855 35.5006 23.2739 35.5006L27.3051 35.5009C28.4157 35.5009 29.4713 34.9701 30.1291 34.0811L31.8697 31.7284C32.0602 31.4708 32.3989 31.3807 32.6937 31.5096C32.8713 31.5873 33.0033 31.7307 33.0652 31.9134C33.1273 32.096 33.1096 32.2896 33.0154 32.4582ZM38.8033 11.7189H25.5412C23.235 11.7189 21.0838 12.7122 19.6009 14.4525H15.9305C15.6421 14.4525 15.4083 14.6848 15.4083 14.9713V22.9249C15.4083 23.2114 15.6421 23.4437 15.9305 23.4437H21.257C21.5455 23.4437 21.7793 23.2114 21.7793 22.9249C21.7793 22.6384 21.5455 22.4061 21.257 22.4061H19.0465C18.8302 21.0907 17.7791 20.0506 16.4527 19.8425V18.0537C17.7791 17.8457 18.8302 16.8056 19.0465 15.4901H25.9485C25.5279 15.6269 25.1808 15.9123 24.9672 16.2997C24.8409 16.5279 24.7686 16.7817 24.7556 17.0418C24.4503 16.8847 24.1115 16.8029 23.7677 16.8031C22.5771 16.8031 21.6085 17.7654 21.6085 18.9481C21.6085 20.1309 22.5771 21.0932 23.7677 21.0932C24.9583 21.0932 25.9268 20.1309 25.9268 18.9481C25.9268 18.8827 25.9233 18.818 25.9175 18.754C26.2587 18.8735 26.629 18.8833 26.9761 18.7823L29.333 18.0978C29.841 18.5263 30.4387 18.8373 31.0826 19.0082V19.8425C29.7563 20.0505 28.7052 21.0906 28.4889 22.4061H25.9569C25.6685 22.4061 25.4347 22.6384 25.4347 22.9249C25.4347 23.2114 25.6685 23.4437 25.9569 23.4437H31.6048C31.8931 23.4437 32.127 23.2114 32.127 22.9249V19.1578C32.1668 19.1589 32.2066 19.1604 32.2465 19.1604C32.6717 19.1604 33.0949 19.1003 33.503 18.9817C34.0132 18.8336 34.4848 18.6015 34.9032 18.2958V18.8148C34.9032 19.1013 35.137 19.3336 35.4254 19.3336H38.8033C39.0916 19.3336 39.3255 19.1013 39.3255 18.8148V12.2377C39.3255 11.9512 39.0916 11.7189 38.8033 11.7189ZM29.5542 22.4061C29.7413 21.664 30.3333 21.0802 31.0826 20.9001V22.4061H29.5542ZM17.9811 22.4061H16.4527V20.9001C17.2019 21.0802 17.794 21.664 17.9811 22.4061ZM16.4527 16.9961V15.4901H17.9811C17.794 16.2322 17.2019 16.816 16.4527 16.9961ZM23.7677 20.0555C23.153 20.0555 22.653 19.5588 22.653 18.9481C22.653 18.3374 23.153 17.8407 23.7677 17.8407C24.3823 17.8407 24.8824 18.3374 24.8824 18.9481C24.8824 19.5588 24.3823 20.0555 23.7677 20.0555ZM33.21 17.9859C32.017 18.3324 30.7227 18.011 29.8324 17.147C29.7662 17.0827 29.6839 17.0371 29.594 17.0148C29.5041 16.9925 29.4099 16.9944 29.321 17.0202L26.6831 17.7864C26.3171 17.8927 25.933 17.6835 25.8262 17.3202C25.7744 17.1443 25.7947 16.9589 25.8833 16.7981C25.9719 16.6373 26.1182 16.5205 26.2954 16.469L30.8882 15.1351C31.1651 15.0546 31.3239 14.7665 31.2429 14.4915C31.162 14.2165 30.8718 14.0589 30.5952 14.1391L29.5126 14.4536C29.5063 14.4534 29.5 14.4526 29.4935 14.4526H21.0542C22.2792 13.364 23.8628 12.7565 25.5412 12.7565H34.9032V16.8758C34.4634 17.4081 33.8802 17.7913 33.21 17.9859ZM38.281 18.296H35.9477V12.7565H38.281V18.296Z" fill="black"/>
<path d="M23.6072 23.4399C23.8956 23.4399 24.1294 23.2077 24.1294 22.9211C24.1294 22.6346 23.8956 22.4023 23.6072 22.4023C23.3188 22.4023 23.085 22.6346 23.085 22.9211C23.085 23.2077 23.3188 23.4399 23.6072 23.4399Z" fill="black"/>
</g>
<path d="M44.444 18.8121C44.444 17.9961 44.632 17.2641 45.008 16.6161C45.392 15.9681 45.908 15.4641 46.556 15.1041C47.212 14.7361 47.928 14.5521 48.704 14.5521C49.592 14.5521 50.38 14.7721 51.068 15.2121C51.764 15.6441 52.268 16.2601 52.58 17.0601H50.936C50.72 16.6201 50.42 16.2921 50.036 16.0761C49.652 15.8601 49.208 15.7521 48.704 15.7521C48.152 15.7521 47.66 15.8761 47.228 16.1241C46.796 16.3721 46.456 16.7281 46.208 17.1921C45.968 17.6561 45.848 18.1961 45.848 18.8121C45.848 19.4281 45.968 19.9681 46.208 20.4321C46.456 20.8961 46.796 21.2561 47.228 21.5121C47.66 21.7601 48.152 21.8841 48.704 21.8841C49.208 21.8841 49.652 21.7761 50.036 21.5601C50.42 21.3441 50.72 21.0161 50.936 20.5761H52.58C52.268 21.3761 51.764 21.9921 51.068 22.4241C50.38 22.8561 49.592 23.0721 48.704 23.0721C47.92 23.0721 47.204 22.8921 46.556 22.5321C45.908 22.1641 45.392 21.6561 45.008 21.0081C44.632 20.3601 44.444 19.6281 44.444 18.8121ZM53.7253 19.6641C53.7253 19.0001 53.8613 18.4121 54.1333 17.9001C54.4133 17.3881 54.7893 16.9921 55.2613 16.7121C55.7413 16.4241 56.2693 16.2801 56.8453 16.2801C57.3653 16.2801 57.8173 16.3841 58.2013 16.5921C58.5933 16.7921 58.9053 17.0441 59.1373 17.3481V16.3881H60.5173V23.0001H59.1373V22.0161C58.9053 22.3281 58.5893 22.5881 58.1893 22.7961C57.7893 23.0041 57.3333 23.1081 56.8213 23.1081C56.2533 23.1081 55.7333 22.9641 55.2613 22.6761C54.7893 22.3801 54.4133 21.9721 54.1333 21.4521C53.8613 20.9241 53.7253 20.3281 53.7253 19.6641ZM59.1373 19.6881C59.1373 19.2321 59.0413 18.8361 58.8493 18.5001C58.6653 18.1641 58.4213 17.9081 58.1173 17.7321C57.8133 17.5561 57.4853 17.4681 57.1333 17.4681C56.7813 17.4681 56.4533 17.5561 56.1493 17.7321C55.8453 17.9001 55.5973 18.1521 55.4053 18.4881C55.2213 18.8161 55.1293 19.2081 55.1293 19.6641C55.1293 20.1201 55.2213 20.5201 55.4053 20.8641C55.5973 21.2081 55.8453 21.4721 56.1493 21.6561C56.4613 21.8321 56.7893 21.9201 57.1333 21.9201C57.4853 21.9201 57.8133 21.8321 58.1173 21.6561C58.4213 21.4801 58.6653 21.2241 58.8493 20.8881C59.0413 20.5441 59.1373 20.1441 59.1373 19.6881ZM64.7141 23.1081C64.1941 23.1081 63.7261 23.0161 63.3101 22.8321C62.9021 22.6401 62.5781 22.3841 62.3381 22.0641C62.0981 21.7361 61.9701 21.3721 61.9541 20.9721H63.3701C63.3941 21.2521 63.5261 21.4881 63.7661 21.6801C64.0141 21.8641 64.3221 21.9561 64.6901 21.9561C65.0741 21.9561 65.3701 21.8841 65.5781 21.7401C65.7941 21.5881 65.9021 21.3961 65.9021 21.1641C65.9021 20.9161 65.7821 20.7321 65.5421 20.6121C65.3101 20.4921 64.9381 20.3601 64.4261 20.2161C63.9301 20.0801 63.5261 19.9481 63.2141 19.8201C62.9021 19.6921 62.6301 19.4961 62.3981 19.2321C62.1741 18.9681 62.0621 18.6201 62.0621 18.1881C62.0621 17.8361 62.1661 17.5161 62.3741 17.2281C62.5821 16.9321 62.8781 16.7001 63.2621 16.5321C63.6541 16.3641 64.1021 16.2801 64.6061 16.2801C65.3581 16.2801 65.9621 16.4721 66.4181 16.8561C66.8821 17.2321 67.1301 17.7481 67.1621 18.4041H65.7941C65.7701 18.1081 65.6501 17.8721 65.4341 17.6961C65.2181 17.5201 64.9261 17.4321 64.5581 17.4321C64.1981 17.4321 63.9221 17.5001 63.7301 17.6361C63.5381 17.7721 63.4421 17.9521 63.4421 18.1761C63.4421 18.3521 63.5061 18.5001 63.6341 18.6201C63.7621 18.7401 63.9181 18.8361 64.1021 18.9081C64.2861 18.9721 64.5581 19.0561 64.9181 19.1601C65.3981 19.2881 65.7901 19.4201 66.0941 19.5561C66.4061 19.6841 66.6741 19.8761 66.8981 20.1321C67.1221 20.3881 67.2381 20.7281 67.2461 21.1521C67.2461 21.5281 67.1421 21.8641 66.9341 22.1601C66.7261 22.4561 66.4301 22.6881 66.0461 22.8561C65.6701 23.0241 65.2261 23.1081 64.7141 23.1081ZM72.1442 16.2801C72.6482 16.2801 73.0962 16.3881 73.4882 16.6041C73.8882 16.8201 74.2002 17.1401 74.4242 17.5641C74.6562 17.9881 74.7722 18.5001 74.7722 19.1001V23.0001H73.4162V19.3041C73.4162 18.7121 73.2682 18.2601 72.9722 17.9481C72.6762 17.6281 72.2722 17.4681 71.7602 17.4681C71.2482 17.4681 70.8402 17.6281 70.5362 17.9481C70.2402 18.2601 70.0922 18.7121 70.0922 19.3041V23.0001H68.7242V14.1201H70.0922V17.1561C70.3242 16.8761 70.6162 16.6601 70.9682 16.5081C71.3282 16.3561 71.7202 16.2801 72.1442 16.2801ZM83.4384 23.0841C82.6624 23.0841 81.9464 22.9041 81.2904 22.5441C80.6424 22.1761 80.1264 21.6681 79.7424 21.0201C79.3664 20.3641 79.1784 19.6281 79.1784 18.8121C79.1784 17.9961 79.3664 17.2641 79.7424 16.6161C80.1264 15.9681 80.6424 15.4641 81.2904 15.1041C81.9464 14.7361 82.6624 14.5521 83.4384 14.5521C84.2224 14.5521 84.9384 14.7361 85.5864 15.1041C86.2424 15.4641 86.7584 15.9681 87.1344 16.6161C87.5104 17.2641 87.6984 17.9961 87.6984 18.8121C87.6984 19.6281 87.5104 20.3641 87.1344 21.0201C86.7584 21.6681 86.2424 22.1761 85.5864 22.5441C84.9384 22.9041 84.2224 23.0841 83.4384 23.0841ZM83.4384 21.8961C83.9904 21.8961 84.4824 21.7721 84.9144 21.5241C85.3464 21.2681 85.6824 20.9081 85.9224 20.4441C86.1704 19.9721 86.2944 19.4281 86.2944 18.8121C86.2944 18.1961 86.1704 17.6561 85.9224 17.1921C85.6824 16.7281 85.3464 16.3721 84.9144 16.1241C84.4824 15.8761 83.9904 15.7521 83.4384 15.7521C82.8864 15.7521 82.3944 15.8761 81.9624 16.1241C81.5304 16.3721 81.1904 16.7281 80.9424 17.1921C80.7024 17.6561 80.5824 18.1961 80.5824 18.8121C80.5824 19.4281 80.7024 19.9721 80.9424 20.4441C81.1904 20.9081 81.5304 21.2681 81.9624 21.5241C82.3944 21.7721 82.8864 21.8961 83.4384 21.8961ZM92.3805 16.2801C92.9005 16.2801 93.3645 16.3881 93.7725 16.6041C94.1885 16.8201 94.5125 17.1401 94.7445 17.5641C94.9765 17.9881 95.0925 18.5001 95.0925 19.1001V23.0001H93.7365V19.3041C93.7365 18.7121 93.5885 18.2601 93.2925 17.9481C92.9965 17.6281 92.5925 17.4681 92.0805 17.4681C91.5685 17.4681 91.1605 17.6281 90.8565 17.9481C90.5605 18.2601 90.4125 18.7121 90.4125 19.3041V23.0001H89.0445V16.3881H90.4125V17.1441C90.6365 16.8721 90.9205 16.6601 91.2645 16.5081C91.6165 16.3561 91.9885 16.2801 92.3805 16.2801ZM47.624 28.6601C48.512 28.6601 49.288 28.8321 49.952 29.1761C50.624 29.5121 51.14 30.0001 51.5 30.6401C51.868 31.2721 52.052 32.0121 52.052 32.8601C52.052 33.7081 51.868 34.4441 51.5 35.0681C51.14 35.6921 50.624 36.1721 49.952 36.5081C49.288 36.8361 48.512 37.0001 47.624 37.0001H44.9V28.6601H47.624ZM47.624 35.8841C48.6 35.8841 49.348 35.6201 49.868 35.0921C50.388 34.5641 50.648 33.8201 50.648 32.8601C50.648 31.8921 50.388 31.1361 49.868 30.5921C49.348 30.0481 48.6 29.7761 47.624 29.7761H46.268V35.8841H47.624ZM59.4678 33.5321C59.4678 33.7801 59.4518 34.0041 59.4198 34.2041H54.3678C54.4078 34.7321 54.6038 35.1561 54.9558 35.4761C55.3078 35.7961 55.7398 35.9561 56.2518 35.9561C56.9878 35.9561 57.5078 35.6481 57.8118 35.0321H59.2878C59.0878 35.6401 58.7238 36.1401 58.1958 36.5321C57.6758 36.9161 57.0278 37.1081 56.2518 37.1081C55.6198 37.1081 55.0518 36.9681 54.5478 36.6881C54.0518 36.4001 53.6598 36.0001 53.3718 35.4881C53.0918 34.9681 52.9518 34.3681 52.9518 33.6881C52.9518 33.0081 53.0878 32.4121 53.3598 31.9001C53.6398 31.3801 54.0278 30.9801 54.5238 30.7001C55.0278 30.4201 55.6038 30.2801 56.2518 30.2801C56.8758 30.2801 57.4318 30.4161 57.9198 30.6881C58.4078 30.9601 58.7878 31.3441 59.0598 31.8401C59.3318 32.3281 59.4678 32.8921 59.4678 33.5321ZM58.0398 33.1001C58.0318 32.5961 57.8518 32.1921 57.4998 31.8881C57.1478 31.5841 56.7118 31.4321 56.1918 31.4321C55.7198 31.4321 55.3158 31.5841 54.9798 31.8881C54.6438 32.1841 54.4438 32.5881 54.3798 33.1001H58.0398ZM62.1821 28.1201V37.0001H60.8141V28.1201H62.1821ZM64.6741 29.5121C64.4261 29.5121 64.2181 29.4281 64.0501 29.2601C63.8821 29.0921 63.7981 28.8841 63.7981 28.6361C63.7981 28.3881 63.8821 28.1801 64.0501 28.0121C64.2181 27.8441 64.4261 27.7601 64.6741 27.7601C64.9141 27.7601 65.1181 27.8441 65.2861 28.0121C65.4541 28.1801 65.5381 28.3881 65.5381 28.6361C65.5381 28.8841 65.4541 29.0921 65.2861 29.2601C65.1181 29.4281 64.9141 29.5121 64.6741 29.5121ZM65.3461 30.3881V37.0001H63.9781V30.3881H65.3461ZM69.6982 35.7761L71.5702 30.3881H73.0222L70.5022 37.0001H68.8702L66.3622 30.3881H67.8262L69.6982 35.7761ZM80.1163 33.5321C80.1163 33.7801 80.1003 34.0041 80.0683 34.2041H75.0163C75.0563 34.7321 75.2523 35.1561 75.6043 35.4761C75.9563 35.7961 76.3883 35.9561 76.9003 35.9561C77.6363 35.9561 78.1563 35.6481 78.4603 35.0321H79.9362C79.7363 35.6401 79.3723 36.1401 78.8443 36.5321C78.3243 36.9161 77.6763 37.1081 76.9003 37.1081C76.2683 37.1081 75.7003 36.9681 75.1963 36.6881C74.7003 36.4001 74.3083 36.0001 74.0203 35.4881C73.7403 34.9681 73.6003 34.3681 73.6003 33.6881C73.6003 33.0081 73.7363 32.4121 74.0083 31.9001C74.2883 31.3801 74.6763 30.9801 75.1723 30.7001C75.6763 30.4201 76.2523 30.2801 76.9003 30.2801C77.5243 30.2801 78.0803 30.4161 78.5683 30.6881C79.0563 30.9601 79.4363 31.3441 79.7083 31.8401C79.9803 32.3281 80.1163 32.8921 80.1163 33.5321ZM78.6883 33.1001C78.6803 32.5961 78.5003 32.1921 78.1483 31.8881C77.7963 31.5841 77.3603 31.4321 76.8403 31.4321C76.3683 31.4321 75.9643 31.5841 75.6283 31.8881C75.2923 32.1841 75.0923 32.5881 75.0283 33.1001H78.6883ZM82.8305 31.3481C83.0305 31.0121 83.2945 30.7521 83.6225 30.5681C83.9585 30.3761 84.3545 30.2801 84.8105 30.2801V31.6961H84.4625C83.9265 31.6961 83.5185 31.8321 83.2385 32.1041C82.9665 32.3761 82.8305 32.8481 82.8305 33.5201V37.0001H81.4625V30.3881H82.8305V31.3481ZM92.02 30.3881L87.964 40.1081H86.548L87.892 36.8921L85.288 30.3881H86.812L88.672 35.4281L90.604 30.3881H92.02Z" fill="#394452"/>
<defs>
<clipPath id="clip0_226_2887">
<rect width="26.7371" height="26.5625" fill="white" transform="translate(12.5884 11.7189)"/>
</clipPath>
</defs>
</svg>
