<svg width="40" height="40" viewBox="0 0 40 40" fill="none" xmlns="http://www.w3.org/2000/svg">
<circle cx="20" cy="20" r="20" fill="#8831E1"/>
<path d="M26.5879 18.8946C25.3479 18.8946 23.9399 18.5106 22.9319 17.7906V22.8146C22.9319 25.3426 20.8839 27.3906 18.3559 27.3826C15.8279 27.3826 13.7799 25.3346 13.7879 22.8066C13.7879 20.2786 15.8358 18.2306 18.3638 18.2386C18.5718 18.2386 18.7799 18.2546 18.9879 18.2786V20.8066C17.8839 20.4626 16.6999 21.0706 16.3559 22.1826C16.0119 23.2946 16.6199 24.4706 17.7319 24.8146C18.8359 25.1586 20.0198 24.5506 20.3638 23.4386C20.4278 23.2386 20.4599 23.0226 20.4599 22.8066V12.9746H22.9319C22.9319 13.1826 22.9479 13.3906 22.9879 13.5986C23.1639 14.5266 23.7079 15.3426 24.5079 15.8546C25.0679 16.2226 25.9239 16.4226 26.5959 16.4226V18.8786L26.5879 18.8946Z" fill="white"/>
</svg>
