<svg width="41" height="41" viewBox="0 0 41 41" fill="none" xmlns="http://www.w3.org/2000/svg">
<circle cx="20.0226" cy="20.7676" r="20" fill="#3D6AD6"/>
<circle cx="20.0226" cy="20.7676" r="19.5" stroke="white" stroke-opacity="0.4"/>
<path d="M16.6756 13.884C16.6756 14.4755 16.6756 17.1153 16.6756 17.1153H14.3083V21.0664H16.6756V32.8078H21.5386V21.0667H24.8018C24.8018 21.0667 25.1074 19.1722 25.2556 17.1007C24.8308 17.1007 21.5569 17.1007 21.5569 17.1007C21.5569 17.1007 21.5569 14.802 21.5569 14.3991C21.5569 13.9954 22.0871 13.4522 22.6112 13.4522C23.1342 13.4522 24.2382 13.4522 25.2607 13.4522C25.2607 12.9143 25.2607 11.0555 25.2607 9.33887C23.8957 9.33887 22.3428 9.33887 21.6583 9.33887C16.5554 9.33859 16.6756 13.2937 16.6756 13.884Z" fill="white"/>
<path d="M16.6756 13.884C16.6756 14.4755 16.6756 17.1153 16.6756 17.1153H14.3083V21.0664H16.6756V32.8078H21.5386V21.0667H24.8018C24.8018 21.0667 25.1074 19.1722 25.2556 17.1007C24.8308 17.1007 21.5569 17.1007 21.5569 17.1007C21.5569 17.1007 21.5569 14.802 21.5569 14.3991C21.5569 13.9954 22.0871 13.4522 22.6112 13.4522C23.1342 13.4522 24.2382 13.4522 25.2607 13.4522C25.2607 12.9143 25.2607 11.0555 25.2607 9.33887C23.8957 9.33887 22.3428 9.33887 21.6583 9.33887C16.5554 9.33859 16.6756 13.2937 16.6756 13.884Z" fill="white"/>
</svg>
