<svg width="41" height="41" viewBox="0 0 41 41" fill="none" xmlns="http://www.w3.org/2000/svg">
<circle cx="20.0226" cy="20.7676" r="20" fill="url(#paint0_linear_180_854)"/>
<circle cx="20.0226" cy="20.7676" r="19.5" stroke="white" stroke-opacity="0.4"/>
<path d="M23.4934 10.8574H15.2117C12.3993 10.8574 10.1112 13.1456 10.1112 15.958V24.2397C10.1112 27.0522 12.3993 29.3403 15.2117 29.3403H23.4934C26.306 29.3403 28.5941 27.0521 28.5941 24.2397V15.958C28.5942 13.1456 26.306 10.8574 23.4934 10.8574ZM26.9543 24.2397C26.9543 26.148 25.4018 27.7004 23.4935 27.7004H15.2117C13.3035 27.7005 11.7511 26.148 11.7511 24.2397V15.958C11.7511 14.0498 13.3035 12.4973 15.2117 12.4973H23.4934C25.4016 12.4973 26.9542 14.0498 26.9542 15.958V24.2397H26.9543Z" fill="white"/>
<path d="M19.3524 15.3362C16.7263 15.3362 14.5898 17.4726 14.5898 20.0987C14.5898 22.7248 16.7263 24.8611 19.3524 24.8611C21.9785 24.8611 24.115 22.7248 24.115 20.0987C24.115 17.4726 21.9785 15.3362 19.3524 15.3362ZM19.3524 23.2211C17.6306 23.2211 16.2297 21.8204 16.2297 20.0986C16.2297 18.3768 17.6305 16.976 19.3524 16.976C21.0743 16.976 22.4751 18.3768 22.4751 20.0986C22.4751 21.8204 21.0742 23.2211 19.3524 23.2211Z" fill="white"/>
<path d="M24.3148 13.946C23.9988 13.946 23.6884 14.074 23.4653 14.2981C23.2411 14.5211 23.1122 14.8316 23.1122 15.1486C23.1122 15.4647 23.2412 15.7751 23.4653 15.9992C23.6883 16.2222 23.9988 16.3512 24.3148 16.3512C24.6318 16.3512 24.9412 16.2222 25.1653 15.9992C25.3894 15.7751 25.5174 15.4646 25.5174 15.1486C25.5174 14.8316 25.3894 14.5211 25.1653 14.2981C24.9423 14.074 24.6318 13.946 24.3148 13.946Z" fill="white"/>
<defs>
<linearGradient id="paint0_linear_180_854" x1="3.3793" y1="37.4108" x2="36.6661" y2="4.1242" gradientUnits="userSpaceOnUse">
<stop stop-color="#FFD600"/>
<stop offset="0.5" stop-color="#FF0100"/>
<stop offset="1" stop-color="#D800B9"/>
</linearGradient>
</defs>
</svg>
