<svg width="71" height="71" viewBox="0 0 71 71" fill="none" xmlns="http://www.w3.org/2000/svg">
<path d="M35.5 4.4375H68.7812V51.0312H35.5V4.4375Z" fill="#D3D9EA"/>
<path d="M19.9688 37.72L23.2969 53.2512H47.7031L51.0312 37.72H19.9688Z" fill="#F2F2F2"/>
<path d="M4.4375 37.7188H9.31875C9.82158 37.7188 10.3095 37.8896 10.7025 38.2032C11.0956 38.5168 11.3704 38.9547 11.482 39.4449L15.8519 58.6704C16.0748 59.6521 16.625 60.5288 17.412 61.1566C18.1991 61.7844 19.1761 62.1258 20.1829 62.125H48.8125C49.4009 62.125 49.9653 61.8912 50.3814 61.4751C50.7975 61.0591 51.0312 60.4947 51.0312 59.9063C51.0312 59.3178 50.7975 58.7535 50.3814 58.3374C49.9653 57.9213 49.4009 57.6875 48.8125 57.6875H21.7437C21.2406 57.6877 20.7523 57.5168 20.359 57.203C19.9657 56.8891 19.6908 56.4509 19.5794 55.9602L15.2062 36.7347C14.9831 35.7538 14.4334 34.8777 13.647 34.2503C12.8607 33.6228 11.8845 33.2811 10.8785 33.2813H4.4375C3.84905 33.2813 3.2847 33.515 2.86861 33.9311C2.45251 34.3472 2.21875 34.9116 2.21875 35.5C2.21875 36.0884 2.45251 36.6528 2.86861 37.0689C3.2847 37.485 3.84905 37.7188 4.4375 37.7188Z" fill="#3B5892"/>
<path d="M51.8922 37.0221C51.7884 36.8934 51.6571 36.7895 51.5079 36.7181C51.3588 36.6467 51.1956 36.6096 51.0302 36.6094H19.9677C19.8025 36.6095 19.6393 36.6466 19.4902 36.7179C19.3411 36.7892 19.2098 36.8929 19.1059 37.0215C19.002 37.15 18.9282 37.3002 18.8898 37.4609C18.8513 37.6217 18.8493 37.789 18.8839 37.9506L22.212 53.4819C22.265 53.73 22.4016 53.9525 22.5988 54.1122C22.796 54.2719 23.0421 54.3591 23.2959 54.3594H47.7021C47.9561 54.3594 48.2024 54.2723 48.3998 54.1126C48.5973 53.9529 48.734 53.7302 48.7871 53.4819L52.1152 37.9506C52.1495 37.789 52.1473 37.6218 52.1087 37.4611C52.0702 37.3005 51.9962 37.1505 51.8922 37.0221ZM48.4687 44.375H43.4343L44.2275 38.8281H49.6579L48.4687 44.375ZM34.3896 46.5938V52.1406H30.915L30.1218 46.5938H34.3896ZM29.8057 44.375L29.0125 38.8281H34.3896V44.375H29.8057ZM36.6084 46.5938H40.8761L40.0829 52.1406H36.6084V46.5938ZM36.6084 44.375V38.8281H41.9855L41.1923 44.375H36.6084ZM26.7704 38.8281L27.5636 44.375H22.5293L21.34 38.8281H26.7704ZM22.9985 46.5938H27.8798L28.673 52.1406H24.1933L22.9985 46.5938ZM46.8002 52.1406H42.325L43.1182 46.5938H47.9939L46.8002 52.1406Z" fill="#5E87CA"/>
<path d="M26.625 68.7825C28.4631 68.7825 29.9531 67.2924 29.9531 65.4543C29.9531 63.6163 28.4631 62.1262 26.625 62.1262C24.7869 62.1262 23.2969 63.6163 23.2969 65.4543C23.2969 67.2924 24.7869 68.7825 26.625 68.7825Z" fill="#686868"/>
<path d="M44.375 68.7825C46.2131 68.7825 47.7031 67.2924 47.7031 65.4543C47.7031 63.6163 46.2131 62.1262 44.375 62.1262C42.5369 62.1262 41.0469 63.6163 41.0469 65.4543C41.0469 67.2924 42.5369 68.7825 44.375 68.7825Z" fill="#686868"/>
<path d="M45.4844 2.21875H58.7969V6.65625H45.4844V2.21875Z" fill="#5E87CA"/>
<path d="M56.5781 3.32812V2.21875H45.4844V4.4375H55.4688C55.763 4.4375 56.0451 4.32062 56.2532 4.11257C56.4612 3.90452 56.5781 3.62235 56.5781 3.32812Z" fill="#78A0D4"/>
<path d="M41.0469 11.0938H61.0156V13.3125H41.0469V11.0938Z" fill="#9DA1BF"/>
<path d="M38.8281 15.5312H65.4531V17.75H38.8281V15.5312Z" fill="#9DA1BF"/>
<path d="M38.8281 19.9688H65.4531V22.1875H38.8281V19.9688Z" fill="#9DA1BF"/>
<path d="M38.8281 24.4062H65.4531V26.625H38.8281V24.4062Z" fill="#9DA1BF"/>
<path d="M38.8281 28.8438H65.4531V31.0625H38.8281V28.8438Z" fill="#9DA1BF"/>
<path d="M63.2344 11.0938H65.4531V13.3125H63.2344V11.0938Z" fill="#9DA1BF"/>
<path d="M16.6406 24.4062C22.7675 24.4062 27.7344 19.4394 27.7344 13.3125C27.7344 7.18559 22.7675 2.21875 16.6406 2.21875C10.5137 2.21875 5.54688 7.18559 5.54688 13.3125C5.54688 19.4394 10.5137 24.4062 16.6406 24.4062Z" fill="#4D8C28"/>
<path d="M15.5312 24.351C21.0455 24.351 25.5156 19.409 25.5156 13.3127C25.5156 7.21642 21.0455 2.27441 15.5312 2.27441C10.017 2.27441 5.54688 7.21642 5.54688 13.3127C5.54688 19.409 10.017 24.351 15.5312 24.351Z" fill="#559B2D"/>
<path d="M9.98438 14.4219L14.4219 18.8594L23.2969 9.98438L21.0781 7.76562L14.4219 14.4219L12.2031 12.2031L9.98438 14.4219Z" fill="#F2F2F2"/>
</svg>
