<svg width="103" height="50" viewBox="0 0 103 50" fill="none" xmlns="http://www.w3.org/2000/svg">
<rect x="0.393192" y="0.393192" width="101.444" height="49.2136" rx="5.89789" fill="white" stroke="#A3A3A3" stroke-width="0.786385"/>
<path d="M59.98 22.0282H49.275C49.063 22.0282 48.957 22.186 48.957 22.3438V23.1854C48.957 23.3958 49.116 23.501 49.275 23.501H57.2773V27.9193C57.0653 27.6037 56.8003 27.2881 56.5353 26.9725C55.5814 26.0257 54.5745 25.5523 53.5146 25.5523C52.6667 25.5523 51.9778 25.9731 51.3948 26.7095C50.9179 27.3407 50.6529 28.0771 50.6529 28.7609C50.6529 29.4447 50.7589 30.3388 51.2888 31.1804C51.9248 32.1798 52.9847 32.4954 53.9386 32.4954C55.1575 32.4954 56.1644 31.6538 56.1644 30.5492C56.1644 29.918 55.8464 29.3921 55.2634 29.0239L54.6805 28.7083V29.6551C54.6275 29.918 54.2035 30.2862 53.7266 30.2862C53.3026 30.2862 52.9317 30.1284 52.6667 29.8654C52.5077 29.7076 52.4017 29.3921 52.4547 29.1817C52.4547 28.8661 52.5607 28.6031 52.7727 28.3401C53.0377 28.0245 53.3026 27.8667 53.7266 27.8667C54.7865 27.8667 55.6874 28.3401 56.4293 29.3921C57.0123 30.2862 57.3303 31.1278 57.3303 32.0746V34.2838L58.9201 35.2305C58.9731 35.2831 59.0261 35.2831 59.0791 35.2831C59.2911 35.2831 59.3971 35.1253 59.3971 34.9675V23.5536H60.033C60.245 23.5536 60.351 23.3958 60.351 23.238V22.3964C60.351 22.186 60.192 22.0282 59.98 22.0282Z" fill="#ED1C24"/>
<path d="M81.3902 22.0286H67.8234C67.6114 22.0286 67.5055 22.1864 67.5055 22.3442V23.817C66.1806 22.4494 65.0147 21.7656 63.9548 21.7656C62.9479 21.7656 62.0999 21.976 61.358 22.5546C60.6691 23.0806 60.2451 23.7644 60.2451 24.5534C60.2451 26.9203 62.8949 26.8677 63.5838 26.5521C63.6898 26.4995 63.8488 26.3943 64.0078 26.3943C64.5377 26.3943 64.7497 26.8151 64.7497 27.1833C64.7497 27.7093 63.9548 28.1827 63.0009 28.1827C62.4709 28.1827 62.1529 28.0249 61.941 27.7093L61.517 27.0781L61.252 27.8145C61.199 27.9723 61.093 28.1827 61.093 28.4457C61.093 28.9717 61.358 29.4977 61.888 29.9711C62.3649 30.3919 62.9479 30.6023 63.5838 30.6023C64.5907 30.6023 65.4386 30.2341 65.9686 29.4977C66.4455 28.9191 66.6575 28.2353 66.6575 27.4463C66.6575 27.0255 66.4985 26.5521 66.1276 26.0261C65.7036 25.395 65.1737 25.0794 64.5907 25.0794C64.3787 25.0794 64.1138 25.132 63.8488 25.2372C63.7428 25.2898 63.5308 25.3424 63.4778 25.3424C63.3718 25.3424 63.2128 25.2898 63.1069 25.132C63.0009 25.0268 62.8949 24.869 62.8949 24.606C62.8949 24.0274 63.4248 23.4488 64.3787 23.4488H64.4317C65.0677 23.4488 65.7036 23.7644 66.2866 24.343C66.7635 24.8164 67.1345 25.2898 67.4525 25.8157V34.179L69.0423 35.1258C69.0953 35.1784 69.1483 35.1784 69.2013 35.1784C69.4133 35.1784 69.5193 35.0206 69.5193 34.8628V23.554H71.957V30.8652L73.8649 31.6542H73.9709C74.1298 31.6542 74.2888 31.549 74.2888 31.3386V31.286C74.6068 29.1295 75.5607 27.6567 77.1506 26.7625V27.1833C77.1506 27.4989 77.1506 28.2879 77.2036 28.7087C77.2036 28.9717 77.2036 29.1295 77.2565 29.2873C77.2565 30.1289 77.3625 31.3912 77.6275 32.338C78.1575 34.1264 79.0584 34.5472 79.6943 34.5472H79.7473C80.1183 34.5472 80.4363 34.442 80.6482 34.2316C80.7542 34.1264 80.9132 33.916 80.9132 33.5478C80.9132 33.2322 80.8602 32.9692 80.7542 32.7588L80.5952 32.4958L80.2773 32.5484C79.9593 32.6536 79.8003 32.6536 79.8003 32.601H79.7473C79.6413 32.601 79.6413 32.601 79.5883 32.5484C79.4823 32.4958 79.2704 32.338 79.1114 31.7594C79.0054 31.3386 78.9524 30.76 78.9524 30.4445C78.9524 28.0775 79.4294 26.2891 80.2243 25.9209H80.2773C80.3833 25.8683 80.4893 25.7631 80.4893 25.6054C80.4893 25.5528 80.4893 25.5002 80.4363 25.4476V25.395C80.0653 24.6586 79.2704 24.1326 78.2105 23.8696H77.9985C77.1506 24.0274 76.1437 24.606 74.8718 25.6579C74.5538 25.9209 74.2358 26.1839 73.9709 26.4469V23.554H81.3902C81.6021 23.554 81.7081 23.3962 81.7081 23.2384V22.3968C81.7611 22.1864 81.6021 22.0286 81.3902 22.0286Z" fill="#ED1C24"/>
<path d="M45.4595 25.9205C45.4595 26.2887 45.4595 26.6043 45.4065 26.9199C45.3005 28.3927 44.9295 29.7603 44.3466 31.0226C44.1346 31.5486 43.8696 32.022 43.5517 32.4954C41.3259 35.9669 37.4042 38.2813 32.9526 38.2813C31.0448 38.2813 29.243 37.8605 27.6531 37.1241C23.4135 35.1779 20.4458 30.8648 20.4458 25.9205C20.4458 21.0288 23.3075 16.8209 27.3882 14.8221C27.0702 15.2429 26.7522 15.6637 26.4872 16.1371C26.4872 16.1897 26.4342 16.1897 26.4342 16.2423C26.2753 16.4001 26.1163 16.5053 25.9573 16.6631C25.7453 16.8209 25.5863 17.0313 25.3743 17.1891L25.2684 17.2943L25.1624 17.3995C25.1094 17.4521 25.0564 17.5573 24.9504 17.6099C24.8444 17.7677 24.6854 17.9255 24.5794 18.0833C24.0495 18.7671 23.6255 19.5035 23.3075 20.2924C23.2545 20.345 23.2545 20.4502 23.2015 20.5028C23.1486 20.608 23.1486 20.7132 23.0956 20.7658C23.0956 20.8184 23.0426 20.871 23.0426 20.9236C22.9896 21.0814 22.9366 21.1866 22.8836 21.3444C22.8306 21.4496 22.8306 21.5548 22.7776 21.6074C22.7776 21.66 22.7246 21.7126 22.7246 21.7652C22.7246 21.8704 22.6716 21.9756 22.6716 22.0808L22.5126 23.0276C22.5126 23.1328 22.5126 23.1854 22.4596 23.2906V24.553C22.4596 27.9193 23.9965 30.97 26.4872 32.9162C28.3951 34.4416 30.7798 35.3883 33.3766 35.3883C35.7614 35.3883 37.9342 34.652 39.736 33.337C41.0609 32.3902 42.1208 31.1804 42.9157 29.7603C43.0217 29.5499 43.1277 29.3921 43.2337 29.1817C43.8696 27.8667 44.2406 26.4465 44.2406 24.9211V24.553C44.2406 24.1848 44.2406 23.8692 44.1876 23.501L44.2406 23.5536C44.3996 23.7114 44.5586 23.8166 44.7176 23.9744C44.8765 23.7114 45.0355 23.501 45.1945 23.238C45.3005 23.7114 45.3535 24.1848 45.4065 24.7108C45.4595 25.1841 45.4595 25.5523 45.4595 25.9205Z" fill="#ED1C24"/>
<path d="M34.4371 15.9796L32.1053 11.7191C28.2367 13.4549 25.5869 17.2946 25.5869 21.7655C25.5869 24.0273 26.2759 26.1312 27.4417 27.867C27.3358 27.2884 27.3358 26.7098 27.3358 26.0786C27.3887 21.5025 30.3035 17.6102 34.4371 15.9796Z" fill="#F7941D"/>
<path d="M36.2912 18.0839C37.2451 17.8209 38.305 17.7157 39.3119 17.7157C39.9478 17.7157 40.6368 17.7683 41.2197 17.8735L41.1667 15.98L41.0607 12.1928C40.6368 12.1402 40.1598 12.0876 39.6828 12.0876C37.563 12.0876 35.6022 12.7714 34.0124 13.876L35.2843 16.1904C33.0055 16.9794 31.1506 18.5573 29.9847 20.6087C29.4018 21.6081 28.9778 22.7652 28.8188 23.975C29.1368 23.3438 29.5078 22.7652 29.9317 22.2392C31.4686 20.2405 33.6944 18.7151 36.2912 18.0839Z" fill="#ED1C24"/>
<path d="M41.8558 15.9266L41.9618 18.6092C41.0609 18.3462 40.16 18.1884 39.153 18.1884C37.2982 18.1884 35.5494 18.7144 34.0125 19.6086C32.1047 20.7657 30.6208 22.6067 29.8789 24.7633C30.6208 23.7639 31.5218 22.8697 32.5817 22.1859C34.1185 21.1865 35.9733 20.6079 37.9342 20.6079C39.418 20.6079 40.7959 20.9235 42.0678 21.5021C43.0217 21.9229 43.8696 22.5015 44.6115 23.2379L46.0954 21.0287L48.0032 18.1358C46.3074 16.7682 44.1876 15.9266 41.8558 15.9266Z" fill="#F7941D"/>
<path d="M44.241 24.6584V25.0266C44.241 27.2358 43.34 29.0767 43.234 29.2871C43.1281 29.4975 43.0221 29.6553 42.9161 29.8657C42.1211 31.2859 41.0612 32.4957 39.7364 33.4424C37.9345 34.7048 35.7617 35.4938 33.377 35.4938C30.7802 35.4938 28.3424 34.5996 26.4876 33.0217C24.0498 31.0229 22.46 28.0248 22.46 24.6584V23.396C22.46 23.2908 22.46 23.2382 22.513 23.133L22.6719 22.1863C22.6719 22.0811 22.7249 21.9759 22.7249 21.8707C22.7249 21.8181 22.7779 21.7655 22.7779 21.7129C22.8309 21.6077 22.8309 21.5025 22.8839 21.4499C22.9369 21.2921 22.9899 21.1343 23.0429 21.0291C23.0429 20.9765 23.0959 20.9239 23.0959 20.8713C23.1489 20.7661 23.1489 20.6609 23.2019 20.6083C23.2549 20.5557 23.2549 20.4505 23.3079 20.3979C23.6259 19.6089 24.1028 18.8725 24.5798 18.1887C24.6858 18.0309 24.8447 17.8731 24.9507 17.7154C25.0037 17.6628 25.0567 17.5576 25.1627 17.505C25.2157 17.4524 25.2157 17.3998 25.2687 17.3998C25.3217 17.3472 25.3217 17.2946 25.3747 17.2946C25.5337 17.0842 25.7457 16.9264 25.9576 16.7686C26.1166 16.6108 26.2756 16.5056 26.4346 16.3478C26.4346 16.4004 26.3816 16.4004 26.3816 16.453C26.3816 16.5056 26.3286 16.5582 26.3286 16.5582C25.6927 17.8206 25.2687 19.3459 25.1097 20.9239C25.0567 21.3447 25.0567 21.7655 25.0567 22.2389C25.0567 27.9196 28.3954 32.4957 32.529 32.4957H32.953C33.5359 32.4957 34.1189 32.3905 34.7018 32.2853C37.5106 31.5489 39.5774 28.9715 39.5774 25.9734V25.8156C39.5244 24.0272 38.7825 22.3967 37.5636 21.2921C38.4115 21.2921 39.2594 21.4499 40.0543 21.6603C41.5912 22.0285 42.9691 22.7649 44.188 23.7116L44.241 23.7642C44.188 23.9746 44.241 24.3428 44.241 24.6584Z" fill="#F7941D"/>
<path d="M44.241 24.6587V25.0269C44.241 27.3413 43.1811 29.34 43.1811 29.34C43.0751 29.5504 42.9691 29.7082 42.8631 29.9186C42.0682 31.3388 40.9553 32.5486 39.6304 33.4954C37.7756 34.8629 35.5498 35.5467 33.218 35.5467C30.6743 35.5467 28.2365 34.6525 26.2757 33.0746C23.7319 31.0232 22.248 27.9199 22.248 24.6587C22.248 21.3976 23.7319 18.2943 26.2757 16.2429L26.3817 16.1377C26.3817 16.1903 26.3287 16.1903 26.3287 16.2429C26.3287 16.2955 26.2757 16.2955 26.2757 16.3481C23.7849 18.3995 22.354 21.3976 22.354 24.6587C22.354 27.9199 23.7849 30.918 26.3287 33.022C28.2365 34.5999 30.7273 35.4415 33.218 35.4415C35.4968 35.4415 37.7226 34.7577 39.5774 33.3902C40.9023 32.4434 41.9622 31.2336 42.7572 29.8134C42.8631 29.603 42.9691 29.4452 43.0221 29.2348C43.0221 29.2348 44.082 27.2887 44.082 24.9743V24.6061C44.082 24.2379 44.082 23.9223 44.029 23.5542V23.5016L44.082 23.5542L44.135 23.6068C44.241 24.0275 44.241 24.3431 44.241 24.6587Z" fill="#F7941D"/>
</svg>
