<svg width="270" height="360" viewBox="0 0 270 360" fill="none" xmlns="http://www.w3.org/2000/svg">
<rect width="270" height="360" rx="8" fill="#E8E8E8"/>
<path d="M237.779 307.437C237.444 307.877 237.082 307.788 236.759 307.799C230.886 308.033 225.009 308.239 219.135 308.5C215.399 308.664 211.74 309.057 208.124 310.298C202.889 312.1 197.35 312.311 191.862 312.505C186.472 312.696 181.069 312.408 175.686 312.855C173.413 313.042 171.14 313.245 168.856 313.583L180.649 314.525V314.782C178.528 314.895 176.407 315.047 174.281 315.109C154.4 315.681 134.515 315.378 114.633 315.432C106.561 315.455 98.4845 315.541 90.4198 315.346C80.2106 315.101 70.0013 315.296 59.792 315.136C55.8066 315.074 27.2327 313.131 65.4474 312.63C70.6435 312.56 75.8357 312.24 79.7085 312.085C37.7984 310.376 22.8067 311 37.4935 306.274C39.3891 306.169 39.7744 305.834 39.6615 303.938C39.5603 302.237 40.763 301.786 41.9968 301.428C45.0756 300.533 48.2244 299.848 51.3576 299.248C58.1261 297.964 64.9609 297.73 71.8228 297.785C75.3686 297.816 78.9417 297.867 82.4252 297.197C88.1058 296.054 93.5272 293.874 98.4183 290.767C99.6877 289.953 100.711 288.808 101.376 287.455C102.068 286.158 102.704 284.838 103.296 283.501C104.788 280.131 105.995 276.647 107.071 273.12C109.995 263.558 112.469 253.872 114.493 244.061C115.929 237.121 117.268 230.165 118.202 223.136C118.366 221.906 117.984 221.26 116.906 220.735C112.812 218.738 112.648 218.329 113.489 213.826C114.065 210.712 114.583 207.598 115.151 204.508C115.322 203.57 115.17 202.807 114.392 202.173C113.935 201.845 113.56 201.415 113.297 200.918C113.034 200.421 112.889 199.87 112.874 199.308C112.874 198.428 112.267 197.903 111.586 197.486C110.387 196.755 109.165 196.046 107.95 195.338C106.572 194.536 106.23 193.392 106.623 191.87C110.418 177.115 113.403 162.149 116.809 147.292C119.693 134.756 122.675 122.242 125.43 109.678C126.878 103.061 130.171 97.3944 133.082 91.486C137.893 81.7282 142.957 72.0794 146.071 61.5899C146.582 60.0197 146.972 58.4128 147.238 56.7831C148.075 50.6606 151.8 47.0525 157.378 45.1959C163.687 43.1097 169.743 43.6391 175.247 47.687C176.22 48.3869 177.06 49.254 177.73 50.248C176.461 50.2831 175.437 49.5902 174.336 49.8588C178.792 51.0265 179.221 51.5597 179.575 56.207C179.695 57.8028 179.808 59.4025 179.937 60.9983C179.983 61.5977 179.836 61.8974 179.221 61.5121C176.364 59.7256 173.195 60.2238 170.124 60.3911C167.509 60.5351 165.002 61.3798 162.145 62.3878C164.914 63.0998 167.732 63.6033 170.576 63.8941C173.227 64.2016 175.881 64.5285 178.543 64.6998C179.793 64.7815 180.007 65.4121 180.151 66.4513C180.774 71.0013 180.501 75.563 180.443 80.1207C180.428 80.5465 180.454 80.9727 180.521 81.3935L180.988 71.589H181.377C184.327 91.9375 184.319 112.582 187.289 132.568C187.908 115.742 185.059 98.8228 183.296 81.8061C186.83 100.96 192.715 119.708 193.026 139.454C193.065 138.426 193.715 137.601 193.774 136.64C193.832 135.678 193.774 134.693 193.774 133.728C193.774 132.763 193.692 131.689 193.649 130.669C193.12 117.4 189.247 104.774 186.223 91.9842C186.106 91.4821 185.81 90.9917 186.032 90.3456C186.596 90.6141 186.674 91.1629 186.857 91.6105C190.321 100.173 192.82 109.071 195.638 117.86C199.46 129.797 202.877 141.847 206.147 153.94C208.513 162.655 210.74 171.409 213.052 180.143C213.402 181.47 213.238 182.505 211.919 183.214C211.345 183.578 210.792 183.976 210.265 184.405C210.004 184.547 209.804 184.78 209.706 185.061C209.607 185.341 209.616 185.649 209.732 185.923C210.354 187.526 209.603 188.764 208.474 189.648C206.672 191.06 206.349 192.703 207.042 194.758C207.353 195.677 207.342 196.704 207.708 197.592C209.319 201.46 207.941 204.827 205.672 207.77C203.088 211.125 202.659 214.597 203.282 218.668C204.722 228.118 205.769 237.627 207.034 247.104C209.012 261.895 211.082 276.646 214.904 291.086C215.765 294.325 216.722 297.536 218.236 300.556C219.291 302.662 220.606 304.098 223.265 303.989C225.067 303.915 226.737 304.647 227.391 306.593C227.636 307.313 228.138 307.099 228.558 307.103C231.038 307.146 233.521 307.142 236 307.177C236.561 307.181 237.176 307.068 237.779 307.437ZM191.571 184.327C191.676 204.107 192.913 223.798 194.891 243.488C196.447 243.13 196.755 242.251 196.665 240.881C196.089 232.318 194.879 223.79 194.213 215.223C193.408 204.901 192.197 194.63 191.571 184.327ZM175.725 107.137C176.27 104.003 176.893 100.878 177.345 97.733C178.026 93.0623 178.314 88.3722 178.664 83.6782C179.116 78.1194 179.289 72.5413 179.182 66.9651C179.182 66.5759 179.431 65.7974 178.656 65.8714C178.065 65.922 178.115 66.5953 178.119 67.0702C178.158 70.8612 177.862 74.6366 177.543 78.4082C176.998 84.7875 176.438 91.1668 175.92 97.5501C175.679 100.722 175.367 103.898 175.725 107.137ZM203.913 169.498C202.388 156.406 200.122 143.411 197.125 130.575C197.312 132.646 197.549 134.713 197.818 136.776C198.545 142.404 199.46 148.016 199.978 153.668C200.48 159.164 201.986 164.375 203.913 169.498ZM180.739 155.742C180.633 151.819 181.19 147.915 181.159 143.992C181.132 140.17 181.159 136.344 181.159 132.522H180.739V155.742Z" fill="#C2C2C2"/>
<path d="M133.672 142H129.112L115.392 121.24V142H110.832V114.16H115.392L129.112 134.88V114.16H133.672V142ZM149.22 142.36C147.14 142.36 145.26 141.893 143.58 140.96C141.9 140 140.58 138.667 139.62 136.96C138.66 135.227 138.18 133.227 138.18 130.96C138.18 128.72 138.673 126.733 139.66 125C140.647 123.267 141.993 121.933 143.7 121C145.407 120.067 147.313 119.6 149.42 119.6C151.527 119.6 153.433 120.067 155.14 121C156.847 121.933 158.193 123.267 159.18 125C160.167 126.733 160.66 128.72 160.66 130.96C160.66 133.2 160.153 135.187 159.14 136.92C158.127 138.653 156.74 140 154.98 140.96C153.247 141.893 151.327 142.36 149.22 142.36ZM149.22 138.4C150.393 138.4 151.487 138.12 152.5 137.56C153.54 137 154.38 136.16 155.02 135.04C155.66 133.92 155.98 132.56 155.98 130.96C155.98 129.36 155.673 128.013 155.06 126.92C154.447 125.8 153.633 124.96 152.62 124.4C151.607 123.84 150.513 123.56 149.34 123.56C148.167 123.56 147.073 123.84 146.06 124.4C145.073 124.96 144.287 125.8 143.7 126.92C143.113 128.013 142.82 129.36 142.82 130.96C142.82 133.333 143.42 135.173 144.62 136.48C145.847 137.76 147.38 138.4 149.22 138.4ZM77.0522 166.2V194H72.4922V166.2H77.0522ZM109.719 171.6C111.452 171.6 112.999 171.96 114.359 172.68C115.746 173.4 116.826 174.467 117.599 175.88C118.399 177.293 118.799 179 118.799 181V194H114.279V181.68C114.279 179.707 113.786 178.2 112.799 177.16C111.812 176.093 110.466 175.56 108.759 175.56C107.052 175.56 105.692 176.093 104.679 177.16C103.692 178.2 103.199 179.707 103.199 181.68V194H98.6791V181.68C98.6791 179.707 98.1857 178.2 97.1991 177.16C96.2124 176.093 94.8657 175.56 93.1591 175.56C91.4524 175.56 90.0924 176.093 89.0791 177.16C88.0924 178.2 87.5991 179.707 87.5991 181.68V194H83.0391V171.96H87.5991V174.48C88.3457 173.573 89.2924 172.867 90.4391 172.36C91.5857 171.853 92.8124 171.6 94.1191 171.6C95.8791 171.6 97.4524 171.973 98.8391 172.72C100.226 173.467 101.292 174.547 102.039 175.96C102.706 174.627 103.746 173.573 105.159 172.8C106.572 172 108.092 171.6 109.719 171.6ZM123.082 182.88C123.082 180.667 123.535 178.707 124.442 177C125.375 175.293 126.628 173.973 128.202 173.04C129.802 172.08 131.562 171.6 133.482 171.6C135.215 171.6 136.722 171.947 138.002 172.64C139.308 173.307 140.348 174.147 141.122 175.16V171.96H145.722V194H141.122V190.72C140.348 191.76 139.295 192.627 137.962 193.32C136.628 194.013 135.108 194.36 133.402 194.36C131.508 194.36 129.775 193.88 128.202 192.92C126.628 191.933 125.375 190.573 124.442 188.84C123.535 187.08 123.082 185.093 123.082 182.88ZM141.122 182.96C141.122 181.44 140.802 180.12 140.162 179C139.548 177.88 138.735 177.027 137.722 176.44C136.708 175.853 135.615 175.56 134.442 175.56C133.268 175.56 132.175 175.853 131.162 176.44C130.148 177 129.322 177.84 128.682 178.96C128.068 180.053 127.762 181.36 127.762 182.88C127.762 184.4 128.068 185.733 128.682 186.88C129.322 188.027 130.148 188.907 131.162 189.52C132.202 190.107 133.295 190.4 134.442 190.4C135.615 190.4 136.708 190.107 137.722 189.52C138.735 188.933 139.548 188.08 140.162 186.96C140.802 185.813 141.122 184.48 141.122 182.96ZM160.591 171.6C162.298 171.6 163.804 171.947 165.111 172.64C166.444 173.307 167.484 174.147 168.231 175.16V171.96H172.831V194.36C172.831 196.387 172.404 198.187 171.551 199.76C170.698 201.36 169.458 202.613 167.831 203.52C166.231 204.427 164.311 204.88 162.071 204.88C159.084 204.88 156.604 204.173 154.631 202.76C152.658 201.373 151.538 199.48 151.271 197.08H155.791C156.138 198.227 156.871 199.147 157.991 199.84C159.138 200.56 160.498 200.92 162.071 200.92C163.911 200.92 165.391 200.36 166.511 199.24C167.658 198.12 168.231 196.493 168.231 194.36V190.68C167.458 191.72 166.404 192.6 165.071 193.32C163.764 194.013 162.271 194.36 160.591 194.36C158.671 194.36 156.911 193.88 155.311 192.92C153.738 191.933 152.484 190.573 151.551 188.84C150.644 187.08 150.191 185.093 150.191 182.88C150.191 180.667 150.644 178.707 151.551 177C152.484 175.293 153.738 173.973 155.311 173.04C156.911 172.08 158.671 171.6 160.591 171.6ZM168.231 182.96C168.231 181.44 167.911 180.12 167.271 179C166.658 177.88 165.844 177.027 164.831 176.44C163.818 175.853 162.724 175.56 161.551 175.56C160.378 175.56 159.284 175.853 158.271 176.44C157.258 177 156.431 177.84 155.791 178.96C155.178 180.053 154.871 181.36 154.871 182.88C154.871 184.4 155.178 185.733 155.791 186.88C156.431 188.027 157.258 188.907 158.271 189.52C159.311 190.107 160.404 190.4 161.551 190.4C162.724 190.4 163.818 190.107 164.831 189.52C165.844 188.933 166.658 188.08 167.271 186.96C167.911 185.813 168.231 184.48 168.231 182.96ZM199.02 182.44C199.02 183.267 198.967 184.013 198.86 184.68H182.02C182.154 186.44 182.807 187.853 183.98 188.92C185.154 189.987 186.594 190.52 188.3 190.52C190.754 190.52 192.487 189.493 193.5 187.44H198.42C197.754 189.467 196.54 191.133 194.78 192.44C193.047 193.72 190.887 194.36 188.3 194.36C186.194 194.36 184.3 193.893 182.62 192.96C180.967 192 179.66 190.667 178.7 188.96C177.767 187.227 177.3 185.227 177.3 182.96C177.3 180.693 177.754 178.707 178.66 177C179.594 175.267 180.887 173.933 182.54 173C184.22 172.067 186.14 171.6 188.3 171.6C190.38 171.6 192.234 172.053 193.86 172.96C195.487 173.867 196.754 175.147 197.66 176.8C198.567 178.427 199.02 180.307 199.02 182.44ZM194.26 181C194.234 179.32 193.634 177.973 192.46 176.96C191.287 175.947 189.834 175.44 188.1 175.44C186.527 175.44 185.18 175.947 184.06 176.96C182.94 177.947 182.274 179.293 182.06 181H194.26ZM54.0373 240.32H42.3973L40.3973 246H35.6373L45.5973 218.16H50.8773L60.8373 246H56.0373L54.0373 240.32ZM52.7573 236.6L48.2373 223.68L43.6773 236.6H52.7573ZM73.688 241.92L79.928 223.96H84.768L76.368 246H70.928L62.568 223.96H67.448L73.688 241.92ZM86.6948 234.88C86.6948 232.667 87.1482 230.707 88.0548 229C88.9882 227.293 90.2415 225.973 91.8148 225.04C93.4148 224.08 95.1748 223.6 97.0948 223.6C98.8282 223.6 100.335 223.947 101.615 224.64C102.922 225.307 103.962 226.147 104.735 227.16V223.96H109.335V246H104.735V242.72C103.962 243.76 102.908 244.627 101.575 245.32C100.242 246.013 98.7215 246.36 97.0148 246.36C95.1215 246.36 93.3882 245.88 91.8148 244.92C90.2415 243.933 88.9882 242.573 88.0548 240.84C87.1482 239.08 86.6948 237.093 86.6948 234.88ZM104.735 234.96C104.735 233.44 104.415 232.12 103.775 231C103.162 229.88 102.348 229.027 101.335 228.44C100.322 227.853 99.2282 227.56 98.0548 227.56C96.8815 227.56 95.7882 227.853 94.7748 228.44C93.7615 229 92.9348 229.84 92.2948 230.96C91.6815 232.053 91.3748 233.36 91.3748 234.88C91.3748 236.4 91.6815 237.733 92.2948 238.88C92.9348 240.027 93.7615 240.907 94.7748 241.52C95.8148 242.107 96.9082 242.4 98.0548 242.4C99.2282 242.4 100.322 242.107 101.335 241.52C102.348 240.933 103.162 240.08 103.775 238.96C104.415 237.813 104.735 236.48 104.735 234.96ZM117.644 221.04C116.818 221.04 116.124 220.76 115.564 220.2C115.004 219.64 114.724 218.947 114.724 218.12C114.724 217.293 115.004 216.6 115.564 216.04C116.124 215.48 116.818 215.2 117.644 215.2C118.444 215.2 119.124 215.48 119.684 216.04C120.244 216.6 120.524 217.293 120.524 218.12C120.524 218.947 120.244 219.64 119.684 220.2C119.124 220.76 118.444 221.04 117.644 221.04ZM119.884 223.96V246H115.324V223.96H119.884ZM130.431 216.4V246H125.871V216.4H130.431ZM134.898 234.88C134.898 232.667 135.351 230.707 136.258 229C137.191 227.293 138.445 225.973 140.018 225.04C141.618 224.08 143.378 223.6 145.298 223.6C147.031 223.6 148.538 223.947 149.818 224.64C151.125 225.307 152.165 226.147 152.938 227.16V223.96H157.538V246H152.938V242.72C152.165 243.76 151.111 244.627 149.778 245.32C148.445 246.013 146.925 246.36 145.218 246.36C143.325 246.36 141.591 245.88 140.018 244.92C138.445 243.933 137.191 242.573 136.258 240.84C135.351 239.08 134.898 237.093 134.898 234.88ZM152.938 234.96C152.938 233.44 152.618 232.12 151.978 231C151.365 229.88 150.551 229.027 149.538 228.44C148.525 227.853 147.431 227.56 146.258 227.56C145.085 227.56 143.991 227.853 142.978 228.44C141.965 229 141.138 229.84 140.498 230.96C139.885 232.053 139.578 233.36 139.578 234.88C139.578 236.4 139.885 237.733 140.498 238.88C141.138 240.027 141.965 240.907 142.978 241.52C144.018 242.107 145.111 242.4 146.258 242.4C147.431 242.4 148.525 242.107 149.538 241.52C150.551 240.933 151.365 240.08 151.978 238.96C152.618 237.813 152.938 236.48 152.938 234.96ZM168.087 227.24C168.861 226.173 169.914 225.307 171.247 224.64C172.607 223.947 174.114 223.6 175.767 223.6C177.714 223.6 179.474 224.067 181.047 225C182.621 225.933 183.861 227.267 184.767 229C185.674 230.707 186.127 232.667 186.127 234.88C186.127 237.093 185.674 239.08 184.767 240.84C183.861 242.573 182.607 243.933 181.007 244.92C179.434 245.88 177.687 246.36 175.767 246.36C174.061 246.36 172.541 246.027 171.207 245.36C169.901 244.693 168.861 243.84 168.087 242.8V246H163.527V216.4H168.087V227.24ZM181.487 234.88C181.487 233.36 181.167 232.053 180.527 230.96C179.914 229.84 179.087 229 178.047 228.44C177.034 227.853 175.941 227.56 174.767 227.56C173.621 227.56 172.527 227.853 171.487 228.44C170.474 229.027 169.647 229.88 169.007 231C168.394 232.12 168.087 233.44 168.087 234.96C168.087 236.48 168.394 237.813 169.007 238.96C169.647 240.08 170.474 240.933 171.487 241.52C172.527 242.107 173.621 242.4 174.767 242.4C175.941 242.4 177.034 242.107 178.047 241.52C179.087 240.907 179.914 240.027 180.527 238.88C181.167 237.733 181.487 236.4 181.487 234.88ZM195.197 216.4V246H190.637V216.4H195.197ZM221.384 234.44C221.384 235.267 221.33 236.013 221.224 236.68H204.384C204.517 238.44 205.17 239.853 206.344 240.92C207.517 241.987 208.957 242.52 210.664 242.52C213.117 242.52 214.85 241.493 215.864 239.44H220.784C220.117 241.467 218.904 243.133 217.144 244.44C215.41 245.72 213.25 246.36 210.664 246.36C208.557 246.36 206.664 245.893 204.984 244.96C203.33 244 202.024 242.667 201.064 240.96C200.13 239.227 199.664 237.227 199.664 234.96C199.664 232.693 200.117 230.707 201.024 229C201.957 227.267 203.25 225.933 204.904 225C206.584 224.067 208.504 223.6 210.664 223.6C212.744 223.6 214.597 224.053 216.224 224.96C217.85 225.867 219.117 227.147 220.024 228.8C220.93 230.427 221.384 232.307 221.384 234.44ZM216.624 233C216.597 231.32 215.997 229.973 214.824 228.96C213.65 227.947 212.197 227.44 210.464 227.44C208.89 227.44 207.544 227.947 206.424 228.96C205.304 229.947 204.637 231.293 204.424 233H216.624ZM231.591 218.2L231.071 237.6H227.271L226.751 218.2H231.591ZM229.311 246.28C228.484 246.28 227.791 246 227.231 245.44C226.671 244.88 226.391 244.187 226.391 243.36C226.391 242.533 226.671 241.84 227.231 241.28C227.791 240.72 228.484 240.44 229.311 240.44C230.111 240.44 230.791 240.72 231.351 241.28C231.911 241.84 232.191 242.533 232.191 243.36C232.191 244.187 231.911 244.88 231.351 245.44C230.791 246 230.111 246.28 229.311 246.28Z" fill="#313131"/>
</svg>
