<svg width="24" height="24" viewBox="0 0 24 24" fill="none" xmlns="http://www.w3.org/2000/svg">
<path d="M12 23C18.0751 23 23 18.0751 23 12C23 5.92487 18.0751 1 12 1C5.92487 1 1 5.92487 1 12C1 18.0751 5.92487 23 12 23Z" fill="#2196F3"/>
<path d="M12 8.29309C12.7594 8.29309 13.375 7.67748 13.375 6.91809C13.375 6.1587 12.7594 5.54309 12 5.54309C11.2406 5.54309 10.625 6.1587 10.625 6.91809C10.625 7.67748 11.2406 8.29309 12 8.29309Z" fill="white"/>
<path d="M12.0008 18.4681C11.709 18.4681 11.4293 18.3522 11.223 18.1459C11.0167 17.9396 10.9008 17.6598 10.9008 17.3681V11.8681C10.609 11.8681 10.3293 11.7522 10.123 11.5459C9.91667 11.3396 9.80078 11.0598 9.80078 10.7681C9.80078 10.4764 9.91667 10.1966 10.123 9.99027C10.3293 9.78398 10.609 9.66809 10.9008 9.66809H12.0008C12.2925 9.66809 12.5723 9.78398 12.7786 9.99027C12.9849 10.1966 13.1008 10.4764 13.1008 10.7681V17.3681C13.1008 17.6598 12.9849 17.9396 12.7786 18.1459C12.5723 18.3522 12.2925 18.4681 12.0008 18.4681Z" fill="white"/>
<path d="M13.1008 18.4681H10.9008C10.609 18.4681 10.3293 18.3522 10.123 18.1459C9.91667 17.9396 9.80078 17.6598 9.80078 17.3681C9.80078 17.0763 9.91667 16.7965 10.123 16.5902C10.3293 16.384 10.609 16.2681 10.9008 16.2681H13.1008C13.3925 16.2681 13.6723 16.384 13.8786 16.5902C14.0849 16.7965 14.2008 17.0763 14.2008 17.3681C14.2008 17.6598 14.0849 17.9396 13.8786 18.1459C13.6723 18.3522 13.3925 18.4681 13.1008 18.4681Z" fill="white"/>
</svg>
