<svg width="20" height="20" viewBox="0 0 20 20" fill="none" xmlns="http://www.w3.org/2000/svg">
<path d="M16.0818 10.087V5.26043C16.0818 5.13473 16.0047 5.02191 15.8875 4.97634L8.2861 2.02075C8.21504 1.99308 8.13621 1.99308 8.06515 2.02075L0.463886 4.97634C0.346725 5.02191 0.269531 5.13473 0.269531 5.26043V14.0377C0.269531 14.1634 0.346686 14.2762 0.463886 14.3218L8.06518 17.2774C8.10073 17.2912 8.13819 17.2981 8.17564 17.2981C8.21309 17.2981 8.25059 17.2912 8.2861 17.2774L12.2057 15.7534C12.8463 17.0815 14.2064 18 15.777 18C17.9618 18 19.7393 16.2225 19.7393 14.0377C19.7393 11.9554 18.1248 10.2431 16.0818 10.087ZM8.17564 7.889L6.50036 7.23762C8.75387 6.36152 11.0072 5.4853 13.2606 4.60905L14.9359 5.26043L8.17564 7.889ZM3.93172 6.23883L10.6918 3.61018L12.4196 4.28199C10.1661 5.15824 7.91274 6.0345 5.65931 6.91056L3.93172 6.23883ZM3.39548 6.68439L5.3545 7.44611V8.90681L4.51688 8.19336C4.43725 8.12557 4.32858 8.10332 4.22872 8.13434L3.39552 8.39347L3.39548 6.68439ZM8.17564 2.63185L9.85069 3.28316L3.09067 5.91181L1.41543 5.26043L8.17564 2.63185ZM0.879153 5.70599L2.78586 6.44736V8.67042C2.78586 8.79905 2.84762 8.92132 2.95103 8.99741C3.05451 9.0735 3.18951 9.09606 3.31215 9.05784L4.24945 8.76636L5.29518 9.65702C5.36993 9.72073 5.464 9.75387 5.55895 9.75387C5.61652 9.75387 5.6744 9.74168 5.72843 9.71676C5.87161 9.65066 5.96416 9.50603 5.96416 9.34821V7.68318L7.87087 8.42456V16.5477L0.879153 13.8292V5.70599ZM8.48045 16.5478V8.42456L15.4722 5.70599V10.087C13.4292 10.2431 11.8147 11.9554 11.8147 14.0377C11.8147 14.4366 11.8742 14.8219 11.9844 15.1853L8.48045 16.5478ZM15.777 17.3904C13.9283 17.3904 12.4243 15.8864 12.4243 14.0377C12.4243 12.189 13.9283 10.685 15.777 10.685C17.6257 10.685 19.1297 12.189 19.1297 14.0377C19.1297 15.8864 17.6257 17.3904 15.777 17.3904ZM18.1272 12.1542C17.9694 11.9965 17.7598 11.9097 17.5368 11.9097C17.3138 11.9097 17.1041 11.9965 16.9463 12.1542L15.0214 14.0792L14.4945 13.4162C14.3354 13.216 14.0973 13.1012 13.8413 13.1012C13.6538 13.1012 13.4696 13.1655 13.3227 13.2824C13.1483 13.421 13.0383 13.6192 13.0131 13.8406C12.9878 14.0619 13.0502 14.2798 13.1888 14.4541L14.2716 15.8168C14.4284 16.0355 14.6818 16.1657 14.9515 16.1657C15.1741 16.1657 15.3834 16.0789 15.5411 15.9212L18.1272 13.335C18.4527 13.0095 18.4527 12.4798 18.1272 12.1542ZM17.6961 12.904L15.11 15.4901C15.0554 15.5447 14.9937 15.5561 14.9515 15.5561C14.8762 15.5561 14.8084 15.5208 14.7655 15.4593C14.7618 15.4541 14.7581 15.449 14.7541 15.4441L13.666 14.0749C13.6287 14.028 13.6119 13.9693 13.6187 13.9098C13.6255 13.8502 13.6551 13.7969 13.7021 13.7596C13.7527 13.7193 13.8058 13.7108 13.8413 13.7108C13.9104 13.7108 13.9745 13.7417 14.0173 13.7955L14.7567 14.726C14.8107 14.794 14.8912 14.8357 14.978 14.8407C15.065 14.8458 15.1494 14.8133 15.2108 14.7519L17.3773 12.5853C17.4199 12.5427 17.4766 12.5193 17.5368 12.5193C17.597 12.5193 17.6535 12.5427 17.6961 12.5853C17.784 12.6732 17.784 12.8161 17.6961 12.904Z" fill="#1A1A1A" stroke="#1A1A1A" stroke-width="0.2"/>
</svg>
