<svg width="24" height="24" viewBox="0 0 24 24" fill="none" xmlns="http://www.w3.org/2000/svg">
<g clip-path="url(#clip0_6675_2359)">
<path d="M19.6739 7.68626V18.1408H2.25V7.68626L10.9622 2.45923L19.6739 7.68626Z" fill="#FFA001"/>
<path d="M19.6766 7.68626V18.1408H10.9648V2.45923L19.6766 7.68626Z" fill="#F87F02"/>
<path d="M0 7.68613L2.2485 2.45886H10.9606L8.71209 7.68613H0Z" fill="#FFDA2D"/>
<path d="M21.9254 7.68613L19.6769 2.45886H10.9648L13.2133 7.68613H21.9254Z" fill="#FCBE00"/>
<path d="M5.05469 13.7599H6.46094V15.1661H5.05469V13.7599Z" fill="#FFDA2D"/>
<path d="M24.0006 16.3984C24.0006 19.2385 21.6981 21.541 18.858 21.541C16.0173 21.541 13.7148 19.2385 13.7148 16.3984C13.7148 13.5577 16.0173 11.2552 18.858 11.2552C21.6981 11.2552 24.0006 13.5577 24.0006 16.3984Z" fill="#83E470"/>
<path d="M23.9942 16.3984C23.9942 19.2385 21.6917 21.541 18.8516 21.541V11.2552C21.6917 11.2552 23.9942 13.5577 23.9942 16.3984Z" fill="#01B763"/>
<path d="M21.5506 15.5656L18.8595 18.2567L18.3931 18.7231L16.168 16.4979L17.1627 15.5037L18.3931 16.7342L18.8595 16.2678L20.5559 14.5714L21.5506 15.5656Z" fill="#F3FDFF"/>
<path d="M21.5427 15.5656L18.8516 18.2567V16.2678L20.548 14.5714L21.5427 15.5656Z" fill="#D7F3F7"/>
</g>
<defs>
<clipPath id="clip0_6675_2359">
<rect width="24" height="24" fill="white"/>
</clipPath>
</defs>
</svg>
