<svg width="20" height="20" viewBox="0 0 20 20" fill="none" xmlns="http://www.w3.org/2000/svg">
<path d="M17.9951 17.5761C17.7307 14.4457 16.2072 12.164 13.4037 10.7448C13.1672 10.6266 12.9237 10.5292 12.6733 10.4179C15.3864 8.32396 14.9481 4.93614 13.209 3.28048C12.3352 2.45005 11.1733 1.99105 9.96783 2.00013C8.7624 2.00922 7.60752 2.48567 6.74635 3.32918C4.97244 5.06831 4.70113 8.40048 7.33765 10.4318C5.99978 10.9101 4.81193 11.7332 3.89418 12.8179C2.69765 14.23 2.09244 15.8718 2.002 17.7153C1.98809 17.924 2.04374 18.0005 2.25939 17.9796C2.50242 17.9588 2.7468 17.9588 2.98983 17.9796C3.20548 18.0005 3.25418 17.9309 3.26113 17.7153C3.38635 15.4057 4.41592 13.5831 6.33592 12.324C10.489 9.59701 16.089 12.2266 16.6942 17.1587C16.729 17.4301 16.6177 17.8057 16.8124 17.9448C17.0072 18.084 17.355 17.9518 17.6264 17.9866C17.8977 18.0214 18.0159 17.8683 17.9951 17.5761ZM10.0229 9.97961C9.35471 9.98512 8.69997 9.79212 8.14164 9.42506C7.5833 9.058 7.14653 8.53343 6.88669 7.91784C6.62686 7.30225 6.55566 6.62337 6.68212 5.96726C6.80858 5.31116 7.12701 4.70738 7.59704 4.23247C8.06706 3.75756 8.66751 3.4329 9.32228 3.29966C9.97704 3.16642 10.6566 3.2306 11.2749 3.48406C11.8931 3.73751 12.4222 4.16884 12.795 4.72334C13.1678 5.27785 13.3676 5.93056 13.369 6.59874C13.369 7.48941 13.0176 8.34412 12.3911 8.97717C11.7645 9.61021 10.9135 9.97045 10.0229 9.97961Z" fill="#1A1A1A"/>
</svg>
