<svg width="58" height="58" viewBox="0 0 58 58" fill="none" xmlns="http://www.w3.org/2000/svg">
<g opacity="0.4">
<path opacity="0.4" d="M50.3637 32.1897L44.1528 44.5872C43.742 45.4088 42.8962 45.9163 42.002 45.9163H35.7912C34.897 45.9163 34.317 44.9738 34.7037 44.1763L41.0837 31.4163H35.042C33.0362 31.4163 31.417 29.7972 31.417 27.7913V15.708C31.417 13.7022 33.0362 12.083 35.042 12.083H47.1253C49.1312 12.083 50.7503 13.7022 50.7503 15.708V30.5705C50.7503 31.1263 50.6295 31.6822 50.3637 32.1897Z" fill="#FD9C02"/>
<path d="M26.1967 32.1897L19.9858 44.5872C19.575 45.4088 18.7292 45.9163 17.835 45.9163H11.6242C10.73 45.9163 10.15 44.9738 10.5367 44.1763L16.9167 31.4163H10.875C8.86917 31.4163 7.25 29.7972 7.25 27.7913V15.708C7.25 13.7022 8.86917 12.083 10.875 12.083H22.9583C24.9642 12.083 26.5833 13.7022 26.5833 15.708V30.5705C26.5833 31.1263 26.4625 31.6822 26.1967 32.1897Z" fill="#FD9C02"/>
</g>
</svg>
