<svg width="39" height="27" viewBox="0 0 39 27" fill="none" xmlns="http://www.w3.org/2000/svg">
<g opacity="0.2">
<path d="M29.9243 17.0986C31.1281 17.0986 32.2728 16.8464 33.3116 16.3958C31.8608 19.63 29.6174 22.3667 27.0065 23.7876C26.1772 24.239 25.8703 25.2768 26.3217 26.107C26.7731 26.9363 27.811 27.2432 28.6411 26.7918C34.3383 23.6918 38.4736 16.0197 38.4736 8.54929C38.4736 3.83521 34.6384 -3.35285e-07 29.9244 -7.47402e-07C25.2103 -1.15952e-06 21.3751 3.83521 21.3751 8.54929C21.3751 13.2634 25.2094 17.0986 29.9243 17.0986Z" fill="#1A1A1A"/>
<path d="M8.54932 17.0975C9.75221 17.0975 10.897 16.8453 11.9374 16.3939C10.4866 19.6289 8.24325 22.3654 5.63143 23.7863C4.80215 24.2376 4.49523 25.2755 4.94663 26.1056C5.39718 26.934 6.43507 27.2409 7.26606 26.7904C12.9633 23.6905 17.0986 16.0186 17.0986 8.54852C17.0986 3.83459 13.2634 -0.000488617 8.54932 -0.000489029C3.83523 -0.000489441 2.02501e-06 3.83459 1.61291e-06 8.54851C1.20081e-06 13.2624 3.83522 17.0975 8.54932 17.0975Z" fill="#1A1A1A"/>
</g>
</svg>
