<svg width="24" height="24" viewBox="0 0 24 24" fill="none" xmlns="http://www.w3.org/2000/svg">
<g clip-path="url(#clip0_6675_2427)">
<path d="M23.9692 23.5113L20.5108 15.1391C20.4564 15.0075 20.3288 14.9218 20.1873 14.9218H3.8128C3.67129 14.9218 3.54365 15.0075 3.48932 15.1391L0.030835 23.5113C-0.0142118 23.6203 -0.00221185 23.7447 0.0628507 23.8429C0.127866 23.9411 0.237226 24 0.354366 24H23.6457C23.7628 24 23.8722 23.941 23.9372 23.8429C24.0022 23.7448 24.0142 23.6203 23.9692 23.5113Z" fill="#A8EEFC"/>
<path d="M22.5313 24H23.647C23.7641 24 23.8735 23.941 23.9385 23.8429C24.0035 23.7448 24.0155 23.6203 23.9705 23.5113L20.5121 15.1391C20.4577 15.0075 20.3301 14.9218 20.1886 14.9218H18.7812L22.5313 24Z" fill="#7EE5F2"/>
<path d="M5.77411 18.0792L6.9675 14.9138H3.7913C3.64978 14.9138 3.52214 14.9996 3.46781 15.1312L2.25 18.0792H5.77411Z" fill="#4CE166"/>
<path d="M20.1653 14.9138H9.13672L12.3534 17.7188H21.5577L20.4888 15.1312C20.4344 14.9996 20.3068 14.9138 20.1653 14.9138Z" fill="#4CE166"/>
<path d="M21.6406 17.9188L21.7069 18.0792L21.6406 17.9188Z" fill="#4CE166"/>
<path d="M22.6222 20.2936L21.5588 17.7189H12.3544L9.13777 14.9139H6.97992H6.70533L5.54095 17.7182H2.39981L1.69425 19.4261L1.33594 20.2936H4.48041L2.95261 23.9922H5.811L8.26491 17.984L15.3414 23.9922H19.5193L15.2901 20.2936H22.6222Z" fill="#FFDB56"/>
<path d="M11.9788 0C7.80541 0 4.41016 3.4208 4.41016 7.62553C4.41016 9.07509 4.80166 10.613 5.57392 12.1965C6.18498 13.4497 7.03525 14.7353 8.10095 16.0178C9.90902 18.1935 11.6894 19.5903 11.7643 19.6488C11.8275 19.698 11.9031 19.7226 11.9788 19.7226C12.0544 19.7226 12.1301 19.698 12.1932 19.6488C12.2681 19.5903 14.0485 18.1935 15.8566 16.0178C16.9224 14.7353 17.7726 13.4497 18.3836 12.1965C19.1559 10.613 19.5474 9.07509 19.5474 7.62553C19.5474 3.4208 16.1522 0 11.9788 0ZM11.9788 4.72491C13.5688 4.72491 14.8577 6.02358 14.8577 7.62553C14.8577 9.22748 13.5688 10.5262 11.9788 10.5262C10.3888 10.5262 9.09981 9.22748 9.09981 7.62553C9.09981 6.02358 10.3888 4.72491 11.9788 4.72491Z" fill="#FF4A4A"/>
<path d="M11.9765 0C11.7275 0 11.4812 0.0125625 11.2383 0.0363281C15.0665 0.411422 18.0687 3.67172 18.0687 7.62553C18.0687 9.07509 17.6772 10.613 16.9049 12.1965C16.2938 13.4497 15.4436 14.7353 14.3779 16.0178C13.1378 17.51 11.911 18.6356 11.2383 19.2145C11.5465 19.4798 11.7385 19.6304 11.762 19.6487C11.8252 19.698 11.9008 19.7225 11.9765 19.7225C12.0521 19.7225 12.1278 19.6979 12.1909 19.6487C12.2658 19.5903 14.0462 18.1935 15.8543 16.0178C16.92 14.7353 17.7703 13.4497 18.3813 12.1965C19.1536 10.6129 19.5451 9.07505 19.5451 7.62548C19.5451 3.4208 16.1499 0 11.9765 0Z" fill="#E7343F"/>
<path d="M5.80859 23.9922H15.339L8.2625 17.984L5.80859 23.9922Z" fill="#4CE166"/>
<path d="M19.918 17.7189L20.9815 20.2935H22.6225L21.559 17.7189H19.918Z" fill="#FFBB24"/>
<path d="M19.9165 17.7188H21.5575L20.4886 15.1313C20.4343 14.9997 20.3067 14.9139 20.1651 14.9139H18.7578L19.9165 17.7188Z" fill="#44C868"/>
</g>
<defs>
<clipPath id="clip0_6675_2427">
<rect width="24" height="24" fill="white"/>
</clipPath>
</defs>
</svg>
