<svg width="250" height="228" viewBox="0 0 250 228" fill="none" xmlns="http://www.w3.org/2000/svg">
<path d="M125.001 225.479C95.3019 225.479 66.8196 213.681 45.8194 192.681C24.8193 171.681 13.0215 143.199 13.0215 113.5C13.0215 83.8013 24.8193 55.3189 45.8194 34.3187C66.8196 13.3186 95.3019 1.5208 125.001 1.5208C142.451 1.46304 159.664 5.5698 175.209 13.5C176.126 13.9651 176.941 14.6061 177.61 15.3866C178.279 16.167 178.787 17.0715 179.107 18.0485C179.426 19.0254 179.55 20.0557 179.471 21.0804C179.392 22.1051 179.112 23.1043 178.646 24.0208C178.181 24.9373 177.54 25.7533 176.76 26.422C175.979 27.0908 175.075 27.5993 174.098 27.9185C173.121 28.2377 172.091 28.3613 171.066 28.2824C170.041 28.2034 169.042 27.9234 168.126 27.4583C154.791 20.5858 140.002 17.0135 125.001 17.0416C105.948 17.0416 87.3231 22.6901 71.48 33.273C55.6369 43.856 43.2869 58.8983 35.991 76.4986C28.6952 94.099 26.7809 113.467 30.4904 132.155C34.1998 150.843 43.3663 168.012 56.8312 181.492C70.2962 194.971 87.4551 204.156 106.139 207.886C124.823 211.615 144.193 209.722 161.802 202.445C179.41 195.168 194.466 182.835 205.066 167.003C215.666 151.171 221.334 132.553 221.355 113.5C221.409 112.633 221.409 111.763 221.355 110.896C221.161 108.824 221.799 106.76 223.127 105.158C224.456 103.556 226.366 102.548 228.438 102.354C230.51 102.161 232.574 102.798 234.176 104.127C235.778 105.455 236.786 107.365 236.98 109.437V113.5C236.952 143.19 225.146 171.657 204.151 192.651C183.157 213.645 154.691 225.452 125.001 225.479Z" fill="#00C24B"/>
<path d="M123.126 149.021C122.114 149.036 121.109 148.84 120.177 148.445C119.244 148.051 118.404 147.466 117.71 146.729L67.3971 97.3542C65.9341 95.8893 65.1123 93.9036 65.1123 91.8333C65.1123 89.763 65.9341 87.7773 67.3971 86.3125C68.8926 84.8677 70.8907 84.0602 72.97 84.0602C75.0494 84.0602 77.0475 84.8677 78.5429 86.3125L123.23 130.375L223.751 31.5208C225.247 30.0761 227.245 29.2686 229.324 29.2686C231.404 29.2686 233.402 30.0761 234.897 31.5208C236.36 32.9857 237.182 34.9713 237.182 37.0417C237.182 39.112 236.36 41.0976 234.897 42.5625L128.855 146.729C128.11 147.485 127.216 148.079 126.23 148.473C125.244 148.868 124.188 149.054 123.126 149.021Z" fill="#00C24B"/>
</svg>
