<svg width="44" height="44" viewBox="0 0 44 44" fill="none" xmlns="http://www.w3.org/2000/svg">
<circle cx="22" cy="22" r="22" fill="url(#paint0_linear_625_22)"/>
<circle cx="22" cy="22" r="21.5" stroke="white" stroke-opacity="0.3"/>
<path d="M28.0001 30C27.6161 30 27.2321 29.854 26.9391 29.561L22.0011 24.622L17.0611 29.561C16.4751 30.147 15.5261 30.147 14.9401 29.561C14.3541 28.975 14.3541 28.025 14.9401 27.44L20.9411 21.44C21.2221 21.159 21.6041 21.001 22.0021 21.001C22.3991 21.001 22.7811 21.159 23.0631 21.44L29.0621 27.44C29.6481 28.026 29.6481 28.976 29.0621 29.561C28.7691 29.854 28.3841 30 28.0001 30ZM29.0671 22.292C29.6491 21.703 29.6431 20.753 29.0531 20.171L25.1311 16.298C24.2941 15.461 23.1831 15 21.9991 15C20.8151 15 19.7041 15.461 18.8751 16.291L14.9451 20.171C14.3551 20.753 14.3491 21.703 14.9311 22.292C15.5121 22.882 16.4641 22.887 17.0521 22.306L20.9901 18.419C21.5271 17.88 22.4631 17.873 23.0151 18.426L26.9451 22.306C27.2371 22.595 27.6181 22.739 27.9991 22.739C28.3861 22.739 28.7731 22.59 29.0661 22.293L29.0671 22.292Z" fill="white"/>
<defs>
<linearGradient id="paint0_linear_625_22" x1="2" y1="2" x2="41.5" y2="47.5" gradientUnits="userSpaceOnUse">
<stop stop-color="#B32EE5"/>
<stop offset="1" stop-color="#4F7BD9"/>
</linearGradient>
</defs>
</svg>
