<svg width="24" height="24" viewBox="0 0 24 24" fill="none" xmlns="http://www.w3.org/2000/svg">
<g clip-path="url(#clip0_6675_2487)">
<path d="M16.1233 23.9971H8.27491C5.77987 23.9971 3.75 21.9673 3.75 19.4722C3.75 16.9772 5.77987 14.9472 8.27491 14.9472H10.8839C11.6534 14.9472 12.2794 14.3212 12.2794 13.5517C12.2794 12.7821 11.6534 12.1561 10.8839 12.1561H8.15596V10.75H10.8839C12.4287 10.75 13.6855 12.0068 13.6855 13.5517C13.6855 15.0965 12.4287 16.3533 10.8839 16.3533H8.27491C6.55518 16.3533 5.15608 17.7524 5.15608 19.4722C5.15608 21.1919 6.55513 22.591 8.27491 22.591H16.1233V23.9971Z" fill="#0B799D"/>
<path d="M4.73045 0L3.79297 4.73001L4.7304 11.4191L8.07496 8.07452C8.93089 7.21859 9.46032 6.03608 9.46032 4.72997C9.46037 2.11765 7.34272 0 4.73045 0Z" fill="#E50058"/>
<path d="M0 4.72992C0 6.03603 0.529437 7.21855 1.38537 8.07448L4.72992 11.419V0C2.1177 0 0 2.11765 0 4.72992Z" fill="#FF415B"/>
<path d="M4.7304 1.40601L3.79297 4.72994L4.7304 8.05387C6.56319 8.05387 8.05434 6.56277 8.05434 4.72994C8.05434 2.89711 6.56319 1.40601 4.7304 1.40601Z" fill="#FF415B"/>
<path d="M1.40625 4.72994C1.40625 6.56277 2.89735 8.05387 4.73018 8.05387V1.40601C2.89735 1.40601 1.40625 2.89711 1.40625 4.72994Z" fill="#FF7C48"/>
<path d="M6.64821 4.73011C6.64821 3.67259 5.78787 2.81226 4.7304 2.81226L3.79297 4.73011L4.7304 6.64795C5.78787 6.64795 6.64821 5.78762 6.64821 4.73011Z" fill="#E1EBF0"/>
<path d="M2.8125 4.73011C2.8125 5.78762 3.67283 6.64795 4.73035 6.64795V2.81226C3.67283 2.81226 2.8125 3.67259 2.8125 4.73011Z" fill="#FFF5F5"/>
<path d="M20.246 14.9473L19.3086 19.4736L20.246 24L22.8975 21.3486C23.6057 20.6403 23.9958 19.6986 23.9958 18.6971C23.9958 16.6294 22.3137 14.9473 20.246 14.9473Z" fill="#E50058"/>
<path d="M16.4961 18.697C16.4961 19.6986 16.8861 20.6403 17.5943 21.3485L20.2458 24V14.9473C18.1782 14.9473 16.4961 16.6294 16.4961 18.697Z" fill="#FF415B"/>
</g>
<defs>
<clipPath id="clip0_6675_2487">
<rect width="24" height="24" fill="white"/>
</clipPath>
</defs>
</svg>
