<svg width="24" height="24" viewBox="0 0 24 24" fill="none" xmlns="http://www.w3.org/2000/svg">
<g clip-path="url(#clip0_6669_6947)">
<path d="M4.24384 1.92139C2.96784 1.92139 1.92969 2.95574 1.92969 4.22711C1.92969 5.49849 2.9678 6.53284 4.2438 6.53284C5.5198 6.53284 6.55795 5.49849 6.55795 4.22711C6.55795 2.95574 5.51984 1.92139 4.24384 1.92139ZM4.24384 5.8838C3.32702 5.8838 2.58113 5.14061 2.58113 4.22711C2.58113 3.31361 3.32702 2.57042 4.24384 2.57042C5.16066 2.57042 5.90655 3.31361 5.90655 4.22711C5.90655 5.14061 5.16062 5.8838 4.24384 5.8838Z" fill="white"/>
<path d="M7.55357 4.22695C7.55357 2.40519 6.06609 0.923096 4.23775 0.923096C2.40932 0.923096 0.921875 2.40519 0.921875 4.22695C0.921875 7.12858 3.89125 9.87449 4.01766 9.98997L4.23775 10.191L4.24621 10.1833H5.54054V9.53426H4.91476C5.7783 8.62098 7.55357 6.47072 7.55357 4.22695ZM4.23775 9.29615C3.56338 8.61241 1.57332 6.40958 1.57332 4.22695C1.57327 2.76307 2.76854 1.57213 4.23775 1.57213C5.70691 1.57213 6.90222 2.76307 6.90222 4.22695C6.90217 6.40958 4.91211 8.61246 4.23775 9.29615Z" fill="white"/>
<path d="M19.4042 13.8782C17.9967 13.8782 16.8516 15.0191 16.8516 16.4215C16.8516 17.824 17.9967 18.9649 19.4042 18.9649C20.8117 18.9649 21.9568 17.8239 21.9568 16.4215C21.9568 15.0191 20.8117 13.8782 19.4042 13.8782ZM19.4042 18.3159C18.3559 18.3159 17.503 17.4661 17.503 16.4215C17.503 15.377 18.3559 14.5272 19.4042 14.5272C20.4525 14.5272 21.3054 15.377 21.3054 16.4215C21.3054 17.4661 20.4525 18.3159 19.4042 18.3159Z" fill="white"/>
<path d="M19.4011 12.7607C17.3749 12.7607 15.7266 14.4032 15.7266 16.422C15.7266 18.9974 17.8294 21.4656 18.7559 22.4281H18.0851V23.0771H19.3879V23.0366L19.4011 23.0486L19.6212 22.8475C19.7622 22.7187 23.0756 19.6547 23.0756 16.422C23.0756 14.4032 21.4272 12.7607 19.4011 12.7607ZM19.401 22.1547C18.6708 21.4203 16.378 18.915 16.378 16.422C16.378 14.761 17.7342 13.4098 19.4011 13.4098C21.0681 13.4098 22.4243 14.761 22.4243 16.422C22.4242 18.9115 20.1308 21.4197 19.401 22.1547Z" fill="white"/>
<path d="M8.86278 16.4312C8.46608 16.7012 8.13109 17.0408 7.86719 17.4406L8.41141 17.7973C8.6285 17.4685 8.90395 17.1891 9.23021 16.9671L8.86278 16.4312Z" fill="white"/>
<path d="M8.15045 9.53418H6.84766V10.1832H8.15045V9.53418Z" fill="white"/>
<path d="M14.6234 10.6479L14.1445 11.088C14.4117 11.3766 14.6117 11.7103 14.7389 12.0796L15.355 11.869C15.1984 11.414 14.9521 11.0032 14.6234 10.6479Z" fill="white"/>
<path d="M16.7794 22.428H15.4766V23.077H16.7794V22.428Z" fill="white"/>
<path d="M13.7924 15.2126C13.481 15.453 13.1303 15.6227 12.75 15.7169L12.9071 16.3467C13.3759 16.2306 13.808 16.0217 14.1914 15.7256L13.7924 15.2126Z" fill="white"/>
<path d="M14.1778 22.428H12.875V23.077H14.1778V22.428Z" fill="white"/>
<path d="M14.8708 13.2263C14.8384 13.6168 14.7268 13.9889 14.5391 14.3323L15.1111 14.6428C15.3425 14.2196 15.4801 13.761 15.52 13.2799L14.8708 13.2263Z" fill="white"/>
<path d="M7.91702 19.4385C7.91702 19.2491 7.93491 19.0595 7.97018 18.8752L7.33029 18.7537C7.28738 18.978 7.26562 19.2084 7.26562 19.4385C7.26562 19.6842 7.29038 19.9298 7.33923 20.1686L7.97752 20.0391C7.93739 19.8428 7.91702 19.6408 7.91702 19.4385Z" fill="white"/>
<path d="M12.0664 9.53418H12.0586V10.1832H12.0664C12.4588 10.1832 12.8383 10.2619 13.1944 10.4171L13.4554 9.82244C13.0165 9.63119 12.5491 9.53418 12.0664 9.53418Z" fill="white"/>
<path d="M10.9195 22.4277C10.7244 22.4277 10.5294 22.409 10.3399 22.3721L10.2148 23.009C10.4455 23.054 10.6825 23.0768 10.9195 23.0768H11.576V22.4277H10.9195Z" fill="white"/>
<path d="M8.42638 21.1101L7.88672 21.4736C8.15579 21.8702 8.49504 22.2056 8.89508 22.4704L9.25565 21.9299C8.92665 21.7121 8.64768 21.4363 8.42638 21.1101Z" fill="white"/>
<path d="M10.752 9.53418H9.44922V10.1832H10.752V9.53418Z" fill="white"/>
<path d="M10.9219 15.7991C10.6694 15.7991 10.4171 15.8249 10.1719 15.8759L10.305 16.5113C10.5065 16.4694 10.7141 16.4481 10.9219 16.4481H11.5361V15.7991H10.9219Z" fill="white"/>
</g>
<defs>
<clipPath id="clip0_6669_6947">
<rect width="24" height="24" fill="white"/>
</clipPath>
</defs>
</svg>
