<svg width="41" height="41" viewBox="0 0 41 41" fill="none" xmlns="http://www.w3.org/2000/svg">
<circle cx="20.0226" cy="20.7676" r="20" fill="#F61C0D"/>
<circle cx="20.0226" cy="20.7676" r="19.5" stroke="white" stroke-opacity="0.4"/>
<path d="M31.3299 15.3809C31.018 14.2165 30.1031 13.3016 28.9387 12.9897C27.2648 12.5426 21.2867 12.5322 20.6109 12.5322C19.9351 12.5322 13.957 12.5426 12.2831 12.9897C11.1187 13.3016 10.2038 14.2165 9.89191 15.3809C9.43445 17.086 9.43445 20.4545 9.43445 20.6001C9.43445 20.7456 9.43445 24.1142 9.89191 25.8192C10.1934 26.9629 11.1187 27.8674 12.2831 28.1793C13.957 28.6263 19.9351 28.6367 20.6109 28.6367C21.2867 28.6367 27.2648 28.6263 28.9387 28.1793C30.1031 27.8674 31.0284 26.9629 31.3299 25.8192C31.7874 24.1142 31.7874 20.7456 31.7874 20.6001C31.7874 20.4545 31.7874 17.086 31.3299 15.3809ZM29.8224 25.4138C29.656 26.0272 29.1778 26.5054 28.5332 26.6718C27.2856 27.0045 22.3888 27.0772 20.6109 27.0772C18.8331 27.0772 13.9362 27.0045 12.6886 26.6718C12.044 26.495 11.5658 26.0272 11.3994 25.4138C10.994 23.9062 10.994 20.6313 10.994 20.6001C10.994 20.5689 10.994 17.2939 11.3994 15.7864C11.5658 15.1626 12.0648 14.6636 12.6886 14.4972C13.9362 14.1645 18.8331 14.0917 20.6109 14.0917C22.3888 14.0917 27.2856 14.1645 28.5332 14.4972C29.157 14.6636 29.656 15.1626 29.8224 15.7864C30.2279 17.2939 30.2279 20.5689 30.2279 20.6001C30.2279 20.6313 30.2279 23.9062 29.8224 25.4138ZM18.5316 17.4603L23.7299 20.5793L18.5316 23.6983V17.4603Z" fill="white"/>
</svg>
