<svg width="1360" height="310" viewBox="0 0 1360 310" fill="none" xmlns="http://www.w3.org/2000/svg">
<rect width="1360" height="310" fill="#4C20CD"/>
<g opacity="0.03">
<mask id="mask0_6028_1391" style="mask-type:alpha" maskUnits="userSpaceOnUse" x="0" y="0" width="1360" height="310">
<rect width="1360" height="310" fill="#4C20CD"/>
</mask>
<g mask="url(#mask0_6028_1391)">
<path d="M684.992 -84.8747C678.078 -77.4907 672.637 -68.8542 668.962 -59.4292C655.354 -27.4493 663.008 11.5128 681.97 39.2993C697.084 61.447 720.016 72.3479 747.334 70.1392C754.102 69.5896 754.988 61.9966 748.871 59.961C717.563 49.3859 686.01 34.3527 682.132 -2.88934C680.005 -23.2457 683.893 -46.2688 694.825 -64.0196C711.171 -84.3759 724.199 -74.8492 743.222 -67.073C768.158 -56.447 793.095 -43.0423 814.327 -26.0345C823.395 -18.7469 833.207 -8.53822 842.622 0.204849C849.146 6.31176 854.704 0.28627 849.106 -6.57384C834.225 -24.8233 817.35 -42.1975 797.197 -60.9559C789.251 -68.9017 781.007 -76.6303 772.464 -84.1418L758.275 -95.5211C738.723 -106.809 731.812 -107.43 731.812 -107.43C702.295 -107.664 688.046 -88.2131 684.992 -84.8747Z" fill="white"/>
<path d="M361.764 -55.7244C353.743 -35.8769 362.903 -13.4747 382.212 -5.66801C401.55 2.12848 423.677 -7.63241 431.688 -27.4697C439.698 -47.3172 430.538 -69.7194 411.199 -77.5261C391.932 -85.3226 369.774 -75.5617 361.764 -55.7244ZM396.95 -51.7956C399.868 -51.7956 402.722 -50.93 405.149 -49.3084C407.576 -47.6867 409.467 -45.3817 410.584 -42.685C411.702 -39.9883 411.994 -37.0208 411.424 -34.158C410.855 -31.2952 409.449 -28.6655 407.385 -26.6015C405.321 -24.5375 402.692 -23.1319 399.829 -22.5624C396.966 -21.993 393.998 -22.2852 391.302 -23.4022C388.605 -24.5193 386.3 -26.4109 384.678 -28.8379C383.057 -31.2649 382.191 -34.1183 382.191 -37.0372C382.191 -40.9514 383.746 -44.7052 386.514 -47.473C389.282 -50.2407 393.035 -51.7956 396.95 -51.7956Z" fill="white"/>
<path d="M226.801 -71.857C210.587 -74.483 204.266 -8.75224 203.828 2.44377C203.61 6.4758 203.911 10.5192 204.724 14.4744C205.884 19.6348 211.014 20.8154 214.373 16.8663C215.569 15.4566 216.465 13.8187 217.009 12.052C224.134 -10.8388 232.388 -39.0222 234.21 -60.7119C234.648 -65.9232 232.256 -70.9308 226.801 -71.857Z" fill="white"/>
<path d="M471.251 51.7869C465.032 103.451 521.46 120.642 560.819 125.935C577.694 128.205 597.929 127.971 613.42 120.927C630.875 113.019 641.094 98.2198 629.206 79.8279C625.44 74.0059 619.364 67.7667 616.697 62.0058C611.608 51.0338 613.257 36.8148 616.31 25.0895C623.008 -0.579872 634.55 -44.7838 605.959 -62.8297C590.773 -72.4176 572.941 -65.0078 559.353 -55.7762C532.89 -37.7506 507.526 -14.5851 488.747 11.7765C480.014 24.0208 472.92 37.914 471.251 51.7869ZM554.559 -28.9974C563.445 -36.2544 573.766 -44.1018 585.929 -41.5471C598.285 -38.9415 604.86 -26.0355 605.745 -14.1474C607.15 4.85528 601.379 18.9928 593.969 35.8377C589.287 46.4739 587.537 59.5733 595.537 69.0593C600.31 74.7082 608.412 78.464 612.005 85.8533C616.911 95.9705 608.27 100.917 599.323 101.813C574.997 104.245 554.366 99.4412 528.788 92.9577C511.74 88.6422 493.877 79.5632 490.844 61.0593C485.572 28.9878 532.595 -11.0634 554.559 -28.9974Z" fill="white"/>
<path d="M1195.07 37.3341C1200.02 24.9574 1197.46 14.6944 1187.4 6.54504C1179.79 0.387238 1166.92 -1.59751 1157.45 -2.30998C1133.98 -3.97921 1112.01 -0.854496 1099.94 21.9955C1099.61 22.859 1099.63 23.8176 1100.01 24.6622C1102.56 32.703 1113.63 19.7462 1116.62 17.6902C1130.87 7.92928 1150.52 5.89365 1166.49 11.3084C1173.12 13.5544 1177.75 16.6079 1180.36 20.4688C1189.22 33.558 1173.36 45.4766 1167.13 57.2528C1159.15 72.2148 1161.98 89.2429 1155.94 104.571C1149.89 119.9 1137.27 130.017 1121.39 134.404C1104.7 139.004 1088.5 135.686 1072.72 128.765C1063.68 124.795 1051.97 120.215 1050.77 108.826C1049.29 94.7187 1060.83 93.3447 1068.73 86.3421C1079.23 77.029 1085.87 58.922 1090.43 47.3799C1090.75 46.7393 1090.84 46.0097 1090.69 45.3095C1090.55 44.6093 1090.17 43.9796 1089.62 43.5224C1086.77 40.9575 1083.45 43.7362 1081.95 46.3418C1078.01 53.168 1074.05 59.9839 1070.08 66.7898C1066.74 72.5099 1062.26 79.3802 1055.83 81.8942C1055.54 81.9958 1055.22 81.9958 1054.92 81.8942C1049.35 80.286 1052.69 73.6702 1054.36 69.3343C1056.44 63.9059 1061.04 53.3478 1068.15 37.6598C1072.42 28.2042 1075.19 17.9243 1073.18 7.70536C1072.16 2.77911 1069.3 -3.25656 1067.77 -8.3253C1063.53 -22.4832 1072.18 -36.4171 1086.09 -40.8955C1095.86 -44.0406 1103.3 -40.2848 1111.85 -34.2492C1120.39 -28.2135 1128.59 -22.3509 1138.99 -19.5111C1146.42 -17.4755 1150.63 -24.5188 1144.08 -28.6715C1136.19 -33.6656 1126.93 -39.0465 1116.29 -44.8141C1105.61 -50.6055 1096.71 -54.0559 1085.65 -52.061C1065.42 -48.407 1052.39 -29.4247 1055.61 -8.91563C1057.21 1.26256 1062.56 10.372 1058.81 23.9701C1055.54 35.7666 1049.99 47.1051 1045.4 58.4437C1040.21 71.2439 1036.98 84.758 1035.83 98.5254C1034.77 111.126 1038.69 121.158 1047.61 128.622C1077.83 153.935 1125.1 157.121 1154.71 129.07C1166.56 117.874 1170.89 104.734 1173.18 88.8765C1174.36 80.7339 1174.93 72.0519 1178.27 64.2859C1182.34 54.464 1191.1 47.2273 1195.07 37.3341Z" fill="white"/>
<path d="M1033.88 -30.2892C1027.77 -58.9103 1002.15 -53.9331 993.392 -31.4393C986.654 -14.1364 985.728 7.64496 987.529 25.925C988.7 37.8437 996.924 69.0805 1016.29 58.4952C1024.09 54.2407 1029.09 42.0167 1031.48 33.4569C1037.21 12.9682 1038.37 -9.4137 1033.88 -30.2892ZM1020.65 31.4416C1019.34 36.4696 1015.9 48.0727 1008.73 47.0956C1002.62 46.261 1000.02 38.1083 999.153 32.8462C996.167 14.5904 996.449 -4.05083 999.987 -22.2077C1000.5 -24.9102 1001.61 -27.4631 1003.24 -29.6785C1006.71 -34.3706 1013.23 -32.5691 1016.07 -28.2535C1017.29 -26.3906 1018.25 -24.3748 1018.94 -22.2586C1024.73 -4.90659 1025.31 13.7632 1020.61 31.4416H1020.65Z" fill="white"/>
<path d="M105.853 -3.9177C128.732 -3.27416 151.182 2.44101 171.584 12.8152C174.271 14.1689 178.485 14.5557 180.744 12.0926C188.378 3.78718 163.024 -7.87702 157.558 -10.0755C124.072 -23.5616 84.3569 -21.1087 51.0436 -8.59968C33.9782 -2.17385 17.1774 4.9475 0.641226 12.7644C0.581813 12.7964 0.515357 12.8132 0.44784 12.8132C0.380324 12.8132 0.313868 12.7964 0.254455 12.7644C0.160139 12.7177 0.0741662 12.6558 0 12.5812L0 22.5049C33.5066 8.0315 69.0998 -5.01695 105.853 -3.9177Z" fill="white"/>
<path d="M802.479 -15.267C790.011 -24.5902 770.327 -4.44755 782.357 8.35661C787.609 13.9444 797.624 13.7103 803.731 10.3007C815.742 3.53215 811.396 -8.60025 802.479 -15.267Z" fill="white"/>
<path d="M1254.02 0.957933C1262.76 1.85361 1265.11 -6.83855 1256.76 -9.32203C1247.46 -12.0876 1237.99 -14.2699 1228.42 -15.8564C1226.45 -16.3023 1224.43 -16.3885 1222.43 -16.1109C1217.67 -14.8895 1215.9 -10.004 1219.01 -6.10572C1222.47 -1.77999 1247.85 0.326885 1254.02 0.957933Z" fill="white"/>
<path d="M523.292 73.8228C529.093 78.7592 540.595 81.5583 548.88 83.5837C554.987 85.0901 561.572 84.6015 559.618 75.8788C557.83 67.7996 558.861 59.352 562.539 51.9397C568.127 40.0312 585.246 9.64932 582.193 -1.62812C576.768 -21.6792 557.999 -5.38388 550.345 1.6289C539.994 11.0369 531.039 21.8739 523.75 33.8124C516.849 45.1916 511.068 63.4207 523.292 73.8228Z" fill="white"/>
<path d="M722.821 14.4764C728.622 13.2926 732.398 7.79117 731.255 2.18868C730.111 -3.4138 724.482 -6.99582 718.681 -5.81198C712.88 -4.62814 709.105 0.873254 710.248 6.47574C711.391 12.0782 717.021 15.6603 722.821 14.4764Z" fill="white"/>
<path d="M243.788 1.42623C242.851 8.30669 243.89 18.892 239.971 26.8717C238.129 30.6478 234.77 34.2305 231.778 37.5181C225.722 44.1848 223.828 55.2282 224.256 64.246C225.447 89.1724 246.709 110.333 270.994 113.386C293.02 116.104 314.221 103.931 326.14 85.6101C340.338 63.7677 332.247 43.5436 314.74 27.4315C308.274 21.4739 301.386 18.1829 294.078 17.5587C288.592 17.0905 281.803 16.7953 277.162 14.9836C267.727 11.3194 266.312 3.58401 260.816 -3.89696C254.251 -12.8232 245.05 -7.73415 243.788 1.42623ZM264.47 17.6299C271.096 24.6121 276.572 30.6885 286.516 31.9506C292.887 32.7547 298.73 33.8438 303.91 37.3451C313.61 43.8489 318.781 55.3299 316.369 66.8618C308.745 103.381 240.826 107.9 237.091 64.5514C236.548 58.4445 238.03 52.2765 241.539 46.0474C246.271 37.6606 250.271 32.8158 251.717 22.9124C252.171 19.8047 252.69 17.8097 253.274 16.9276C256.032 12.7037 261.457 14.4543 264.47 17.6299Z" fill="white"/>
<path d="M1335.66 1.42618C1336.12 -2.99116 1331.28 -2.6451 1328.43 -1.46443C1311.36 5.80959 1294.29 13.1074 1277.22 20.4289C1270.29 23.4111 1274.91 29.6503 1280.92 27.289C1297.49 20.7681 1313.92 13.8775 1330.2 6.61706C1332.44 5.62978 1335.38 4.24554 1335.66 1.42618Z" fill="white"/>
<path d="M353.59 7.08531C350.751 5.14203 347.565 3.76009 344.206 3.01403C333.936 1.02928 326.425 13.5281 336.379 19.5231C339.215 21.2398 344.79 24.3136 353.102 28.7445C370.975 38.2815 371.575 55.5539 358.191 69.5794C354.296 73.6507 350.432 77.7559 346.598 81.895C343.545 85.1724 342.405 89.1419 345.702 92.8366C348.328 95.7781 353.937 94.404 357.061 92.918C366.539 88.4575 374.648 81.5369 380.542 72.8772C398.548 46.7192 374.558 20.6936 353.59 7.08531Z" fill="white"/>
<path d="M84.3368 19.9615C84.2063 17.7916 83.4324 15.7097 82.1138 13.9815C80.7952 12.2532 78.9917 10.9569 76.9334 10.2579C74.875 9.55887 72.6551 9.48881 70.5567 10.0567C68.4584 10.6245 66.5767 11.8046 65.1518 13.4463C63.7269 15.088 62.8233 17.1169 62.5563 19.2742C62.2892 21.4316 62.6709 23.6196 63.6525 25.5592C64.6341 27.4987 66.1713 29.102 68.0678 30.1643C69.9644 31.2267 72.1344 31.7 74.3011 31.5239C77.1638 31.3179 79.828 29.985 81.7093 27.8174C83.5906 25.6499 84.5355 22.8247 84.3368 19.9615Z" fill="white"/>
<path d="M915.735 28.9754C919.343 24.5988 918.203 17.7002 913.189 13.5669C908.174 9.43354 901.185 9.63065 897.577 14.0072C893.97 18.3837 895.11 25.2824 900.124 29.4157C905.138 33.5491 912.127 33.3519 915.735 28.9754Z" fill="white"/>
<path d="M111.675 11.4103C109.234 11.9398 107.007 13.1875 105.28 14.993C103.554 16.7985 102.407 19.0792 101.987 21.5417C101.568 24.0043 101.894 26.5361 102.925 28.8115C103.956 31.0869 105.644 33.0019 107.772 34.3101C109.9 35.6183 112.371 36.26 114.867 36.1526C117.363 36.0452 119.769 35.1936 121.777 33.7074C123.785 32.2211 125.302 30.1682 126.134 27.8127C126.965 25.4571 127.073 22.9066 126.443 20.4892C126.075 18.9204 125.4 17.44 124.457 16.1332C123.514 14.8264 122.322 13.7192 120.949 12.8753C119.576 12.0313 118.05 11.4674 116.458 11.216C114.867 10.9646 113.241 11.0306 111.675 11.4103Z" fill="white"/>
<path d="M1333.68 29.9259C1328.66 33.5494 1334.8 37.6003 1339.22 35.5748C1350.53 30.3908 1360.11 26.1939 1367.95 22.9844V12.9487C1358.52 17.4068 1349.11 21.8784 1339.69 26.3636C1337.59 27.3722 1335.58 28.5643 1333.68 29.9259Z" fill="white"/>
<path d="M1210.19 22.6985C1210.31 27.1769 1215.4 28.2863 1219.09 28.2863C1226.05 28.2863 1251.6 28.1031 1255.98 23.1158C1260.36 18.1285 1256.17 13.874 1250.4 13.874C1240.39 13.874 1230.4 14.2574 1220.45 15.0242C1216.12 15.3499 1210.04 17.4669 1210.19 22.6985Z" fill="white"/>
<path d="M856.78 20.062C849.055 20.062 841.645 23.1311 836.182 28.594C830.719 34.0569 827.65 41.4662 827.65 49.192C827.65 54.9534 829.359 60.5853 832.56 65.3758C835.761 70.1662 840.31 73.8998 845.633 76.1046C850.956 78.3094 856.813 78.8862 862.463 77.7623C868.114 76.6383 873.305 73.8639 877.378 69.79C881.452 65.7161 884.227 60.5257 885.351 54.875C886.475 49.2243 885.898 43.3672 883.693 38.0444C881.488 32.7216 877.755 28.1722 872.964 24.9713C868.174 21.7705 862.542 20.062 856.78 20.062ZM866.959 43.8077C868.301 45.808 869.022 48.1605 869.03 50.5694C869.039 52.9783 868.335 55.336 867.007 57.3459C865.68 59.3558 863.787 60.9282 861.568 61.8653C859.349 62.8024 856.902 63.0623 854.536 62.6124C852.169 62.1625 849.988 61.0229 848.268 59.3369C846.547 57.6508 845.364 55.4937 844.866 53.1367C844.369 50.7798 844.579 48.3283 845.471 46.0906C846.363 43.853 847.897 41.9291 849.88 40.5609C852.578 38.7353 855.889 38.052 859.089 38.6604C862.289 39.2688 865.119 41.1194 866.959 43.8077Z" fill="white"/>
<path d="M756.023 31.7922C756.283 26.6554 751.906 22.2587 746.247 21.972C740.588 21.6853 735.79 25.6172 735.53 30.7541C735.27 35.891 739.646 40.2876 745.305 40.5742C750.964 40.8609 755.763 36.9291 756.023 31.7922Z" fill="white"/>
<path d="M150.465 31.2276C149.124 32.5609 148.213 34.2648 147.848 36.1201C147.484 37.9754 147.683 39.8974 148.42 41.6388C149.156 43.3801 150.397 44.8613 151.982 45.8917C153.568 46.9222 155.425 47.4548 157.316 47.4211C159.206 47.3873 161.043 46.7888 162.591 45.7025C164.138 44.6161 165.326 43.0916 166 41.3251C166.674 39.5585 166.804 37.6307 166.374 35.7896C165.943 33.9484 164.972 32.2781 163.584 30.9935C161.813 29.2858 159.436 28.3511 156.976 28.395C154.516 28.4389 152.174 29.4577 150.465 31.2276Z" fill="white"/>
<path d="M650.746 51.9487C656.101 51.3291 659.84 45.6211 659.097 39.1995C658.354 32.7779 653.41 28.0744 648.055 28.694C642.7 29.3136 638.961 35.0217 639.704 41.4433C640.447 47.8649 645.391 52.5683 650.746 51.9487Z" fill="white"/>
<path d="M30.8385 42.7406C31.2265 37.198 26.5102 32.3527 20.3043 31.9183C14.0984 31.4839 8.75308 35.6249 8.3651 41.1674C7.97712 46.71 12.6934 51.5553 18.8993 51.9897C25.1052 52.4241 30.4506 48.2831 30.8385 42.7406Z" fill="white"/>
<path d="M789.948 44.3186C790.501 39.9463 786.929 35.8941 781.971 35.2678C777.013 34.6415 772.546 37.6782 771.994 42.0505C771.442 46.4228 775.013 50.475 779.971 51.1014C784.929 51.7277 789.396 48.6909 789.948 44.3186Z" fill="white"/>
<path d="M1089.86 92.8973C1080.59 95.0245 1081.72 105.844 1090.88 105.895C1122.76 106.088 1134.45 77.3348 1126.25 50.4745C1124.9 46.0572 1121.4 38.4745 1116.52 37.2429C1112.45 36.2251 1110.47 40.7747 1111.64 44.0928C1114.39 51.63 1116.1 59.5051 1116.73 67.5027C1117.96 85.1415 1103.64 89.742 1089.86 92.8973Z" fill="white"/>
<path d="M1301.27 40.601C1296.75 42.1582 1280.64 47.8377 1280.45 53.3441C1280.32 56.7979 1281.93 58.9183 1285.27 59.7054C1289.75 60.7741 1306.34 54.3721 1309.88 51.0641C1316.79 44.601 1308.45 38.1378 1301.27 40.601Z" fill="white"/>
<path d="M1243.87 46.5157C1244.88 41.8134 1240.04 39.5741 1235.89 40.5818C1229.32 42.1696 1202.14 49.2129 1199.69 55.3096C1195.89 64.8059 1208.54 63.2384 1212.93 61.671C1221.43 58.6515 1229.84 55.3741 1238.15 51.8389C1240.61 50.8109 1243.3 49.2638 1243.87 46.5157Z" fill="white"/>
<path d="M189.366 51.8591C187.33 56.9482 190.567 62.9127 196.49 65.2638C202.414 67.615 208.877 65.4368 210.872 60.3885C212.867 55.3401 209.671 49.3349 203.747 46.9838C197.824 44.6326 191.35 46.8108 189.366 51.8591Z" fill="white"/>
<path d="M286.488 71.952C290.981 64.6776 288.994 55.3037 282.049 51.0147C275.105 46.7258 265.833 49.146 261.341 56.4204C256.848 63.6948 258.835 73.0687 265.78 77.3576C272.724 81.6465 281.996 79.2264 286.488 71.952Z" fill="white"/>
<path d="M1343.11 70.7929C1348.81 69.9305 1352.82 65.1357 1352.05 60.0834C1351.29 55.0311 1346.05 51.6346 1340.34 52.497C1334.64 53.3595 1330.64 58.1543 1331.4 63.2065C1332.17 68.2588 1337.41 71.6554 1343.11 70.7929Z" fill="white"/>
<path d="M123.746 55.7672C117.11 56.5814 112.326 62.1184 113.069 68.1235C113.812 74.1287 119.777 78.3017 126.413 77.5282C133.049 76.7546 137.833 71.177 137.09 65.1718C136.347 59.1667 130.383 54.9529 123.746 55.7672Z" fill="white"/>
<path d="M77.0489 85.5994C79.0846 79.7571 80.2042 70.1794 76.7538 64.6323C70.7384 55.0037 56.5602 58.2302 47.0843 60.4999C30.914 64.3648 15.1481 69.7599 0 76.612L0 96.7852C8.66504 92.4086 15.8101 88.9717 21.4353 86.4747C29.0995 83.0751 39.2166 81.2838 41.8426 91.9709C44.4685 102.658 36.387 114.302 30.0155 122.007C20.645 133.335 10.6229 144.108 0 154.272L0 175.412C13.3945 164.005 26.4735 152.253 39.2369 140.154C55.2676 124.958 69.6595 106.831 77.0489 85.5994Z" fill="white"/>
<path d="M1247.07 79.5842C1253.71 79.1262 1267.36 76.8463 1268.66 69.233C1271.21 54.3423 1243.04 66.2915 1240.24 71.4722C1237.88 75.859 1242.76 79.8794 1247.07 79.5842Z" fill="white"/>
<path d="M935.101 94.2707C938.802 91.5815 941.608 87.8396 943.152 83.5327C949.035 67.6445 922.398 54.8302 920.678 73.9855C920.124 80.218 921.264 86.4844 923.976 92.1231C925.971 96.3877 931.762 96.7032 935.101 94.2707Z" fill="white"/>
<path d="M781.188 81.977C786.381 81.6229 790.336 77.5988 790.022 72.9888C789.707 68.3789 785.243 64.9287 780.049 65.2828C774.856 65.6368 770.901 69.661 771.215 74.2709C771.53 78.8809 775.994 82.331 781.188 81.977Z" fill="white"/>
<path d="M402.527 77.1595C402.344 81.4954 411.352 81.129 414.1 80.8847C423.26 80.0603 432.94 79.5717 443.831 78.6455C446.911 78.3809 448.709 76.7999 449.225 73.9025C449.257 73.7259 449.253 73.5445 449.213 73.3695C449.172 73.1946 449.097 73.0296 448.991 72.8847C448.154 71.6971 447.019 70.7509 445.701 70.1416C444.382 69.5322 442.926 69.2813 441.479 69.4139C434.059 69.6684 407.443 71.4496 402.894 76.2842C402.662 76.5172 402.531 76.8312 402.527 77.1595Z" fill="white"/>
<path d="M1297.39 71.5415C1291.2 72.0504 1286.53 76.9665 1286.99 82.5136C1287.45 88.0607 1292.84 92.1422 1299.04 91.674C1305.24 91.2058 1309.9 86.249 1309.45 80.7019C1308.99 75.1548 1303.59 71.0326 1297.39 71.5415Z" fill="white"/>
<path d="M660.666 73.6993C659.225 73.9342 657.885 74.5861 656.811 75.5743C655.736 76.5626 654.975 77.844 654.621 79.2602C654.266 80.6764 654.335 82.1653 654.818 83.543C655.3 84.9207 656.176 86.1268 657.337 87.0123C658.497 87.8977 659.892 88.4238 661.348 88.5255C662.804 88.6271 664.258 88.2999 665.531 87.5842C666.803 86.8686 667.838 85.7958 668.507 84.4985C669.177 83.2013 669.451 81.7363 669.297 80.2846C669.024 78.2677 667.962 76.4416 666.344 75.207C664.726 73.9724 662.684 73.4302 660.666 73.6993Z" fill="white"/>
<path d="M165.843 79.9287C161.457 84.4681 161.925 92.0407 166.861 96.8347C171.798 101.629 179.401 101.822 183.798 97.2723C188.195 92.7227 187.716 85.1602 182.78 80.3663C177.844 75.5724 170.24 75.379 165.843 79.9287Z" fill="white"/>
<path d="M1234.11 166.575C1206.18 189.985 1181.18 214.983 1172.25 250.861C1170.61 257.477 1169.49 266.861 1168.18 273.141C1164.26 291.747 1150.76 307.116 1139.47 322.078C1137.43 324.805 1131.02 334.414 1138.45 335.513C1140.79 335.859 1142.28 334.658 1143.92 333.121C1153.12 324.503 1161.31 316.405 1168.5 308.826C1171.95 305.354 1175.02 301.526 1177.66 297.406C1185.37 284.174 1182.81 268.388 1185.96 253.914C1191.38 229.049 1207.98 210.576 1225.99 193.619C1268.34 153.751 1315.69 122.656 1367.91 97.2109V76.8545C1331.89 95.8775 1297.5 115.369 1265.43 140.743C1259.82 145.174 1249.37 153.785 1234.11 166.575Z" fill="white"/>
<path d="M811.924 97.0288C816.275 97.0288 819.802 93.5017 819.802 89.1509C819.802 84.8 816.275 81.2729 811.924 81.2729C807.574 81.2729 804.046 84.8 804.046 89.1509C804.046 93.5017 807.574 97.0288 811.924 97.0288Z" fill="white"/>
<path d="M894.286 99.4913C895.634 99.4977 896.954 99.108 898.082 98.3707C899.211 97.6333 900.098 96.5808 900.633 95.3438C901.168 94.1068 901.329 92.7398 901.094 91.4125C900.859 90.0852 900.24 88.8561 899.312 87.8778C898.385 86.8995 897.191 86.2151 895.878 85.9095C894.565 85.604 893.192 85.6908 891.928 86.1592C890.664 86.6276 889.565 87.4569 888.769 88.5441C887.972 89.6314 887.512 90.9287 887.446 92.275C887.4 94.138 888.093 95.9435 889.375 97.2961C890.657 98.6487 892.423 99.438 894.286 99.4913Z" fill="white"/>
<path d="M766.083 157.507C781.167 140.703 778.296 114.759 760.658 100.835C737.665 82.7483 698.856 78.6668 679.385 105.171C671.833 115.437 669.342 127.074 671.914 140.082C680.321 182.607 741.787 184.642 766.083 157.507ZM743.192 145.497C735.814 150.301 726.992 152.381 718.245 151.38C706.092 150.22 694.703 140.611 696.097 127.756C698.204 108.418 726.51 102.209 740.881 109.303C755.986 116.703 757.258 136.347 743.192 145.497Z" fill="white"/>
<path d="M394.466 92.153C387.341 92.9977 386.903 99.2268 394.405 99.8985C409.482 101.256 424.58 102.273 439.698 102.952C442.219 103.11 444.751 103 447.25 102.626C453.927 101.497 455.952 93.1402 449.693 89.8527C447.812 89.1061 445.785 88.8031 443.769 88.9672C427.29 89.1748 410.834 90.2382 394.466 92.153Z" fill="white"/>
<path d="M1217.44 110.73C1223.02 107.163 1224.99 100.274 1221.84 95.3444C1218.68 90.4146 1211.61 89.3104 1206.03 92.8781C1200.45 96.4457 1198.48 103.334 1201.63 108.264C1204.79 113.194 1211.87 114.298 1217.44 110.73Z" fill="white"/>
<path d="M106.684 110.997C111.29 108.61 112.93 102.632 110.345 97.6468C107.761 92.6611 101.932 90.5551 97.3254 92.9428C92.7191 95.3305 91.0799 101.308 93.6642 106.293C96.2485 111.279 102.078 113.385 106.684 110.997Z" fill="white"/>
<path d="M839.456 94.2588C834.072 94.5336 829.909 98.7271 830.154 103.633C830.398 108.539 834.968 112.284 840.332 112.01C845.696 111.735 849.879 107.541 849.635 102.635C849.39 97.7296 844.841 93.984 839.456 94.2588Z" fill="white"/>
<path d="M1264.79 112.774C1269.63 109.395 1270.98 102.973 1267.85 98.4334C1264.71 93.8939 1258.19 92.9371 1253.35 96.3061C1248.52 99.6751 1247.17 106.108 1250.3 110.647C1253.43 115.187 1259.96 116.143 1264.79 112.774Z" fill="white"/>
<path d="M967.316 110.871C971.048 110.871 974.074 107.845 974.074 104.113C974.074 100.38 971.048 97.3545 967.316 97.3545C963.583 97.3545 960.557 100.38 960.557 104.113C960.557 107.845 963.583 110.871 967.316 110.871Z" fill="white"/>
<path d="M869.434 118.285C874.067 117.782 877.432 113.781 876.95 109.35C876.469 104.918 872.323 101.733 867.69 102.237C863.058 102.74 859.692 106.74 860.174 111.172C860.655 115.604 864.801 118.788 869.434 118.285Z" fill="white"/>
<path d="M135.177 119.502C134.699 125.731 139.94 131.217 146.892 131.715C153.844 132.214 159.859 127.644 160.338 121.395C160.816 115.145 155.574 109.68 148.622 109.181C141.671 108.682 135.655 113.232 135.177 119.502Z" fill="white"/>
<path d="M919.651 112.224C902.124 115.278 890.531 132.581 893.737 150.8C896.943 169.019 913.757 181.273 931.274 178.179C948.801 175.125 960.394 157.822 957.188 139.604C953.971 121.395 937.167 109.13 919.651 112.224ZM936.394 133.222C938.81 135.499 940.5 138.439 941.253 141.673C942.005 144.908 941.786 148.292 940.623 151.402C939.46 154.512 937.405 157.21 934.715 159.157C932.025 161.104 928.821 162.213 925.503 162.347C922.185 162.48 918.902 161.631 916.065 159.906C913.227 158.181 910.962 155.656 909.554 152.65C908.145 149.643 907.655 146.287 908.146 143.003C908.637 139.719 910.086 136.653 912.312 134.189C915.378 130.869 919.637 128.902 924.153 128.72C928.668 128.539 933.071 130.158 936.394 133.222Z" fill="white"/>
<path d="M14.2495 118.24C15.0943 113.049 10.1782 112.041 6.34101 113.568L0 116.133V134.453C3.05346 131.329 13.6286 122.077 14.2495 118.24Z" fill="white"/>
<path d="M442.752 116.988C423.895 114.676 404.931 113.335 385.937 112.967C382.782 112.906 380.553 113.188 379.25 113.812C374.853 115.929 373.143 123.298 377.56 126.178C381.784 128.927 386.273 129.059 391.311 129.619C410.989 131.804 428.224 133.001 443.016 133.212C454.497 133.374 455.037 118.484 442.752 116.988Z" fill="white"/>
<path d="M736.453 117.914C729.002 114.341 708.361 117.049 706.122 127.583C704.605 134.708 710.366 140.408 717.114 141.537C724.171 142.862 731.466 141.403 737.471 137.466C745.573 132.255 745.338 122.178 736.453 117.914Z" fill="white"/>
<path d="M1209.33 249.09C1202.98 281.273 1229.09 293.752 1256.24 283.879C1280.31 275.333 1301.51 260.239 1317.47 240.296C1323.37 232.958 1328.95 223.39 1334.29 214.851C1343.37 200.254 1354.63 187.132 1367.68 175.939L1367.9 176.082V155.217C1344.71 177.853 1328.2 200.377 1309.43 224.174C1294.97 242.545 1270.49 269.039 1245.02 266.871C1237.83 266.261 1232.77 263.116 1229.83 257.436C1219.65 237.813 1252.84 208.978 1266.08 198.616C1285.46 183.444 1305.09 168.57 1324.95 153.995C1327.4 152.194 1330.44 151.898 1331.67 155.084C1332.76 157.873 1330.49 161.049 1328.44 162.769C1306.05 181.503 1284.33 200.984 1263.3 221.212C1258.72 225.609 1243.29 240.357 1248.19 247.268C1256.71 259.248 1285.85 227.054 1291.04 220.988C1300.86 209.541 1310.57 198.006 1320.16 186.382C1335.03 168.326 1351.15 151.278 1367.71 134.758L1367.92 134.911V116.59C1329.92 136.611 1290.56 161.476 1255.31 189.873C1236.17 205.161 1214.26 223.94 1209.33 249.09Z" fill="white"/>
<path d="M200.765 118.596C195.014 118.942 190.587 123.502 190.943 128.774C191.299 134.046 196.185 138.026 201.925 137.67C207.666 137.314 212.103 132.764 211.747 127.492C211.391 122.219 206.505 118.24 200.765 118.596Z" fill="white"/>
<path d="M790.723 130.271C787.432 145.62 784.274 160.989 781.247 176.378C780.514 180.042 778.794 188.989 781.023 192.042C783.517 195.472 787.741 194.373 789.329 190.719C790.996 186.792 792.238 182.697 793.034 178.505C796.481 161.168 799.157 143.72 801.064 126.159C801.359 123.462 800.932 120.052 798.092 118.983C793.176 117.1 791.425 126.973 790.723 130.271Z" fill="white"/>
<path d="M151.543 180.051C151.422 180.164 151.328 180.301 151.266 180.454C151.204 180.607 151.177 180.772 151.187 180.937C151.289 184.642 154.24 185.66 157.599 185.405C190.404 182.891 220.103 176.591 253.172 169.293C276.715 164.102 300.44 159.603 324.114 155.044C334.964 152.957 349.194 150.117 344.949 134.809C342.863 127.308 336.868 120 327.982 122.046C325.243 122.64 322.541 123.394 319.891 124.305C284.328 137.388 261.566 145.625 251.605 149.018C225.386 157.839 193.335 167.339 155.452 177.517C153.956 178.02 152.612 178.892 151.543 180.051Z" fill="white"/>
<path d="M817.36 127.979C813.737 145.764 810.574 165.669 807.874 187.695C807.467 191.033 807.681 194.657 811.803 195.003C816.261 195.379 818.52 186.443 819.375 183.634C822.296 173.975 833.492 131.012 827.212 124.051C823.467 119.908 818.327 123.45 817.36 127.979Z" fill="white"/>
<path d="M652.422 123.634C647.618 120.347 642.539 124.937 641.582 129.69C640.361 135.797 638.712 152.673 647.781 154.209C658.895 156.143 657.776 127.329 652.422 123.634Z" fill="white"/>
<path d="M1237.62 136.879C1238.63 130.368 1234.35 124.302 1228.08 123.331C1221.8 122.359 1215.89 126.849 1214.89 133.359C1213.88 139.87 1218.15 145.936 1224.43 146.907C1230.71 147.879 1236.61 143.389 1237.62 136.879Z" fill="white"/>
<path d="M489.072 142.911C518.114 149.656 547.345 155.4 576.767 160.143C591.241 162.463 605.663 163.135 614.162 148.947C617.439 143.471 611.74 141.384 607.271 142.962C597.968 146.331 588.034 147.603 578.182 146.687C549.011 143.898 519.148 135.206 490.13 128.041C484.644 126.687 477.001 128.611 479.535 135.99C480.929 140 485.194 141.964 489.072 142.911Z" fill="white"/>
<path d="M85.0522 150.536C89.8637 148.973 92.3701 143.415 90.6504 138.122C88.9307 132.829 83.6361 129.806 78.8246 131.369C74.0131 132.933 71.5066 138.491 73.2263 143.783C74.946 149.076 80.2406 152.099 85.0522 150.536Z" fill="white"/>
<path d="M845.604 135.084C843.847 146.273 841.896 161.256 839.752 180.031C839.375 183.329 841.146 191.227 845.94 188.662C851.151 185.853 852.362 150.453 852.881 143.593C853.258 138.606 854.306 134.188 850.846 131.613C850.605 131.425 850.307 131.324 850.001 131.328C849.463 131.269 848.918 131.321 848.4 131.481C847.882 131.64 847.403 131.904 846.991 132.256C846.579 132.608 846.243 133.04 846.005 133.527C845.766 134.013 845.63 134.543 845.604 135.084Z" fill="white"/>
<path d="M977.3 165.11C982.939 167.705 984.018 161.527 983.967 157.67C983.936 151.634 983.596 145.604 982.949 139.603C982.308 134.219 974.949 134.372 974.165 139.797C973.86 142.005 972.496 162.911 977.3 165.11Z" fill="white"/>
<path d="M122.434 162.502C128.649 161.496 132.797 155.187 131.7 148.412C130.602 141.637 124.675 136.96 118.46 137.967C112.245 138.974 108.097 145.282 109.194 152.057C110.291 158.833 116.219 163.509 122.434 162.502Z" fill="white"/>
<path d="M925.127 153.283C929.241 153.283 932.577 149.947 932.577 145.832C932.577 141.718 929.241 138.382 925.127 138.382C921.012 138.382 917.676 141.718 917.676 145.832C917.676 149.947 921.012 153.283 925.127 153.283Z" fill="white"/>
<path d="M1005.79 139.634C1000.93 141.791 1002.08 153.883 1002.63 158.748C1003.09 162.82 1007.4 165.262 1010.32 161.629C1013.51 157.659 1015.78 135.186 1005.79 139.634Z" fill="white"/>
<path d="M445.041 148.448C429.604 145.836 410.52 143.651 387.789 141.894C380.4 141.313 371.992 142.606 375.575 152.927C377 156.998 384.267 159.034 388.023 159.492C404.702 161.371 421.424 162.908 438.191 164.102C440.307 164.365 442.447 164.365 444.563 164.102C452.227 162.087 453.733 149.914 445.041 148.448Z" fill="white"/>
<path d="M877.218 147.919C876.465 141.303 868.577 141.262 867.508 147.573C866.626 152.838 866.395 159.787 866.816 168.418C867.182 175.97 875.142 177.141 876.556 170.026C877.918 162.735 878.141 155.278 877.218 147.919Z" fill="white"/>
<path d="M1173.62 147.104C1170.8 142.453 1164.6 144.224 1162.14 148.265C1159.51 152.558 1158.11 157.483 1158.06 162.514C1157.94 171.033 1167.15 171.674 1171.11 165.344C1174.1 160.458 1176.75 152.285 1173.62 147.104Z" fill="white"/>
<path d="M1038.88 170.566C1043.3 167.777 1043.34 156.876 1042.56 152.296C1041.17 144.153 1033.75 145.344 1032.59 152.571C1031.85 156.877 1031.43 161.231 1031.32 165.599C1031.27 169.802 1034.85 173.11 1038.88 170.566Z" fill="white"/>
<path d="M52.7232 153.944C48.1329 155.502 45.9446 161.303 47.8479 166.891C49.7512 172.479 54.9726 175.766 59.5833 174.219C64.1941 172.672 66.362 166.861 64.4587 161.273C62.5554 155.685 57.3136 152.397 52.7232 153.944Z" fill="white"/>
<path d="M480.675 164.51C504.567 169.009 528.479 173.355 552.411 177.549C556.483 178.271 567.404 180.439 567.587 175.218C567.699 172.225 563.159 170.21 561.348 169.793C536.106 163.998 510.715 158.946 485.174 154.637C476.105 153.09 471.434 162.77 480.675 164.51Z" fill="white"/>
<path d="M1203.89 173.324C1206.46 168.015 1205.32 162.14 1201.33 160.203C1197.34 158.266 1192.02 160.999 1189.44 166.309C1186.86 171.618 1188 177.493 1191.99 179.43C1195.98 181.367 1201.31 178.634 1203.89 173.324Z" fill="white"/>
<path d="M1063.51 185.66C1063.35 189.732 1067.58 192.785 1071.18 190.902C1077.03 187.961 1083.16 169.528 1076.54 165.548C1066.96 159.757 1063.73 180.408 1063.51 185.66Z" fill="white"/>
<path d="M1139.16 183.817C1141.73 179.522 1144.25 173.639 1142.39 168.957C1140.07 162.972 1133.31 164.316 1130.69 169.466C1128.74 173.293 1125.49 181.904 1128.2 185.751C1131.48 190.413 1136.72 187.899 1139.16 183.817Z" fill="white"/>
<path d="M371.962 205.527C372.125 200.265 363.463 199.786 360.043 199.562C341.03 198.321 321.834 197.629 302.893 195.684C302.707 195.677 302.53 195.604 302.393 195.48C302.255 195.355 302.166 195.186 302.139 195.003L301.834 193.435C301.801 193.345 301.79 193.249 301.803 193.154C301.815 193.06 301.851 192.969 301.906 192.891C301.961 192.813 302.034 192.75 302.119 192.706C302.204 192.663 302.298 192.64 302.394 192.641C303.33 192.489 304.236 191.969 305.091 191.817C321.505 188.811 337.79 185.231 353.947 181.079C361.427 179.155 359.514 170.758 353.183 169.638C349.255 169.069 345.255 169.256 341.397 170.188C324.694 173.791 307.534 177.822 291.3 181.028C258.377 187.515 225.257 192.763 191.94 196.774C183.011 197.787 174.167 199.444 165.477 201.73C157.131 203.959 154.983 211.908 165.161 213.384C176.083 214.972 192.683 215.176 206.353 215.176C259.388 215.291 312.365 213.625 365.285 210.178C368.573 209.985 371.85 209.201 371.962 205.527Z" fill="white"/>
<path d="M435.82 177.518C419.759 175.441 403.687 173.453 387.606 171.553C384.552 171.197 382.659 171.187 381.855 171.502C376.99 173.457 376.328 179.421 380.837 182.139C382.669 183.266 384.684 184.062 386.791 184.49C402.588 187.448 418.473 189.843 434.446 191.676C449.011 193.365 449.54 179.319 435.82 177.518Z" fill="white"/>
<path d="M1090.51 194.82C1090.29 195.891 1090.39 197.001 1090.8 198.015C1091.2 199.03 1091.9 199.904 1092.79 200.53C1100.19 205.965 1107.04 186.281 1108.38 181.904C1109.62 177.901 1108.72 175.156 1105.69 173.67C1096.52 169.13 1091.4 188.449 1090.51 194.82Z" fill="white"/>
<path d="M574.417 263.553C587.872 312.409 651.099 305.752 686.316 293.457C700.962 288.368 716.341 278.19 720.26 262.739C722.896 252.306 719.67 242.332 714.438 233.049C696.26 200.754 666.417 173.649 627.496 173.476C577.786 173.252 563.597 224.255 574.417 263.553ZM696.392 234.82C708.952 255.696 698.346 268.408 677.919 274.261C652.341 281.559 596.055 287.126 589.592 248.866C586.62 231.268 590.345 203.533 609.063 195.573C614.05 193.443 620.7 192.618 629.012 193.1C657.399 194.708 681.847 210.637 696.392 234.82Z" fill="white"/>
<path d="M474.517 185.802C475.042 186.149 475.65 186.35 476.278 186.382C497.72 187.563 519.281 189.144 540.961 191.125C541.874 191.284 542.814 191.177 543.667 190.816C544.521 190.455 545.253 189.856 545.775 189.09C545.874 188.942 545.94 188.775 545.97 188.599C546 188.424 545.993 188.244 545.948 188.072C545.692 187.121 545.154 186.269 544.406 185.628C543.658 184.987 542.734 184.586 541.755 184.479C522.66 180.74 503.427 177.894 484.054 175.939C481.734 175.705 478.965 175.166 476.543 175.644C471.006 176.723 469.642 182.606 474.517 185.802Z" fill="white"/>
<path d="M41.3542 193.233C44.2652 188.327 42.0972 181.67 36.5196 178.352C30.9419 175.034 24.0513 176.317 21.1403 181.223C18.2293 186.128 20.3566 192.785 25.975 196.103C31.5933 199.421 38.4432 198.129 41.3542 193.233Z" fill="white"/>
<path d="M1171.97 203.018C1175.01 197.671 1174.05 191.393 1169.83 188.997C1165.61 186.601 1159.73 188.993 1156.7 194.34C1153.66 199.687 1154.61 205.964 1158.83 208.361C1163.05 210.757 1168.93 208.365 1171.97 203.018Z" fill="white"/>
<path d="M935.121 195.543C916.649 194.383 898.123 194.383 879.65 195.543C873.35 195.889 874.236 202.546 879.986 203.899C897.778 208.072 916.536 211.126 934.867 210.932C947.763 210.77 946.144 196.327 935.121 195.543Z" fill="white"/>
<path d="M729.145 199.258C727.78 199.433 726.467 199.895 725.293 200.614C724.119 201.334 723.111 202.294 722.336 203.432C714.041 215.045 736.86 242.526 748.463 231.086C750.981 228.616 751.659 225.223 750.499 220.908C748.178 212.643 739.7 197.783 729.145 199.258Z" fill="white"/>
<path d="M1118.67 202.261C1114.78 206.017 1107.93 216.276 1114.48 220.531C1121.79 225.284 1127.49 211.421 1128.44 206.525C1129.78 199.91 1122.66 198.434 1118.67 202.261Z" fill="white"/>
<path d="M0 202.138V224.275C15.196 222.301 15.8678 201.659 0 202.138Z" fill="white"/>
<path d="M1367.03 224.205C1367.27 224.214 1367.5 224.3 1367.68 224.45L1367.95 224.653V202.18C1353.7 205.477 1353.34 223.411 1367.03 224.205Z" fill="white"/>
<path d="M537.989 278.759C552.808 277.853 557.216 262.586 553.745 250.26C550.189 237.687 546.688 225.1 543.241 212.499C539.75 199.766 526.691 205.466 530.233 217.212C533.354 227.553 536.469 237.897 539.577 248.245C540.401 250.993 541.724 256.479 540.951 258.932C539.933 262.219 534.569 263.003 532.635 259.868C531.219 257.492 530.006 254.999 529.012 252.418C524.072 239.268 518.772 226.267 513.113 213.415C510.996 208.591 504.207 202.372 499.688 209.069C498.447 210.911 498.518 213.67 499.057 215.603C504.554 235.044 511.414 255.237 523.882 271.421C527.475 276.103 531.851 279.125 537.989 278.759Z" fill="white"/>
<path d="M784.932 260.785C788.586 263.838 796.729 264.917 798.093 258.912C799.63 252.133 791.64 247.604 789.136 243.095C785.958 237.639 784.341 231.413 784.464 225.1C784.72 220.69 784.642 216.266 784.23 211.868C783.334 206.117 775.752 203.074 772.311 209.059C769.808 213.405 771.65 227.278 772.413 232.387C774.215 244.459 776.118 253.456 784.932 260.785Z" fill="white"/>
<path d="M811.121 248.866C822.602 254.79 838.144 261.08 851.661 260.419C855.488 260.225 860.078 256.714 857.625 252.928C856.047 250.485 850.938 248.581 848.098 247.981C839.05 246.067 828.139 244.388 820.739 240.225C816.953 238.098 806.948 231.37 807.925 226.2C808.556 222.922 813.258 220.693 814.826 218.576C819.742 211.93 812.068 205.345 805.187 209.304C786.418 220.062 796.118 241.121 811.121 248.866Z" fill="white"/>
<path d="M43.8176 218.23C43.2648 217.17 42.5032 216.234 41.5788 215.476C40.6543 214.719 39.5861 214.156 38.4385 213.823C37.2909 213.489 36.0876 213.391 34.9011 213.535C33.7147 213.679 32.5696 214.061 31.5349 214.659C30.5002 215.258 29.5973 216.059 28.8806 217.015C28.1639 217.972 27.6482 219.063 27.3645 220.224C27.0809 221.385 27.0352 222.592 27.2303 223.771C27.4253 224.95 27.857 226.077 28.4994 227.085C29.0521 228.145 29.8137 229.082 30.7381 229.839C31.6626 230.596 32.7308 231.159 33.8784 231.493C35.0261 231.826 36.2293 231.924 37.4158 231.78C38.6022 231.636 39.7473 231.254 40.782 230.656C41.8167 230.058 42.7196 229.256 43.4363 228.3C44.1531 227.344 44.6688 226.252 44.9524 225.091C45.236 223.93 45.2817 222.724 45.0867 221.544C44.8916 220.365 44.4599 219.238 43.8176 218.23Z" fill="white"/>
<path d="M826.144 224.205C826.256 230.963 838.164 233.528 843.518 233.874C864.885 235.231 886.26 236.452 907.641 237.538C911.987 237.762 919.101 238.057 920.038 232.449C920.679 228.622 917.269 226.342 914.032 225.487C890.727 219.5 866.835 216.087 842.785 215.309C837.167 215.177 826.011 215.685 826.144 224.205Z" fill="white"/>
<path d="M649.46 262.933C659.852 261.477 668.514 253.09 668.3 242.424C667.913 223.085 641.837 211.96 629.348 227.604C616.605 243.615 629.317 265.762 649.46 262.933Z" fill="white"/>
<path d="M453.408 237.62C456.197 244.073 461.551 250.515 467.261 253.905C478.945 260.948 491.525 254.251 483.546 240.011C479.586 232.948 468.757 218.281 459.413 221.06C452.156 223.258 450.599 231.146 453.408 237.62Z" fill="white"/>
<path d="M135.666 327.594C138.994 326.373 139.269 321.548 138.719 318.729C134.349 295.373 128.666 268.808 121.671 239.033C120.578 234.413 119.479 231.227 118.373 229.476C108.042 213.293 76.001 224.682 79.8789 245.761C83.6041 265.965 90.9833 286.566 98.7289 305.558C99.9299 308.51 105.436 321.843 108.123 322.617C112.866 323.97 113.406 319.105 112.531 315.94C108.079 300.021 103.696 284.075 99.3803 268.102C96.9782 259.2 95.1394 251.308 93.8637 244.428C92.2454 235.715 102.922 230.677 106.169 239.827C107.034 242.26 107.971 245.374 108.999 249.171C113.687 266.474 120.218 290.087 128.592 320.011C129.518 323.36 131.401 329.172 135.666 327.594Z" fill="white"/>
<path d="M1148.39 244.194C1152.69 240.408 1161.79 226.199 1152.65 222.749C1145.61 220.092 1138.4 232.031 1136.55 236.998C1133.35 245.406 1142.52 249.365 1148.39 244.194Z" fill="white"/>
<path d="M360.583 225.284C355.819 225.793 350.201 229.08 353.224 234.251C354.771 236.897 357.865 238.444 360.786 239.452C382.88 247.072 404.973 254.712 427.067 262.373C431.922 264.063 438.741 265.976 442.66 263.452C450.456 258.444 442.568 250.353 438.008 247.167C415.168 231.055 388.736 222.241 360.583 225.284Z" fill="white"/>
<path d="M148.378 232.591C144.021 234.749 144.357 241.446 144.897 245.538C147.38 264.198 150.094 280.89 153.039 295.615C153.814 299.521 155.026 303.328 156.652 306.963C160.398 315.32 170.352 311.157 170.556 303.208C170.651 296.515 170.013 289.832 168.652 283.279C166.122 270.386 163.255 257.589 160.052 244.887C158.607 239.258 155.136 229.243 148.378 232.591Z" fill="white"/>
<path d="M973.545 233.283C969.24 232.037 964.793 231.353 960.313 231.247C955.512 230.621 950.632 231.13 946.063 232.733C940.968 234.321 937.802 237.259 936.567 241.548C933.615 251.726 943.692 257.405 952.17 259.451C958.786 261.996 966.929 264.153 974.053 263.38C979.014 261.419 982.145 257.663 983.448 252.113C986.915 241.982 983.614 235.705 973.545 233.283ZM973.036 256.398C966.847 257.873 953.392 252.744 947.417 250.291C940.588 246.219 944.781 240.255 950.471 238.077C956.751 237.467 963.085 237.71 969.3 238.799C979.255 240.051 981.402 251.237 973.036 256.398Z" fill="white"/>
<path d="M1352.21 250.098C1350.8 251.9 1350.12 255.971 1351.2 257.691C1355.1 264.137 1360.7 265.834 1367.99 262.78V248.062C1361.51 244.235 1356.25 244.914 1352.21 250.098Z" fill="white"/>
<path d="M1010.69 246.648C1008.49 246.072 1007.05 246.95 1006.39 249.285C1006.24 249.689 1006.24 250.136 1006.4 250.539C1006.55 250.941 1006.86 251.271 1007.24 251.463C1010.3 253.315 1019.8 258.414 1022.26 255.534C1025.9 251.239 1013.2 247.31 1010.69 246.648Z" fill="white"/>
<path d="M0 247.94V262.19C5.44533 258.831 4.24431 251.717 0 247.94Z" fill="white"/>
<path d="M42.5799 262.886C42.82 257.388 38.8763 252.75 33.7714 252.527C28.6665 252.304 24.3336 256.581 24.0936 262.079C23.8535 267.577 27.7972 272.214 32.9021 272.437C38.007 272.66 42.3399 268.384 42.5799 262.886Z" fill="white"/>
<path d="M940.689 281.172C940.475 278.047 936.974 275.34 933.89 276.816C931.84 277.889 930.112 279.487 928.882 281.447C920.911 293.087 915.334 306.197 912.475 320.012C910.012 331.819 898.073 326.557 900.088 316.643C903.116 301.618 908.477 287.16 915.976 273.793C917.676 270.739 920.689 267.594 922.083 265.019C925.086 259.543 920.913 254.159 915.111 256.246C904.841 259.961 893.411 296.694 890.816 307.035C887.549 320.022 889.798 324.47 898.958 332.847C911.803 344.545 924.228 356.674 936.231 369.234C941.921 375.188 953.29 388.338 957.218 388.206C959.254 388.145 961.473 385.438 960.486 383.392C947.366 356.135 951.325 327.829 960.404 299.188C963.051 290.831 952.119 289.009 948.832 297.946C943.736 311.768 939.627 324.063 936.506 334.832C934.704 341.061 927.559 340.694 925.859 334.323C923.345 324.847 930.552 305.162 935.081 295.808C936.089 293.844 940.923 284.561 940.689 281.172Z" fill="white"/>
<path d="M997.401 262.822C1001.33 264.941 1005.46 266.647 1009.74 267.911C1013.03 268.837 1016.01 264.694 1012.22 262.537C1008.43 260.379 1002.96 257.661 998.989 257.173C998.3 257.12 997.613 257.308 997.047 257.704C996.48 258.101 996.069 258.681 995.881 259.347C995.694 260.012 995.744 260.722 996.021 261.356C996.298 261.989 996.786 262.507 997.401 262.822Z" fill="white"/>
<path d="M398.09 307.798C398.003 307.982 397.848 308.125 397.658 308.195C397.467 308.266 397.257 308.258 397.072 308.175C370.018 300.114 342.836 292.443 315.524 285.162C313.193 284.551 311.198 283.757 309.366 285.61C306.038 288.958 313.529 291.544 315.422 292.215C335.141 299.313 354.92 306.204 374.761 312.887C392.064 318.72 432.96 329.315 432.553 297.966C432.565 296.472 432.303 294.989 431.779 293.59C424.451 275.859 330.394 260.5 310.944 257.701C310.642 257.629 310.328 257.616 310.021 257.665C309.715 257.714 309.42 257.822 309.156 257.985C308.891 258.148 308.661 258.361 308.479 258.613C308.296 258.864 308.166 259.15 308.094 259.452C307.934 259.796 307.917 260.19 308.047 260.546C308.177 260.903 308.442 261.194 308.786 261.355C309.879 262.005 311.048 262.518 312.267 262.882C333.098 268.928 353.93 275.008 374.761 281.121C377.652 281.966 380.502 282.964 383.321 284.093C383.426 284.117 383.525 284.166 383.608 284.234C383.691 284.303 383.758 284.391 383.801 284.489C383.845 284.588 383.864 284.696 383.859 284.804C383.853 284.912 383.822 285.017 383.769 285.111L383.423 286.129C383.323 286.417 383.12 286.657 382.853 286.803C382.586 286.95 382.274 286.993 381.977 286.923L312.847 270.984C308.776 270.047 300.959 267.706 300.735 271.483C300.722 271.646 300.749 271.809 300.813 271.96C300.876 272.111 300.975 272.244 301.102 272.348C302.318 273.397 303.729 274.196 305.254 274.699C334.337 284.877 361.747 293.919 387.484 301.824C391.207 302.936 394.873 304.233 398.466 305.712C398.572 305.734 398.67 305.784 398.751 305.857C398.832 305.929 398.892 306.021 398.926 306.124C398.96 306.227 398.966 306.337 398.945 306.444C398.923 306.55 398.874 306.648 398.802 306.73L398.09 307.798Z" fill="white"/>
<path d="M728.87 275.126C726.458 280.093 727.048 290.444 735.516 288.215C743.061 286.315 749.732 281.899 754.428 275.696C758.957 269.813 755.863 261.182 748.26 260.601C740.229 259.96 732.117 268.5 728.87 275.126Z" fill="white"/>
<path d="M869.055 276.592C873.798 271.503 878.429 273.081 884.495 273.671C889.055 274.109 891.935 268.297 887.294 265.803C878.378 260.979 868.932 262.821 862.093 270.139C855.986 276.582 850.49 288.602 855.365 297.132C858.713 303.005 866.948 305.895 873.533 307.656C879.823 309.346 882.011 302.028 876.831 299.188C871.65 296.348 859.528 294.099 863.925 284.857C865.222 281.866 866.95 279.082 869.055 276.592Z" fill="white"/>
<path d="M840.8 281.111C841.258 273.08 818.235 262.892 811.029 264.877C804.749 266.607 804.189 274.363 809.115 278.108C814.64 282.267 820.837 285.448 827.436 287.513C832.82 289.182 840.423 287.879 840.8 281.111Z" fill="white"/>
<path d="M1027.73 268.704C1024.68 268.032 1020.29 271.554 1023.87 273.793C1026.87 275.645 1036.2 280.572 1039.01 277.243C1042.82 272.714 1030.03 269.213 1027.73 268.704Z" fill="white"/>
<path d="M1324.04 274.861C1317 263.197 1301.81 280.205 1302.75 288.093C1304.5 303.014 1331.31 286.811 1324.04 274.861Z" fill="white"/>
<path d="M1069.85 283.197C1070.39 281.426 1068.28 279.207 1065.12 278.23C1061.95 277.253 1059.01 277.894 1058.41 279.655C1057.81 281.416 1059.98 283.645 1063.14 284.622C1066.31 285.599 1069.3 284.958 1069.85 283.197Z" fill="white"/>
<path d="M1034.3 288.011C1029.84 285.548 1015.84 278.026 1011.21 279.553C1007.58 280.744 1006.94 285.925 1010.38 287.502C1017.06 290.522 1023.94 293.076 1030.98 295.146C1034.15 296.103 1036.13 295.014 1036.91 291.869C1036.95 291.726 1036.96 291.578 1036.93 291.433C1036.91 291.287 1036.86 291.148 1036.78 291.024C1036.19 289.845 1035.34 288.816 1034.3 288.011Z" fill="white"/>
<path d="M523.393 311.35C525.619 306.451 525.073 301.484 521.755 296.449C513.225 283.533 494.762 279.218 480.787 281.528C468.329 283.564 459.474 290.689 461.449 304.165C462.568 311.971 468.095 316.541 475.149 319.198C488.482 324.226 515.76 328.155 523.393 311.35ZM475.77 307.605C471.814 304.131 471.393 300.354 474.507 296.276C481.164 287.554 508.859 289.62 511.088 302.556C513.317 315.493 481.062 312.256 475.77 307.605Z" fill="white"/>
<path d="M810.53 320.205C822.093 305.548 797.686 289.131 786.775 284.388C779.436 281.172 769.248 280.805 766.082 290.159C761.248 304.459 782.825 317.223 792.943 321.711C799.131 324.378 806.042 325.895 810.53 320.205ZM793.828 310.923C790.775 309.182 767.68 297.691 776.922 292.185C781.95 289.192 792.189 297.854 797.044 301.345C799.538 303.136 807.161 310.139 801.452 312.877C798.754 314.149 796.261 312.307 793.828 310.923Z" fill="white"/>
<path d="M980.395 286.871C980.944 290.688 994.787 295.177 998.298 296.327C1000.88 297.171 1003.8 297.467 1004.81 294.525C1006.6 289.283 990.563 284.255 987.122 283.329C984.12 282.444 979.784 282.698 980.395 286.871Z" fill="white"/>
<path d="M1359.51 303.451C1358.89 298.057 1353.96 292.673 1348.05 293.212C1338.51 294.077 1327.69 311.462 1333.27 319.564C1342.38 332.805 1360.74 314.373 1359.51 303.451Z" fill="white"/>
<path d="M756.239 316.958C761.145 311.401 753.909 293.548 744.799 296.103C738.387 297.864 735.985 304.307 738.377 310.139C740.768 315.971 750.346 323.594 756.239 316.958Z" fill="white"/>
<path d="M27.3484 321.904C33.2925 324.469 40.2951 321.497 42.9923 315.268C45.6895 309.039 43.0636 301.884 37.1195 299.309C31.1754 296.734 24.1728 299.716 21.4756 305.945C18.7784 312.174 21.3738 319.329 27.3484 321.904Z" fill="white"/>
<path d="M567.118 316.256C580.004 327.391 594.488 331.187 611.2 334.526C626.556 337.586 640.554 339.835 653.195 341.274C663.791 342.475 681.867 342.383 686.051 330.515C687.822 325.487 685.857 321.355 681.053 319.482C679.413 318.734 677.574 318.534 675.811 318.912C661.491 322.923 653.002 325.253 639.526 324.602C622.859 323.855 606.525 319.676 591.546 312.327C585.62 309.217 579.864 305.792 574.304 302.067C569.826 299.228 560.37 296.978 560.055 304.897C559.851 309.223 563.872 313.436 567.118 316.256Z" fill="white"/>
<path d="M399.229 566.059C400.949 570.853 405.621 573.306 410.293 570.741C414.598 568.39 416.268 561.683 417.733 556.136C425.489 526.782 426.181 499.362 419.82 470.364C409.367 422.75 387.993 369.824 353.356 334.343C327.463 307.818 288.816 297.762 252.724 303.808C234.226 306.967 216.104 312.032 198.648 318.923C167.289 331.136 150.739 350.333 144.703 383.727C143.166 392.206 150.322 394.455 153.782 387.015C164.357 364.216 170.586 343.869 195.788 333.589C222.404 322.74 255.31 319.92 283.941 321.111C338.903 323.411 366.771 368.022 385.041 413.376C391.826 430.17 397.899 447.215 403.26 464.512C411.85 492.125 414.456 519.769 403.972 547.169C402.171 551.749 397.652 561.683 399.229 566.059Z" fill="white"/>
<path d="M850.897 347.431C898.846 354.841 914.175 393.365 946.867 425.325C949.544 427.941 957.32 435.412 961.809 432.338C965.055 430.119 962.602 425.824 960.984 423.422C940.628 393.141 917.981 364.388 890.755 339.96C878.022 328.52 847.599 306.851 830.072 319.37C824.311 323.441 819.68 331.93 823.884 338.403C828.749 345.864 842.887 346.2 850.897 347.431ZM837.96 326.922C848.383 323.94 866.765 333.151 875.518 338.169C879.355 340.368 878.897 344.978 873.879 343.706C862.106 340.741 850.29 337.959 838.429 335.36C832.708 334.108 832.454 328.49 837.94 326.922H837.96Z" fill="white"/>
<path d="M709.237 324.704C697.807 339.971 715.405 356.49 730.113 345.823C751.344 330.414 723.141 306.189 709.237 324.704Z" fill="white"/>
<path d="M1110.44 511.016C1115.3 475.504 1114.23 439.076 1120.87 404.043C1121.3 401.92 1122.07 399.879 1123.14 397.997C1126.71 391.544 1131.54 396.613 1131.53 401.946C1131.46 427.921 1130.59 451.561 1128.92 472.868C1128.74 475.178 1127.62 482.832 1131.98 481.937C1134.72 481.367 1135.43 476.512 1135.8 474.14C1139.6 450.54 1142.23 428.518 1143.69 408.074C1144.58 395.717 1142.38 374.078 1124.44 377.539C1110.08 380.287 1108.31 408.99 1107.13 420.287C1105.38 437.516 1103.76 454.751 1102.26 471.993C1099.87 499.576 1094.16 526.769 1085.24 552.98C1084.81 554.253 1084.33 555.505 1083.79 556.746C1081.95 561.011 1077.69 558.232 1078.01 554.375C1080.94 517.733 1089.71 481.764 1090.31 445.02C1090.61 425.733 1087.49 406.343 1086.58 387.005C1085.9 372.396 1089.46 359.588 1097.24 348.582L1100 345.528L1105.09 339.89C1109.75 334.943 1113.81 329.451 1117.16 323.533C1117.25 323.389 1117.3 323.215 1117.28 323.042C1117.26 322.869 1117.18 322.708 1117.06 322.587L1113.49 318.648C1113.43 318.557 1113.35 318.482 1113.25 318.428C1113.15 318.373 1113.04 318.341 1112.93 318.333C1112.82 318.325 1112.71 318.342 1112.61 318.383C1112.5 318.423 1112.41 318.486 1112.33 318.566C1108.98 321.353 1105.25 323.658 1101.26 325.416C1113.66 316.602 1124.78 308.724 1130.49 298.414C1146.37 269.782 1124.65 246.454 1103.58 230.128C1079.82 211.723 1054.12 195.965 1026.94 183.135C1009.64 174.932 990.053 170.291 973.513 182.83C970.592 185.049 967.132 189.252 965.931 192.387C960.923 205.405 970.877 213.1 980.943 218.199C998.592 227.146 1016.18 234.922 1034.26 244.266C1039.93 247.197 1047.34 250.973 1043.95 258.8C1039.98 267.96 1053.23 266.078 1057.46 266.291C1066.86 266.77 1090.81 272.011 1088.3 286.149C1087.05 293.274 1079.58 297.131 1073.04 298.963C1059.24 302.821 1046.2 305.07 1032.83 312.022C1012.75 322.434 1005.35 340.887 1004.8 362.536C1004.05 390.313 1009.22 418.201 1015.44 445.163C1016.91 451.125 1017.97 457.182 1018.61 463.29C1019.71 476.583 1018.71 491.433 1017.44 503.443C1015.41 522.544 1013.37 541.649 1011.34 560.757C1010.89 564.95 1014.89 570.039 1018.08 565.154C1019.37 563.165 1020.58 559.864 1021.71 555.25C1028.1 529.023 1031.9 502.231 1033.05 475.26C1033.61 461.953 1033.07 450.693 1031.42 441.478C1026.65 414.852 1022.2 392.399 1022.26 367.646C1022.26 360.073 1023.27 350.933 1025.31 344.429C1037.87 305.579 1080.1 318.984 1099.23 292.693C1113.14 273.599 1096.93 263.553 1082.16 255.859C1052.02 240.184 1021.21 226.393 991.569 209.762C989.188 208.428 985.137 205.863 983.865 203.655C978.114 193.639 997.982 193.772 1002.28 194.555C1020.48 197.884 1035.22 205.059 1051.98 214.382C1067.95 223.285 1083.26 233.333 1097.78 244.449C1110.83 254.434 1126.62 269.833 1119 288.215C1114.02 300.246 1103.17 307.411 1092.38 313.661C1084.72 318.098 1077.84 322.356 1071.75 326.434C1045.18 344.215 1042.74 373.508 1045.13 402.384C1046.41 417.916 1048.31 433.376 1050.84 448.766C1053.12 462.885 1053.33 477.262 1051.47 491.443C1049.3 508.454 1046.63 532.512 1043.48 563.617C1042.06 577.52 1039.05 600.482 1046.83 612.044C1051.85 619.508 1059.02 622.375 1068.34 620.645C1082.51 617.999 1088.35 599.271 1092.31 587.576C1100.79 562.694 1106.86 537.057 1110.44 511.016ZM1093.14 331.208C1094.21 331.356 1095.24 331.761 1096.12 332.388C1097.01 333.015 1097.73 333.846 1098.23 334.811C1098.63 336.393 1098.63 338.053 1098.23 339.635C1096.88 341.116 1095.14 342.176 1093.21 342.689C1085.61 341.457 1087.46 333.396 1093.14 331.208ZM1072.52 339.004C1073.99 339.004 1075.43 339.442 1076.66 340.262C1077.89 341.081 1078.84 342.247 1079.41 343.61C1079.97 344.973 1080.12 346.473 1079.83 347.92C1079.55 349.368 1078.84 350.697 1077.79 351.74C1076.75 352.784 1075.42 353.494 1073.97 353.782C1072.52 354.07 1071.02 353.922 1069.66 353.358C1068.3 352.793 1067.13 351.837 1066.31 350.61C1065.49 349.383 1065.06 347.94 1065.06 346.465C1065.05 345.482 1065.24 344.507 1065.61 343.597C1065.98 342.687 1066.53 341.86 1067.23 341.163C1067.92 340.466 1068.74 339.913 1069.65 339.535C1070.56 339.158 1071.53 338.964 1072.52 338.964V339.004ZM1055.95 366.485C1056.16 365.289 1056.61 364.146 1057.27 363.124C1057.93 362.101 1058.78 361.218 1059.78 360.525C1060.78 359.832 1061.9 359.343 1063.09 359.086C1064.28 358.828 1065.51 358.807 1066.7 359.025C1067.91 359.212 1069.06 359.634 1070.1 360.267C1071.13 360.9 1072.04 361.732 1072.75 362.714C1073.47 363.696 1073.98 364.81 1074.27 365.992C1074.55 367.173 1074.6 368.399 1074.41 369.6C1073.95 372.008 1072.57 374.141 1070.56 375.542C1068.55 376.942 1066.07 377.498 1063.65 377.091C1061.24 376.683 1059.07 375.344 1057.63 373.361C1056.19 371.378 1055.59 368.91 1055.95 366.485ZM1073.25 396.063C1072.82 397.713 1071.9 399.199 1070.63 400.334C1069.36 401.47 1067.78 402.205 1066.09 402.447C1064.4 402.69 1062.68 402.429 1061.13 401.698C1059.59 400.967 1058.3 399.798 1057.42 398.337C1056.54 396.876 1056.11 395.187 1056.18 393.483C1056.25 391.778 1056.83 390.132 1057.83 388.752C1058.83 387.371 1060.22 386.316 1061.82 385.72C1063.42 385.123 1065.15 385.011 1066.82 385.396C1069.08 385.968 1071.02 387.413 1072.22 389.415C1073.41 391.417 1073.77 393.811 1073.2 396.073L1073.25 396.063ZM1056.5 599.424C1055.61 599.424 1054.75 599.162 1054.02 598.672C1053.29 598.182 1052.71 597.486 1052.38 596.671C1052.04 595.857 1051.95 594.961 1052.12 594.096C1052.3 593.231 1052.72 592.437 1053.34 591.813C1053.97 591.19 1054.76 590.765 1055.63 590.593C1056.49 590.421 1057.39 590.509 1058.2 590.847C1059.02 591.184 1059.71 591.756 1060.2 592.489C1060.69 593.222 1060.95 594.084 1060.95 594.965C1060.95 596.148 1060.48 597.282 1059.65 598.118C1058.81 598.954 1057.68 599.424 1056.5 599.424ZM1061.59 571.108C1061.34 572.264 1060.65 573.277 1059.66 573.922C1058.67 574.567 1057.46 574.792 1056.3 574.548C1055.74 574.386 1055.21 574.115 1054.75 573.749C1054.29 573.383 1053.91 572.929 1053.62 572.415C1053.34 571.9 1053.16 571.334 1053.1 570.75C1053.03 570.166 1053.08 569.575 1053.25 569.011C1053.49 567.854 1054.19 566.842 1055.18 566.197C1056.17 565.552 1057.38 565.327 1058.53 565.571C1059.1 565.732 1059.62 566.004 1060.08 566.37C1060.54 566.736 1060.93 567.19 1061.21 567.704C1061.49 568.219 1061.67 568.784 1061.74 569.369C1061.8 569.953 1061.75 570.544 1061.59 571.108ZM1063.12 544.644C1062.68 546.447 1061.78 548.103 1060.51 549.449C1060.05 549.908 1059.43 550.175 1058.78 550.194C1058.13 550.213 1057.49 549.983 1057.01 549.55C1056.38 549.011 1055.9 548.329 1055.6 547.563C1055.3 546.798 1055.2 545.971 1055.29 545.153C1057.04 519.779 1061.39 493.662 1061.39 470.089C1061.39 461.899 1060.71 449.516 1059.36 432.939C1058.78 425.814 1056.3 409.458 1068.71 410.659C1074 411.168 1076.48 415.178 1076.61 420.155C1077.78 462.751 1074.4 503.545 1063.13 544.695L1063.12 544.644ZM1075.71 597.876C1075.55 598.713 1075.14 599.484 1074.55 600.095C1073.95 600.706 1073.19 601.131 1072.36 601.318C1071.53 601.505 1070.66 601.446 1069.86 601.148C1069.06 600.851 1068.37 600.327 1067.86 599.641C1067.35 598.955 1067.06 598.137 1067.01 597.285C1066.96 596.434 1067.16 595.586 1067.58 594.846C1068 594.106 1068.63 593.504 1069.39 593.115C1070.15 592.726 1071.01 592.566 1071.86 592.655C1073.06 592.838 1074.14 593.491 1074.86 594.469C1075.58 595.448 1075.89 596.673 1075.71 597.876ZM1079.86 574.355C1079.68 574.92 1079.38 575.441 1078.99 575.885C1078.6 576.329 1078.12 576.686 1077.58 576.931C1077.04 577.177 1076.46 577.306 1075.87 577.31C1075.27 577.315 1074.69 577.194 1074.14 576.957C1073.6 576.719 1073.12 576.37 1072.72 575.932C1072.32 575.494 1072.02 574.977 1071.83 574.415C1071.65 573.852 1071.58 573.257 1071.64 572.668C1071.7 572.079 1071.89 571.509 1072.18 570.996C1072.36 570.431 1072.65 569.909 1073.04 569.465C1073.44 569.021 1073.92 568.665 1074.46 568.419C1074.99 568.174 1075.58 568.045 1076.17 568.04C1076.76 568.036 1077.35 568.156 1077.89 568.394C1078.43 568.631 1078.92 568.98 1079.32 569.418C1079.72 569.856 1080.02 570.373 1080.2 570.936C1080.39 571.498 1080.45 572.093 1080.39 572.682C1080.33 573.272 1080.15 573.841 1079.86 574.355Z" fill="white"/>
<path d="M903.396 -75.3386C889.035 -40.2544 914.826 -11.216 932.211 16.031C943.407 33.6495 954.307 51.5732 966.094 68.8151C975.268 82.2503 984.408 95.6991 993.514 109.161C997.321 114.79 1008.65 127.706 1015.35 116.357C1021.45 105.955 999.153 79.9602 989.483 67.4207C971 43.451 969.554 15.746 973.534 -13.0888C974.654 -21.2314 976.588 -33.7505 975.977 -42.29C974.613 -61.9543 960.71 -87.8476 941.666 -95.7154C925.106 -102.565 909.422 -90.0359 903.396 -75.3386ZM918.47 -60.8958C917.831 -60.8944 917.198 -61.019 916.607 -61.2622C916.017 -61.5055 915.48 -61.8627 915.027 -62.3136C914.574 -62.7644 914.215 -63.3 913.969 -63.8897C913.723 -64.4795 913.596 -65.1119 913.595 -65.7508C913.595 -66.715 913.881 -67.6576 914.416 -68.4594C914.952 -69.2611 915.714 -69.886 916.604 -70.255C917.495 -70.624 918.475 -70.7206 919.421 -70.5325C920.367 -70.3443 921.236 -69.88 921.917 -69.1982C922.599 -68.5163 923.064 -67.6476 923.252 -66.7019C923.44 -65.7562 923.343 -64.7759 922.974 -63.8851C922.605 -62.9942 921.98 -62.2328 921.179 -61.6971C920.377 -61.1614 919.434 -60.8754 918.47 -60.8754V-60.8958ZM924.669 -38.5037C923.724 -38.5037 922.802 -38.7837 922.017 -39.3082C921.232 -39.8328 920.62 -40.5783 920.258 -41.4506C919.897 -42.3228 919.803 -43.2826 919.987 -44.2086C920.171 -45.1346 920.626 -45.9852 921.293 -46.6528C921.961 -47.3203 922.811 -47.775 923.737 -47.9592C924.663 -48.1434 925.623 -48.0488 926.495 -47.6875C927.368 -47.3262 928.113 -46.7144 928.638 -45.9294C929.162 -45.1444 929.442 -44.2215 929.442 -43.2773C929.444 -42.6496 929.321 -42.0278 929.082 -41.4474C928.842 -40.8671 928.491 -40.3397 928.048 -39.8953C927.604 -39.451 927.078 -39.0984 926.498 -38.8579C925.918 -38.6174 925.296 -38.4936 924.669 -38.4936V-38.5037ZM937.147 -18.8191C936.084 -17.9176 934.707 -17.4745 933.318 -17.5871C931.929 -17.6996 930.641 -18.3587 929.737 -19.4196C929.218 -19.8845 928.802 -20.4524 928.514 -21.0871C928.227 -21.7218 928.075 -22.4095 928.068 -23.1062C928.061 -23.8029 928.199 -24.4935 928.473 -25.134C928.748 -25.7744 929.152 -26.3507 929.662 -26.826C930.171 -27.3014 930.774 -27.6655 931.432 -27.895C932.09 -28.1246 932.788 -28.2146 933.483 -28.1594C934.177 -28.1042 934.853 -27.9049 935.466 -27.5743C936.08 -27.2437 936.617 -26.7889 937.045 -26.239C938.042 -25.2662 938.613 -23.9378 938.632 -22.545C938.651 -21.1523 938.117 -19.8087 937.147 -18.809V-18.8191ZM961.147 4.39732C961.147 6.35402 960.567 8.26677 959.48 9.8937C958.393 11.5206 956.848 12.7887 955.04 13.5375C953.232 14.2863 951.243 14.4822 949.324 14.1004C947.405 13.7187 945.642 12.7765 944.259 11.3929C942.875 10.0093 941.933 8.2465 941.551 6.3274C941.169 4.40831 941.365 2.41911 942.114 0.611359C942.863 -1.19638 944.131 -2.74149 945.758 -3.82857C947.385 -4.91565 949.297 -5.49588 951.254 -5.49588C952.554 -5.49588 953.841 -5.23965 955.042 -4.74184C956.243 -4.24402 957.334 -3.51437 958.253 -2.59462C959.172 -1.67487 959.901 -0.583061 960.397 0.618416C960.894 1.81989 961.149 3.10744 961.147 4.4075V4.39732ZM953.88 -42.3409C953.88 -41.3344 953.582 -40.3505 953.022 -39.5136C952.463 -38.6767 951.668 -38.0244 950.738 -37.6392C949.809 -37.254 948.785 -37.1533 947.798 -37.3496C946.811 -37.546 945.904 -38.0307 945.192 -38.7424C944.481 -39.4541 943.996 -40.3609 943.8 -41.3481C943.603 -42.3353 943.704 -43.3585 944.089 -44.2885C944.474 -45.2184 945.127 -46.0132 945.964 -46.5724C946.8 -47.1316 947.784 -47.43 948.791 -47.43C950.141 -47.43 951.435 -46.8939 952.389 -45.9395C953.344 -44.9851 953.88 -43.6906 953.88 -42.3409ZM949.269 -66.3004C949.269 -64.8289 948.833 -63.3904 948.015 -62.1668C947.198 -60.9433 946.036 -59.9896 944.676 -59.4265C943.317 -58.8634 941.821 -58.716 940.378 -59.0031C938.934 -59.2902 937.608 -59.9988 936.568 -61.0393C935.527 -62.0799 934.819 -63.4056 934.532 -64.8489C934.245 -66.2921 934.392 -67.7881 934.955 -69.1477C935.518 -70.5072 936.472 -71.6692 937.695 -72.4867C938.919 -73.3043 940.358 -73.7407 941.829 -73.7407C943.802 -73.7407 945.695 -72.9568 947.09 -71.5615C948.485 -70.1661 949.269 -68.2737 949.269 -66.3004Z" fill="white"/>
<path d="M197.884 237.711C189.369 239.068 185.976 244.198 187.706 253.101C189.039 259.941 192.449 269.009 195.615 279.269C202.465 301.488 234.526 290.821 248.368 284.358C253.742 281.868 257.332 279.228 259.137 276.439C268.297 262.312 248.46 235.564 233.315 234.963C223.659 234.604 211.849 235.52 197.884 237.711ZM239.707 263.075C239.707 265.032 239.126 266.945 238.039 268.572C236.952 270.199 235.407 271.467 233.599 272.216C231.792 272.964 229.802 273.16 227.883 272.779C225.964 272.397 224.201 271.455 222.818 270.071C221.434 268.687 220.492 266.925 220.11 265.005C219.728 263.086 219.924 261.097 220.673 259.289C221.422 257.482 222.69 255.937 224.317 254.85C225.944 253.762 227.857 253.182 229.813 253.182C232.437 253.182 234.954 254.225 236.809 256.08C238.664 257.935 239.707 260.452 239.707 263.075Z" fill="white"/>
</g>
</g>
<g opacity="0.5">
<path d="M1024.12 230.55C1024.12 236.084 1019.63 240.571 1014.1 240.571C1008.56 240.571 1004.08 236.084 1004.08 230.55C1004.08 225.015 1008.56 220.528 1014.1 220.528C1019.63 220.528 1024.12 225.015 1024.12 230.55Z" fill="#8831E1" stroke="white" stroke-width="0.152529"/>
<path d="M1021.94 234.195C1027.51 234.195 1032.03 229.674 1032.03 224.097C1032.03 218.521 1027.51 214 1021.94 214C1016.36 214 1011.84 218.521 1011.84 224.097C1011.84 229.674 1016.36 234.195 1021.94 234.195Z" stroke="white" stroke-width="1.46635" stroke-miterlimit="10"/>
</g>
<g opacity="0.3">
<path d="M1149.87 155.312C1136.89 162.74 1122.36 167.847 1108.55 173.486C1108.24 173.611 1107.99 173.847 1108 174.209C1108.41 187.872 1110.47 201.615 1112.03 215.178C1113.72 229.839 1115.22 244.616 1117.78 259.158C1117.85 259.562 1118.33 259.782 1118.7 259.682C1133.14 255.738 1147.05 248.788 1160.65 242.681C1172.53 237.35 1184.57 232.12 1196.13 226.106C1196.52 225.902 1196.56 225.438 1196.4 225.08C1194.71 221.277 1191.95 217.756 1189.69 214.293C1185.18 207.4 1180.6 200.557 1176.03 193.71C1167.58 181.068 1158.8 168.575 1150.9 155.58C1150.4 154.755 1149.1 155.508 1149.6 156.337C1157.7 169.656 1166.71 182.457 1175.36 195.414C1180.03 202.405 1184.71 209.395 1189.3 216.437C1190.73 218.631 1192.15 220.832 1193.53 223.059C1193.93 223.721 1194.33 224.389 1194.72 225.067C1195.27 226.058 1195.59 224.709 1194.49 225.258C1181.02 232.001 1167.22 238.164 1153.44 244.265C1144.98 248.011 1136.48 251.682 1127.84 254.994C1125.05 256.063 1122.24 257.078 1119.38 257.934C1118.67 258.146 1119.02 257.58 1118.78 256.08C1118.52 254.43 1118.28 252.776 1118.04 251.122C1115.08 230.443 1112.75 209.645 1110.69 188.859C1110.33 185.229 1109.99 181.596 1109.71 177.958C1109.63 176.827 1109.56 175.694 1109.51 174.56C1109.5 174.319 1117.54 171.411 1118.29 171.101C1129.14 166.631 1140.43 162.442 1150.63 156.605C1151.47 156.127 1150.71 154.831 1149.87 155.312Z" fill="white"/>
<path d="M1122.63 174.548C1120.25 175.355 1118.88 177.486 1119.44 179.986C1120.01 182.544 1122.67 183.499 1124.96 182.665C1127.22 181.843 1128.33 179.431 1127.91 177.149C1127.44 174.59 1124.84 173.848 1122.63 174.548C1121.71 174.838 1122.1 176.287 1123.03 175.994C1124.47 175.536 1125.92 175.733 1126.42 177.34C1126.86 178.776 1126.1 180.322 1124.86 181.067C1121.22 183.265 1119.07 177.336 1123.03 175.994C1123.94 175.684 1123.55 174.236 1122.63 174.548Z" fill="white"/>
<path d="M1141.63 167.798C1139.25 168.605 1137.88 170.736 1138.44 173.236C1139.01 175.794 1141.67 176.749 1143.96 175.915C1146.22 175.093 1147.33 172.681 1146.91 170.399C1146.44 167.84 1143.84 167.098 1141.63 167.798C1140.71 168.088 1141.1 169.537 1142.03 169.244C1143.47 168.786 1144.92 168.983 1145.42 170.59C1145.86 172.026 1145.1 173.572 1143.86 174.317C1140.22 176.515 1138.07 170.586 1142.03 169.244C1142.94 168.934 1142.55 167.486 1141.63 167.798Z" fill="white"/>
<path d="M1125.75 181.71C1125.16 176.188 1122.25 171.352 1120.56 166.134C1119.17 161.85 1119.71 157.864 1122.53 154.293C1124.52 151.771 1127.16 150.817 1129.98 152.487C1137.41 156.883 1138.87 168.196 1142.85 175.088C1143.34 175.925 1144.63 175.17 1144.15 174.331C1139.99 167.141 1137.71 151.905 1127.91 150.088C1123.33 149.239 1119.86 154.742 1118.66 158.314C1116.05 166.122 1123.44 174.18 1124.25 181.709C1124.35 182.661 1125.85 182.671 1125.75 181.71Z" fill="white"/>
<path d="M1117.75 247.71C1125.06 247.814 1129.92 247.589 1135.15 242.162C1138.17 239.032 1140.58 235.997 1144.77 234.297C1148.7 232.699 1153.21 233.745 1157.31 233.165C1163.9 232.233 1166.35 228.463 1170.75 223.951C1177.34 217.182 1185 223.422 1192.7 221.684C1193.64 221.471 1193.24 220.025 1192.3 220.238C1186.49 221.549 1180.13 217.117 1174.51 219.617C1168.09 222.472 1165.75 230.04 1158.55 231.488C1152.21 232.762 1145.51 230.73 1140.02 235.173C1137.47 237.241 1135.4 239.745 1133.13 242.102C1128.78 246.615 1123.5 246.293 1117.75 246.211C1116.78 246.196 1116.78 247.696 1117.75 247.71Z" fill="white"/>
<path d="M1112.5 208.21C1122.7 207.07 1132.23 203.315 1141.74 199.653C1151.31 195.97 1160.59 192.212 1169.38 186.858C1170.2 186.356 1169.45 185.058 1168.62 185.563C1159.96 190.841 1150.79 194.59 1141.35 198.207C1131.96 201.798 1122.56 205.586 1112.5 206.711C1111.55 206.816 1111.54 208.317 1112.5 208.21Z" fill="white"/>
<path d="M1118.75 199.71C1117.14 199.71 1117.14 202.21 1118.75 202.21C1120.36 202.21 1120.36 199.71 1118.75 199.71Z" fill="white"/>
<path d="M1128 196.96C1126.39 196.96 1126.39 199.46 1128 199.46C1129.61 199.46 1129.61 196.96 1128 196.96Z" fill="white"/>
<path d="M1139 193.96C1137.39 193.96 1137.39 196.46 1139 196.46C1140.61 196.46 1140.61 193.96 1139 193.96Z" fill="white"/>
<path d="M1149.25 190.21C1147.64 190.21 1147.64 192.71 1149.25 192.71C1150.86 192.71 1150.86 190.21 1149.25 190.21Z" fill="white"/>
<path d="M1160.5 184.96C1158.89 184.96 1158.89 187.46 1160.5 187.46C1162.11 187.46 1162.11 184.96 1160.5 184.96Z" fill="white"/>
<path d="M1194.43 223.785C1194.56 222.777 1193.52 221.716 1192.5 221.585C1189.44 221.191 1186.38 221.172 1183.31 221.224C1181.79 220.918 1180.28 220.512 1178.75 220.335C1178.43 220.298 1178.16 220.337 1177.92 220.426C1176.1 220.309 1174.62 220.541 1172.8 221.591C1172.43 221.809 1172.18 222.082 1172.03 222.379C1171.81 222.488 1171.59 222.623 1171.41 222.827C1171.32 222.927 1171.25 223.024 1171.19 223.122C1170.73 223.449 1170.27 223.776 1169.8 224.091C1169.44 224.35 1169.16 224.698 1169.01 225.085C1166.54 226.817 1164.3 228.821 1162.14 230.916C1161.47 231.235 1160.84 231.582 1160.23 231.966C1155.72 233.382 1150.19 232.597 1145.75 233.902C1142.05 234.991 1138.98 237.929 1136.26 240.512C1131.53 244.992 1127.26 247.026 1121 247.1C1120.25 245.984 1118.83 246.201 1118.09 247.086C1117.02 247.344 1116.05 248.569 1116.63 249.906C1117.14 251.07 1117.6 252.25 1118.13 253.406C1118.22 253.596 1118.32 253.746 1118.44 253.878C1118.31 254.863 1118.11 255.832 1117.94 256.711C1117.67 258.155 1119.23 259.881 1120.7 258.829C1121.94 257.937 1123.22 257.107 1124.51 256.304C1124.99 256.55 1125.58 256.611 1126.2 256.329C1135.83 251.916 1145.66 247.954 1155.5 244.018C1155.84 243.881 1156.1 243.674 1156.3 243.434C1158.36 242.623 1160.43 241.813 1162.5 241.018C1162.92 240.855 1163.23 240.591 1163.44 240.278C1168.06 238.543 1172.66 236.76 1177.2 234.829C1177.87 234.543 1178.16 234.048 1178.18 233.523C1183.43 231.386 1188.69 229.269 1194 227.268C1195.57 226.678 1195.73 224.459 1194.43 223.785Z" fill="white"/>
</g>
<g opacity="0.4">
<path d="M1285.48 71.1819C1280.9 72.2888 1276.4 73.6776 1271.93 75.1444C1270.1 75.7431 1266.57 76.0057 1265.98 78.0906C1263.76 85.9631 1262.11 94.0274 1260.29 101.997C1259.71 104.538 1261.01 107.698 1261.56 110.213C1262.41 114.121 1263.29 118.024 1264.18 121.924C1265.79 128.935 1267.42 135.95 1269.38 142.873C1270.73 147.65 1271.82 151.424 1277.43 152.025C1280.77 152.382 1284.24 151.495 1287.49 150.845C1292.87 149.766 1298.04 148.384 1303.26 146.696C1307.19 145.425 1316.86 144.011 1317.25 138.615C1317.6 133.968 1316.11 128.976 1315.08 124.498C1312.7 114.142 1309.64 103.938 1306.57 93.7705C1306.25 92.7109 1306.07 90.9568 1305.42 90.0495C1303.24 87.0085 1299.78 84.3782 1297.11 81.7527C1293.48 78.1988 1289.76 74.7433 1286.05 71.2781C1285.51 70.7699 1284.77 71.6589 1285.31 72.1644C1290.16 76.6947 1294.98 81.2463 1299.7 85.922C1301.08 87.2939 1304.03 89.3311 1304.6 91.203C1304.84 92.0293 1305.09 92.8547 1305.34 93.6809C1306.15 96.3403 1306.95 99.0019 1307.73 101.667C1309.69 108.323 1311.57 115.007 1313.25 121.743C1314.56 127.037 1316.15 132.692 1316.13 138.196C1316.11 141.684 1311.15 142.87 1308.46 143.832C1302.92 145.81 1297.22 147.597 1291.48 148.86C1287.48 149.741 1283.38 150.692 1279.28 150.917C1274.99 151.152 1272.6 149.256 1271.34 145.424C1266.91 131.887 1264.27 117.596 1261.32 103.681C1260.96 102.003 1262.06 99.4291 1262.44 97.7907C1262.96 95.5157 1263.49 93.2424 1264.02 90.9696C1264.89 87.2684 1265.77 83.5681 1266.7 79.8832C1266.84 79.3273 1266.93 78.063 1267.47 77.8747C1269.09 77.3099 1270.71 76.7639 1272.34 76.2245C1276.8 74.7421 1281.31 73.3671 1285.89 72.262C1286.61 72.0869 1286.19 71.0104 1285.48 71.1819Z" fill="white"/>
<path d="M1276.61 79.5197C1271.83 82.0093 1272.51 90.8033 1278.5 90.9098C1282.21 90.9763 1284.79 86.9173 1284.32 83.5539C1283.77 79.5675 1279.94 78.3755 1276.61 79.5197C1275.9 79.7611 1276.31 80.8397 1277.01 80.5984C1280.09 79.5438 1282.78 80.8134 1283.25 84.205C1283.68 87.3337 1280.41 90.2519 1277.41 89.6479C1273.36 88.8312 1274 82.1708 1277.01 80.5984C1277.66 80.26 1277.27 79.1767 1276.61 79.5197Z" fill="white"/>
<path d="M1281.79 88.9491C1276.76 82.5143 1273.78 75.0692 1274.64 66.8079C1275.01 63.277 1276.65 60.1994 1278.8 57.4428C1280.01 55.8895 1281.54 54.6778 1283.29 53.7792C1284.11 53.3946 1284.98 53.1664 1285.9 53.0966C1290.21 52.529 1290.4 56.2905 1289.4 58.9369C1286.59 66.4077 1274.61 65.6193 1268.9 63.1088C1262.72 60.3931 1258.51 54.4122 1256.31 48.242C1256.06 47.5423 1254.98 47.9487 1255.23 48.6484C1258.21 56.9707 1264.44 63.8205 1273.29 65.7364C1280.03 67.1951 1291.83 64.2619 1291.09 55.4653C1290.82 52.3252 1287.31 51.7501 1284.85 52.0732C1280.93 52.5884 1277.96 56.3363 1276.02 59.4216C1269.98 69.0108 1274.5 81.496 1280.86 89.6194C1281.31 90.2029 1282.25 89.5369 1281.79 88.9491Z" fill="white"/>
<path d="M1280.16 113.157C1277.25 114.671 1277.7 119.899 1281.32 119.964C1283.51 120.004 1285.05 117.6 1284.78 115.61C1284.45 113.235 1282.17 112.467 1280.16 113.157C1279.46 113.399 1279.86 114.477 1280.57 114.236C1282.11 113.707 1283.44 114.302 1283.67 116.017C1283.89 117.587 1282.24 119.059 1280.74 118.757C1278.77 118.36 1279.11 114.996 1280.57 114.236C1281.22 113.897 1280.82 112.814 1280.16 113.157Z" fill="white"/>
<path d="M1292.68 119.33C1289.78 120.845 1290.22 126.073 1293.85 126.137C1296.04 126.177 1297.58 123.773 1297.3 121.783C1296.98 119.408 1294.69 118.641 1292.68 119.33C1291.98 119.572 1292.39 120.65 1293.09 120.409C1294.63 119.88 1295.96 120.475 1296.2 122.19C1296.42 123.76 1294.77 125.232 1293.26 124.93C1291.3 124.533 1291.63 121.169 1293.09 120.409C1293.74 120.071 1293.34 118.987 1292.68 119.33Z" fill="white"/>
<path d="M1282.58 133.041C1286.23 123.516 1290.46 114.233 1294.64 104.933C1294.95 104.254 1293.9 103.767 1293.6 104.445C1289.41 113.745 1285.19 123.028 1281.53 132.552C1281.27 133.243 1282.31 133.734 1282.58 133.041Z" fill="white"/>
</g>
<g opacity="0.35">
<path d="M38.4901 243.672C33.0188 244.911 31.4783 253.76 37.4456 255.446C41.0581 256.467 44.6569 253.161 45.0716 249.747C45.5649 245.671 42.1179 243.405 38.4901 243.672C37.2228 243.765 37.4253 245.728 38.6926 245.634C41.4715 245.43 43.42 246.995 43.0626 249.939C42.7362 252.633 39.3647 254.349 37.0103 253.194C33.9229 251.679 35.9452 246.256 38.6926 245.634C39.9161 245.356 39.7303 243.39 38.4901 243.672Z" fill="white"/>
<path d="M56.5309 259.351C51.0596 260.591 49.5191 269.439 55.4864 271.126C59.0989 272.147 62.6976 268.84 63.1123 265.426C63.6056 261.351 60.1587 259.085 56.5309 259.351C55.2636 259.445 55.466 261.407 56.7347 261.314C59.5136 261.11 61.4621 262.675 61.1047 265.619C60.7783 268.313 57.4068 270.029 55.0524 268.874C51.965 267.359 53.9873 261.936 56.7347 261.314C57.9569 261.036 57.7711 259.069 56.5309 259.351Z" fill="white"/>
<path d="M33.8248 277.64C44.0283 263.467 55.0699 249.941 66.0511 236.371C66.8526 235.38 65.3358 234.118 64.536 235.107C53.5534 248.678 42.513 262.204 32.3097 276.376C31.57 277.404 33.0831 278.672 33.8248 277.64Z" fill="white"/>
</g>
<g opacity="0.5">
<path d="M248.625 160.275C249.681 160.331 250.593 160.521 251.48 161.132C252.591 161.898 253.323 163.132 253.532 164.459C253.737 165.765 253.454 167.14 252.657 168.206C251.756 169.41 250.559 169.863 249.133 170.094C248.011 170.121 246.944 169.885 246.022 169.221C245.008 168.491 244.372 167.376 244.171 166.151C244.157 166.063 244.146 165.974 244.137 165.885C244.127 165.796 244.12 165.707 244.115 165.618C244.111 165.528 244.108 165.439 244.108 165.35C244.108 165.26 244.11 165.171 244.115 165.082C244.119 164.992 244.126 164.903 244.135 164.814C244.144 164.725 244.155 164.637 244.169 164.548C244.182 164.46 244.198 164.372 244.216 164.284C244.234 164.197 244.254 164.11 244.276 164.023C244.299 163.937 244.324 163.851 244.351 163.766C244.378 163.68 244.406 163.595 244.437 163.512C244.469 163.428 244.502 163.345 244.537 163.263C244.573 163.181 244.61 163.099 244.65 163.019C244.689 162.939 244.731 162.86 244.774 162.782C244.818 162.704 244.864 162.627 244.911 162.551C244.959 162.475 245.008 162.401 245.059 162.328C245.111 162.254 245.164 162.183 245.219 162.112C246.116 160.947 247.204 160.442 248.625 160.275Z" fill="white"/>
<path d="M248.223 161.884C248.873 161.871 249.451 161.869 250.052 162.159C250.877 162.556 251.474 163.285 251.77 164.144C252.059 164.982 252.063 165.947 251.664 166.751C251.181 167.723 250.438 168.069 249.449 168.381C248.871 168.41 248.326 168.423 247.771 168.229C247.668 168.193 247.567 168.152 247.468 168.105C247.369 168.058 247.273 168.006 247.179 167.95C247.085 167.893 246.995 167.831 246.908 167.765C246.821 167.698 246.738 167.628 246.658 167.552C246.579 167.477 246.504 167.398 246.432 167.315C246.361 167.231 246.295 167.145 246.232 167.055C246.171 166.964 246.114 166.871 246.061 166.775C246.009 166.679 245.962 166.58 245.92 166.479C245.875 166.367 245.836 166.252 245.803 166.136C245.769 166.02 245.742 165.902 245.721 165.783C245.7 165.664 245.685 165.544 245.676 165.423C245.668 165.302 245.666 165.182 245.67 165.061C245.674 164.94 245.684 164.82 245.7 164.7C245.717 164.58 245.74 164.462 245.768 164.344C245.797 164.227 245.832 164.111 245.873 163.997C245.914 163.883 245.961 163.772 246.014 163.663C246.485 162.69 247.23 162.219 248.223 161.884Z" fill="#8831E1"/>
<path d="M213.711 156.329C214.688 156.233 215.571 156.245 216.499 156.605C216.577 156.636 216.654 156.668 216.73 156.703C216.807 156.737 216.882 156.774 216.957 156.812C217.031 156.85 217.105 156.89 217.178 156.932C217.25 156.974 217.322 157.018 217.392 157.063C217.462 157.109 217.532 157.156 217.6 157.205C217.667 157.254 217.734 157.305 217.8 157.357C217.865 157.409 217.93 157.463 217.993 157.518C218.055 157.574 218.117 157.631 218.177 157.689C218.237 157.748 218.295 157.808 218.352 157.869C218.409 157.931 218.465 157.994 218.518 158.058C218.572 158.122 218.625 158.188 218.675 158.255C218.726 158.321 218.775 158.389 218.822 158.459C218.869 158.528 218.915 158.598 218.958 158.67C219.002 158.741 219.044 158.814 219.084 158.887C219.124 158.961 219.162 159.036 219.199 159.111C219.235 159.186 219.27 159.263 219.302 159.34C219.335 159.417 219.365 159.494 219.394 159.572C219.423 159.65 219.449 159.729 219.474 159.808C219.499 159.888 219.521 159.968 219.542 160.049C219.562 160.129 219.581 160.21 219.598 160.292C219.614 160.374 219.628 160.456 219.641 160.538C219.653 160.62 219.663 160.703 219.671 160.786C219.679 160.868 219.685 160.951 219.689 161.035C219.692 161.118 219.694 161.201 219.693 161.284C219.693 161.368 219.69 161.451 219.685 161.534C219.681 161.617 219.674 161.7 219.664 161.783C219.655 161.866 219.644 161.948 219.631 162.03C219.618 162.113 219.602 162.194 219.585 162.276C219.567 162.357 219.547 162.438 219.526 162.518C219.504 162.599 219.48 162.678 219.455 162.758C219.429 162.837 219.401 162.915 219.372 162.993C219.342 163.071 219.31 163.148 219.277 163.224C218.642 164.633 217.516 165.415 216.112 165.931C214.928 166.136 213.76 166.096 212.664 165.56C212.522 165.491 212.384 165.415 212.25 165.332C212.117 165.249 211.987 165.16 211.862 165.064C211.737 164.969 211.616 164.867 211.501 164.759C211.386 164.652 211.276 164.539 211.172 164.421C211.068 164.303 210.97 164.18 210.878 164.052C210.786 163.924 210.701 163.792 210.622 163.655C210.543 163.519 210.471 163.379 210.405 163.236C210.34 163.092 210.282 162.946 210.231 162.797C209.779 161.461 209.948 159.93 210.623 158.697C211.318 157.426 212.37 156.752 213.711 156.329Z" fill="white"/>
<path d="M214.191 157.841C214.826 157.811 215.444 157.854 216.034 158.11C216.14 158.157 216.244 158.209 216.345 158.267C216.446 158.325 216.544 158.388 216.638 158.456C216.733 158.523 216.824 158.596 216.911 158.673C216.998 158.75 217.081 158.832 217.16 158.917C217.238 159.003 217.313 159.093 217.382 159.186C217.451 159.28 217.516 159.376 217.575 159.477C217.635 159.577 217.689 159.679 217.738 159.785C217.787 159.891 217.83 159.999 217.868 160.109C217.904 160.213 217.934 160.318 217.959 160.425C217.984 160.531 218.003 160.639 218.018 160.748C218.032 160.856 218.041 160.965 218.044 161.075C218.048 161.184 218.046 161.294 218.039 161.403C218.032 161.512 218.019 161.621 218.001 161.729C217.983 161.837 217.959 161.944 217.931 162.05C217.902 162.156 217.868 162.26 217.829 162.362C217.79 162.465 217.746 162.565 217.697 162.663C217.233 163.583 216.445 164.094 215.491 164.401C214.795 164.432 214.134 164.415 213.489 164.116C213.392 164.07 213.297 164.021 213.205 163.966C213.113 163.911 213.024 163.852 212.937 163.788C212.851 163.725 212.768 163.657 212.689 163.585C212.609 163.513 212.534 163.437 212.462 163.358C212.39 163.278 212.323 163.195 212.259 163.108C212.196 163.022 212.137 162.933 212.082 162.84C212.028 162.748 211.979 162.653 211.934 162.556C211.889 162.458 211.849 162.359 211.814 162.257C211.507 161.364 211.576 160.323 212.018 159.486C212.497 158.579 213.239 158.133 214.191 157.841Z" fill="#8831E1"/>
<path d="M195.538 103C196.61 103.095 197.602 104.821 198.873 105.222C201.467 106.04 203.857 105.463 205.987 107.628C207.953 109.627 208.032 112.03 208.052 114.636C211.36 114.861 214.679 115.523 217.967 115.958C226.204 117.056 234.435 118.199 242.66 119.388L256.252 121.221C258.673 121.552 261.913 121.67 264.132 122.588C265.689 123.232 266.975 124.663 267.587 126.215C268.084 127.477 268.094 128.833 267.819 130.147C267.219 133.023 265.586 136.005 264.418 138.699L259.159 151.061C258.432 153.031 258.163 157.705 257.109 158.943C256.601 159.541 255.719 159.626 254.987 159.661C252.615 159.776 249.741 159.104 247.357 158.769L235.197 157.174C230.156 156.551 225.112 155.962 220.064 155.405C217.269 155.09 214.343 154.892 211.587 154.367C210.531 154.166 209.488 153.881 208.686 153.129C207.945 152.433 207.393 151.473 207.185 150.477C206.734 148.308 206.876 143.31 206.821 140.914L206.442 120.871C206.39 118.112 206.475 115.324 206.324 112.571C205.929 105.355 199.325 108.601 195.594 105.053C195.272 104.746 194.963 104.324 195.003 103.853C195.04 103.426 195.261 103.282 195.538 103Z" fill="white"/>
<path d="M239.098 149.56C241.664 149.799 244.246 150.121 246.798 150.485C246.148 152.221 245.506 153.961 244.875 155.705C244.787 155.973 244.678 156.238 244.578 156.502C244.003 156.913 238.84 156.003 237.84 155.874C238.187 153.758 238.639 151.654 239.098 149.56Z" fill="#8831E1"/>
<path d="M208.611 145.849C211.243 146.173 213.878 146.474 216.515 146.751L216.289 153.247C214.412 153.256 211.195 153.192 209.803 151.789C208.317 150.291 208.591 147.798 208.611 145.849Z" fill="#8831E1"/>
<path d="M228.968 148.265L237.535 149.326C237.197 151.233 236.766 153.126 236.365 155.02C236.32 155.229 236.269 155.36 236.179 155.55C235.516 155.756 229.714 154.894 228.521 154.746C228.69 152.586 228.889 150.43 228.968 148.265Z" fill="#8831E1"/>
<path d="M218.072 146.917C221.167 147.437 224.327 147.631 227.439 148.052C227.397 150.185 227.22 152.379 227.009 154.501C225.457 154.649 219.768 153.718 217.874 153.487L218.072 146.917Z" fill="#8831E1"/>
<path d="M248.517 150.59C251.27 151.136 254.376 151.261 257.188 151.579C256.895 152.923 256.749 156.62 256.041 157.558C255.752 157.94 255.408 158.006 254.968 158.077C252.012 157.741 249.062 157.367 246.116 156.956C246.891 154.824 247.691 152.703 248.517 150.59Z" fill="#8831E1"/>
<path d="M208.349 135.904C211.181 136.031 214.103 136.539 216.924 136.872C216.929 139.526 216.724 142.196 216.593 144.847L216.503 144.998C215.535 145.207 209.925 144.422 208.527 144.301C208.434 141.504 208.404 138.703 208.349 135.904Z" fill="#8831E1"/>
<path d="M258.548 123.153C260.024 123.453 261.545 123.403 262.982 123.92C264.25 124.375 265.459 125.23 266.022 126.491C266.84 128.328 266.22 130.296 265.551 132.059L263.669 131.813C260.995 131.475 258.323 131.117 255.654 130.738C256.556 128.186 257.52 125.658 258.548 123.153Z" fill="#8831E1"/>
<path d="M241.036 139.956C244.099 140.158 247.233 140.721 250.287 141.097C249.402 143.371 248.618 145.689 247.802 147.989C247.69 148.358 247.63 148.645 247.32 148.902C244.822 148.885 241.894 148.329 239.41 147.92C239.883 145.258 240.492 142.606 241.036 139.956Z" fill="#8831E1"/>
<path d="M251.947 141.31C254.98 141.61 258.004 142.045 261.037 142.372C260.034 144.943 258.991 147.496 257.906 150.033C257.19 150.23 250.381 149.251 249.158 149.053C250.066 146.464 250.995 143.883 251.947 141.31Z" fill="#8831E1"/>
<path d="M255.135 132.24C258.374 132.715 261.624 133.091 264.864 133.552C263.888 135.945 262.873 138.322 261.817 140.681L261.689 140.828C260.568 141.023 254.134 140.026 252.545 139.832C253.276 137.279 254.282 134.758 255.135 132.24Z" fill="#8831E1"/>
<path d="M208.188 125.847C211.219 126.326 214.293 126.651 217.336 127.059C217.282 129.759 217.134 132.46 217.033 135.159C215.872 135.382 209.909 134.436 208.289 134.247C208.219 131.448 208.185 128.647 208.188 125.847Z" fill="#8831E1"/>
<path d="M229.91 138.526C233.119 138.875 236.324 139.263 239.525 139.689C238.911 142.117 238.443 144.601 237.911 147.049C237.863 147.261 237.795 147.421 237.707 147.618C236.85 147.741 230.487 146.866 229.166 146.662C229.247 144.121 229.384 140.994 229.91 138.526Z" fill="#8831E1"/>
<path d="M208.052 116.193C211.248 116.654 214.466 117.021 217.667 117.455L217.472 125.286C217.094 125.536 209.328 124.375 208.162 124.244C208.17 121.562 208.088 118.875 208.052 116.193Z" fill="#8831E1"/>
<path d="M242.945 130.537C246.42 131.211 250.049 131.637 253.565 132.072C252.744 134.248 251.953 136.436 251.192 138.634C251.088 138.972 251.008 139.204 250.798 139.497C249.612 139.628 243.044 138.626 241.373 138.431C241.863 135.79 242.349 133.158 242.945 130.537Z" fill="#8831E1"/>
<path d="M218.447 137.055L228.317 138.263C228.12 140.907 227.892 143.548 227.633 146.186L227.595 146.344C227.201 146.509 219.334 145.47 218.152 145.336C218.213 142.576 218.373 139.816 218.447 137.055Z" fill="#8831E1"/>
<path d="M218.834 127.298L229.081 128.641C228.917 131.27 228.709 133.923 228.399 136.539L228.332 136.607C227.196 136.75 220.002 135.677 218.548 135.424C218.578 132.719 218.79 130.008 218.834 127.298Z" fill="#8831E1"/>
<path d="M230.729 128.835C234.222 129.547 237.875 129.879 241.411 130.377C240.865 132.807 240.364 135.247 239.907 137.695C239.848 137.921 239.818 137.972 239.68 138.146C238.452 138.119 237.194 137.875 235.975 137.717C233.973 137.474 231.975 137.203 229.98 136.904C230.22 134.226 230.328 131.492 230.729 128.835Z" fill="#8831E1"/>
<path d="M219.241 117.743C222.837 118.26 226.469 118.662 230.046 119.287C229.713 121.727 229.579 124.226 229.349 126.679L229.263 126.931C228.598 127.193 220.451 125.871 219.058 125.681C219.072 123.037 219.178 120.386 219.241 117.743Z" fill="#8831E1"/>
<path d="M231.617 119.479C235.373 120.236 239.407 120.564 243.219 121.065C242.756 123.49 242.277 125.913 241.782 128.332L241.665 128.659C240.717 128.957 232.591 127.514 230.839 127.282C231.073 124.679 231.332 122.078 231.617 119.479Z" fill="#8831E1"/>
<path d="M244.723 121.279C248.766 121.917 252.872 122.227 256.897 122.977C256.106 125.083 255.301 127.184 254.481 129.279L253.993 130.54C250.45 129.929 246.844 129.528 243.279 129.055C243.696 126.455 244.232 123.867 244.723 121.279Z" fill="#8831E1"/>
</g>
<path opacity="0.4" d="M1158.15 55.2585C1158.36 52.4405 1157.79 49.6625 1157.18 46.9155C1158.73 46.2855 1160.28 45.6795 1161.84 45.0805C1163.61 44.3965 1162.96 41.5575 1161.14 41.5145C1159.46 41.4755 1157.78 41.4035 1156.11 41.3035C1155.73 38.8435 1155.36 36.3935 1154.42 34.0465C1153.77 32.4455 1151.47 32.8115 1150.94 34.2655C1150.14 36.4755 1149.02 38.5205 1147.8 40.5085C1146.22 40.2985 1144.65 40.0545 1143.07 39.7675C1141.36 39.4565 1140.61 41.7235 1141.53 42.8665C1142.4 43.9475 1143.32 44.9735 1144.27 45.9725C1143.13 47.7445 1142.06 49.5495 1141.18 51.4625C1140.45 53.0365 1142.08 54.0875 1143.43 53.7535C1143.79 53.7385 1144.13 53.6415 1144.44 53.4325C1145.94 52.4185 1147.49 51.5035 1149.07 50.6555C1151.05 52.5095 1153.03 54.3625 1154.85 56.3625C1155.96 57.5745 1158.03 56.9335 1158.15 55.2585Z" fill="white"/>
<path opacity="0.3" d="M347.706 257.609C348.123 252.088 346.999 246.645 345.8 241.263C348.834 240.029 351.892 238.842 354.944 237.668C358.424 236.328 357.163 230.766 353.574 230.682C350.271 230.605 346.981 230.464 343.688 230.268C342.941 225.449 342.214 220.649 340.363 216.05C339.099 212.914 334.581 213.631 333.54 216.479C331.958 220.809 329.769 224.816 327.36 228.711C324.259 228.299 321.164 227.821 318.074 227.259C314.716 226.65 313.238 231.091 315.036 233.331C316.742 235.448 318.55 237.459 320.425 239.416C318.194 242.887 316.076 246.424 314.351 250.172C312.926 253.256 316.129 255.315 318.784 254.66C319.474 254.631 320.157 254.441 320.765 254.031C323.703 252.045 326.748 250.252 329.865 248.591C333.748 252.223 337.631 255.853 341.22 259.772C343.399 262.146 347.461 260.891 347.706 257.609Z" fill="white"/>
<g opacity="0.4">
<path d="M76.2984 103.117L66.5232 83.1288L86.5257 73.3585L80.7646 61.5885L60.7815 71.3493L51.0063 51.3612L39.2413 57.1079L48.9971 77.1054L29.014 86.8662L34.7557 98.6457L54.7582 88.8754L64.514 108.873L76.2984 103.117Z" fill="#8831E1"/>
<path d="M80.2 91.7648L70.4248 71.7767L90.4273 62.0065L84.6662 50.2365L64.6831 59.9973L54.9079 40.0092L43.1429 45.7558L52.8987 65.7534L32.9156 75.5142L38.6573 87.2936L58.6598 77.5234L68.4156 97.5209L80.2 91.7648Z" stroke="white" stroke-width="1.1344" stroke-miterlimit="10"/>
</g>
</svg>
