<svg width="170" height="44" viewBox="0 0 170 44" fill="none" xmlns="http://www.w3.org/2000/svg">
<mask id="mask0_2404_9813" style="mask-type:luminance" maskUnits="userSpaceOnUse" x="0" y="0" width="31" height="44">
<path d="M30.0667 0H0V44H30.0667V0Z" fill="white"/>
</mask>
<g mask="url(#mask0_2404_9813)">
<path d="M15.0034 43.8516C23.2896 43.8516 30.0068 37.1261 30.0068 28.8296C30.0068 20.5332 23.2896 13.8076 15.0034 13.8076C6.71727 13.8076 0 20.5332 0 28.8296C0 37.1261 6.71727 43.8516 15.0034 43.8516Z" fill="#D14BF8"/>
<path d="M3.17188 38.0665C9.50221 38.7086 14.2847 34.577 14.5965 28.4816V14.5709C14.8728 8.97524 19.379 6.29309 22.9982 7.20386C22.9982 7.20386 23.8739 26.5403 23.6153 29.5395C23.3295 32.7878 22.5134 34.6402 22.5134 34.6402C20.6668 38.9707 12.2651 45.2799 3.17188 38.0502V38.0681V38.0665Z" fill="#8831E1"/>
<path d="M3.17188 38.0663C7.1659 41.2887 12.9162 41.8598 17.4628 38.977C21.376 36.1655 22.4989 32.3509 22.5265 28.1109V8.04647C22.6864 3.88736 25.1083 0.804 30.0476 0V27.3683C30.1203 29.481 29.9619 31.0244 29.6323 32.5499C29.6323 32.5499 28.1265 42.8402 16.5272 43.9289C7.77341 44.7506 3.1735 38.0744 3.1735 38.0744V38.0647L3.17188 38.0663Z" fill="#4C20CD"/>
</g>
<mask id="mask1_2404_9813" style="mask-type:alpha" maskUnits="userSpaceOnUse" x="35" y="4" width="135" height="36">
<path d="M147.54 19.3461C148.371 17.5922 149.647 16.1613 151.371 15.0537C153.125 13.946 155.185 13.3922 157.556 13.3922C159.863 13.3922 161.925 13.9307 163.741 15.0075C165.555 16.0537 166.97 17.5614 167.987 19.5306C169.032 21.4691 169.556 23.7307 169.556 26.3152C169.556 28.8998 169.032 31.1766 167.987 33.1459C166.97 35.1151 165.54 36.6382 163.694 37.7152C161.878 38.792 159.832 39.3306 157.556 39.3306C155.155 39.3306 153.078 38.792 151.325 37.7152C149.602 36.6074 148.341 35.1767 147.54 33.4228V38.9613H144.355V4.80762H147.54V19.3461ZM166.278 26.3152C166.278 24.2229 165.863 22.4228 165.033 20.9153C164.232 19.3767 163.125 18.2075 161.709 17.4076C160.294 16.6075 158.694 16.2075 156.909 16.2075C155.185 16.2075 153.601 16.6229 152.155 17.4538C150.74 18.2845 149.617 19.4691 148.786 21.0075C147.955 22.546 147.54 24.3305 147.54 26.3613C147.54 28.3922 147.955 30.1767 148.786 31.7152C149.617 33.2536 150.74 34.4382 152.155 35.2689C153.601 36.0998 155.185 36.5152 156.909 36.5152C158.694 36.5152 160.294 36.1152 161.709 35.3151C163.125 34.4844 164.232 33.2998 165.033 31.7613C165.863 30.1921 166.278 28.3768 166.278 26.3152Z" fill="black"/>
<path d="M139.088 9.00773C138.442 9.00773 137.888 8.77696 137.427 8.31543C136.965 7.85388 136.734 7.28466 136.734 6.60775C136.734 5.93082 136.965 5.37698 137.427 4.94622C137.888 4.48467 138.442 4.25391 139.088 4.25391C139.734 4.25391 140.288 4.48467 140.75 4.94622C141.211 5.37698 141.442 5.93082 141.442 6.60775C141.442 7.28466 141.211 7.85388 140.75 8.31543C140.288 8.77696 139.734 9.00773 139.088 9.00773ZM140.703 13.7615V38.9614H137.473V13.7615H140.703Z" fill="black"/>
<path d="M125.528 18.2382C126.235 16.669 127.312 15.4536 128.758 14.5921C130.235 13.7306 132.035 13.2998 134.158 13.2998V16.669H133.281C130.943 16.669 129.066 17.2999 127.651 18.5613C126.235 19.8228 125.528 21.9306 125.528 24.8844V38.9612H122.297V13.7613H125.528V18.2382Z" fill="black"/>
<path d="M93.1523 26.3156C93.1523 23.731 93.6601 21.4694 94.6755 19.5309C95.7217 17.5618 97.1524 16.0541 98.9677 15.0079C100.814 13.931 102.891 13.3926 105.199 13.3926C107.598 13.3926 109.66 13.9464 111.383 15.0541C113.137 16.1619 114.398 17.5772 115.168 19.3002V13.7618H118.398V38.9616H115.168V33.377C114.368 35.1002 113.091 36.5309 111.337 37.6694C109.614 38.777 107.552 39.3309 105.152 39.3309C102.875 39.3309 100.814 38.7924 98.9677 37.7156C97.1524 36.6386 95.7217 35.1156 94.6755 33.1463C93.6601 31.1772 93.1523 28.9002 93.1523 26.3156ZM115.168 26.3618C115.168 24.3309 114.752 22.5464 113.922 21.0079C113.091 19.4695 111.952 18.2849 110.506 17.4541C109.091 16.6233 107.522 16.2079 105.799 16.2079C104.014 16.2079 102.414 16.6079 100.999 17.4079C99.5831 18.2079 98.4601 19.3771 97.6293 20.9156C96.8293 22.4234 96.4293 24.2233 96.4293 26.3156C96.4293 28.3771 96.8293 30.1924 97.6293 31.7618C98.4601 33.3002 99.5831 34.4848 100.999 35.3155C102.414 36.1156 104.014 36.5155 105.799 36.5155C107.522 36.5155 109.091 36.1002 110.506 35.2693C111.952 34.4386 113.091 33.254 113.922 31.7156C114.752 30.177 115.168 28.3925 115.168 26.3618Z" fill="black"/>
<path d="M64.1289 26.3156C64.1289 23.731 64.6365 21.4694 65.6519 19.5309C66.6981 17.5618 68.1288 16.0541 69.9442 15.0079C71.7903 13.931 73.8673 13.3926 76.1749 13.3926C78.575 13.3926 80.6365 13.9464 82.3596 15.0541C84.1134 16.1619 85.3749 17.5772 86.1442 19.3002V13.7618H89.3749V38.9616H86.1442V33.377C85.3441 35.1002 84.0672 36.5309 82.3134 37.6694C80.5903 38.777 78.5288 39.3309 76.1289 39.3309C73.8519 39.3309 71.7903 38.7924 69.9442 37.7156C68.1288 36.6386 66.6981 35.1156 65.6519 33.1463C64.6365 31.1772 64.1289 28.9002 64.1289 26.3156ZM86.1442 26.3618C86.1442 24.3309 85.7288 22.5464 84.8979 21.0079C84.0672 19.4695 82.9288 18.2849 81.4827 17.4541C80.0672 16.6233 78.498 16.2079 76.7749 16.2079C74.9903 16.2079 73.3903 16.6079 71.975 17.4079C70.5596 18.2079 69.4365 19.3771 68.6058 20.9156C67.8058 22.4234 67.4057 24.2233 67.4057 26.3156C67.4057 28.3771 67.8058 30.1924 68.6058 31.7618C69.4365 33.3002 70.5596 34.4848 71.975 35.3155C73.3903 36.1156 74.9903 36.5155 76.7749 36.5155C78.498 36.5155 80.0672 36.1002 81.4827 35.2693C82.9288 34.4386 84.0672 33.254 84.8979 31.7156C85.7288 30.177 86.1442 28.3925 86.1442 26.3618Z" fill="black"/>
<path d="M35.4961 26.3152C35.4961 23.7307 36.0191 21.4691 37.0653 19.5306C38.1115 17.5614 39.5422 16.0537 41.3576 15.0075C43.2037 13.9307 45.2807 13.3922 47.5883 13.3922C49.8037 13.3922 51.8037 13.9307 53.5883 15.0075C55.3729 16.0845 56.6806 17.4844 57.5113 19.2076V4.80762H60.7421V38.9613H57.5113V33.3306C56.7421 35.0844 55.4806 36.5306 53.7268 37.669C51.9729 38.7766 49.9114 39.3306 47.5421 39.3306C45.2345 39.3306 43.1575 38.792 41.3114 37.7152C39.4961 36.6382 38.0653 35.1151 37.0192 33.1459C36.0039 31.1766 35.4961 28.8998 35.4961 26.3152ZM57.5113 26.3613C57.5113 24.3305 57.096 22.546 56.2653 21.0075C55.4344 19.4691 54.296 18.2845 52.8498 17.4538C51.4345 16.6229 49.8652 16.2075 48.1421 16.2075C46.3576 16.2075 44.7577 16.6075 43.3422 17.4076C41.9268 18.2075 40.8038 19.3767 39.9729 20.9153C39.173 22.4228 38.7731 24.2229 38.7731 26.3152C38.7731 28.3768 39.173 30.1921 39.9729 31.7613C40.8038 33.2998 41.9268 34.4844 43.3422 35.3151C44.7577 36.1152 46.3576 36.5152 48.1421 36.5152C49.8652 36.5152 51.4345 36.0998 52.8498 35.2689C54.296 34.4382 55.4344 33.2536 56.2653 31.7152C57.096 30.1767 57.5113 28.3922 57.5113 26.3613Z" fill="black"/>
</mask>
<g mask="url(#mask1_2404_9813)">
<path d="M53.5652 -22.2482L7.96484 -34.4668L-17.8149 61.7447L27.7854 73.9632L53.5652 -22.2482Z" fill="#8831E1"/>
<path d="M79.3308 -18.7004L33.7305 -30.9189L7.95068 65.2925L53.551 77.5111L79.3308 -18.7004Z" fill="#4C20CD"/>
<path d="M102.155 -22.2482L56.5547 -34.4668L30.7749 61.7447L76.3752 73.9632L102.155 -22.2482Z" fill="#D14BF8"/>
<path d="M124.96 -22.2482L79.3594 -34.4668L53.5796 61.7447L99.1799 73.9632L124.96 -22.2482Z" fill="#8831E1"/>
<path d="M150.725 -18.7004L105.125 -30.9189L79.3452 65.2925L124.946 77.5111L150.725 -18.7004Z" fill="#4C20CD"/>
<path d="M131.454 -27.1199L121.551 -29.7734L95.771 66.438L105.674 69.0916L131.454 -27.1199Z" fill="#D14BF8"/>
<path d="M186.952 -23.2746L141.352 -35.4932L115.572 60.7183L161.172 72.9369L186.952 -23.2746Z" fill="#8831E1"/>
<path d="M199.569 -20.048L153.969 -32.2666L128.189 63.9449L173.789 76.1634L199.569 -20.048Z" fill="#4C20CD"/>
<path d="M179.419 -25.2136L169.516 -27.8672L143.736 68.3443L153.639 70.9979L179.419 -25.2136Z" fill="#D14BF8"/>
</g>
</svg>
